<svg xmlns="http://www.w3.org/2000/svg" viewBox="0 2 19.76 21.7" fill="currentColor"><path d="M16.6284 5.24048C18.688 7.33087 19.7956 10.094 19.7522 13.0198V13.0162C19.6617 18.9076 14.7064 23.6996 8.70876 23.6996H0.282329C0.123066 23.6996 0.0434352 23.5079 0.155643 23.3922L4.25665 19.2729C4.32542 19.2042 4.41591 19.1644 4.51364 19.1644H8.78839C12.227 19.1644 15.1082 16.4158 15.2096 13.0415C15.2602 11.32 14.6268 9.69252 13.4251 8.45564C12.2234 7.21876 10.6127 6.53884 8.89336 6.53884H4.5426V13.5623C4.5426 13.6238 4.49554 13.6708 4.43401 13.6708H0.108588C0.0470548 13.6708 0 13.6238 0 13.5623V2.10849C0 2.04701 0.0470548 2 0.108588 2H8.89336C11.8216 2 14.5689 3.15008 16.6284 5.24048Z"/></svg>
