<svg xmlns="http://www.w3.org/2000/svg" width="256" height="256" viewBox="0 0 256 256">
<!-- Vectorized from the OpenRouter raster mark with color-layer tracing. -->
<g transform="translate(0.000000,256.000000) scale(1.000000,-1.000000)"
fill="#302d2f" stroke="none">
<path d="M2 254 c0 -2 2 -3 2 -1 0 0 1 1 2 2 2 1 2 1 -1 1 -2 0 -3 0 -3 -2z
M14 255 c0 0 -1 -1 -1 -1 -2 0 -9 -3 -8 -3 1 0 1 -1 -1 -1 -1 -1 -2 -2 -3 -1
0 0 -1 0 -1 -1 0 -1 0 -2 1 -2 1 0 1 -1 1 -3 0 -2 -1 -3 -1 -3 -1 0 -1 -1 -1
-2 0 0 0 -1 1 -1 0 1 1 0 1 -1 1 0 0 -1 -1 -2 0 0 -1 -1 -1 -2 0 -2 1 -2 3 -2
2 0 3 0 3 -2 0 -3 -3 -4 -5 -1 -1 1 -1 0 -1 -5 0 -5 0 -6 2 -6 l3 -1 -3 0 -2
-1 0 -103 c0 -91 0 -102 2 -102 1 1 6 5 20 14 3 3 6 6 6 6 0 1 -2 5 -5 9 -6
10 -9 19 -9 25 1 6 6 17 10 22 1 2 2 4 1 5 -2 5 -4 18 -4 27 1 14 3 20 11 29
3 4 4 6 4 9 0 2 0 5 1 8 0 2 0 4 -1 6 0 1 -1 4 -2 7 0 2 0 4 -1 5 0 0 0 3 -1
6 -3 9 -3 20 -2 30 3 13 5 16 15 15 4 -1 6 -2 11 -5 4 -3 8 -6 10 -8 1 -2 4
-4 6 -5 4 -2 5 -2 10 0 9 2 39 5 56 5 l10 1 7 7 c3 4 7 9 8 11 3 6 11 12 16
12 3 0 6 -3 8 -7 4 -7 7 -23 7 -33 0 -5 1 -13 2 -16 1 -7 1 -8 7 -13 6 -6 11
-12 11 -12 -1 0 -1 -2 -1 -3 -1 -2 -1 -4 -1 -5 -1 -2 0 -3 4 -5 3 -2 5 -4 5
-5 1 -1 3 -4 4 -7 4 -6 5 -9 6 -18 0 -3 1 -7 1 -8 1 -2 1 -3 0 -5 -1 -1 -1 -2
-1 -3 1 0 0 -2 0 -4 -1 -3 -1 -3 4 -7 2 -3 4 -4 4 -4 1 4 1 -11 -1 -15 -1 -6
-1 -6 2 -14 2 -7 2 -10 2 -16 -1 -3 -1 -7 -1 -8 -1 -1 1 -3 6 -7 4 -3 8 -6 8
-6 1 0 1 44 1 98 0 75 0 99 -1 100 -1 1 -1 1 0 1 1 0 1 3 0 5 -1 1 -1 1 0 1 2
0 1 3 0 3 -2 1 -2 3 0 3 2 0 1 3 -1 4 -1 0 -2 0 -2 -2 0 -1 -1 -2 -2 -2 0 -1
-1 -1 -1 -2 1 0 0 -1 -1 -1 -2 -1 -2 -1 -2 1 1 1 0 2 0 2 -1 1 -1 1 0 2 1 1 2
1 2 -1 0 -2 2 -1 2 1 0 1 0 2 1 2 1 0 1 0 1 1 0 1 -1 1 -3 1 -2 0 -3 0 -3 1 1
2 -2 5 -4 5 -1 0 -1 1 0 2 0 2 0 2 -3 2 -2 0 -3 0 -3 -1 1 -1 1 -1 2 -1 1 0 2
-1 2 -1 0 -3 -2 -3 -3 -1 -2 2 -3 3 -4 2 -1 0 -3 0 -3 1 -1 2 -4 0 -4 -2 1 -1
0 -1 -2 -1 -2 0 -3 0 -3 1 -1 1 0 1 1 1 1 0 2 0 2 1 0 1 -1 1 -3 1 -2 0 -3 0
-3 -2 1 0 0 -1 -1 -2 -2 0 -3 1 -1 2 1 2 1 2 -2 2 -1 0 -3 0 -4 -1 0 -1 -2 -1
-3 0 -3 1 -3 1 -4 0 -1 -1 -1 -1 -1 0 -1 1 -144 1 -144 0 0 -1 1 -1 1 -1 1 0
1 0 0 -1 -1 -1 -2 -1 -2 0 -1 1 -2 1 -3 1 -1 0 -2 0 -1 1 0 1 0 1 -2 1 -1 -1
-3 -1 -4 -1 -1 0 -2 -1 -3 -1 -1 -1 -4 0 -4 1 0 2 -2 1 -5 -1 -2 -2 -3 -2 -6
0 -3 2 -4 2 -5 1 -1 -1 -2 -3 -2 -4 0 -2 -4 -7 -5 -7 -1 0 -1 1 -1 2 0 1 1 2
2 2 1 0 1 1 1 2 -1 1 -1 2 -1 2 -1 3 -4 5 -4 3z m38 -4 c-1 -1 -2 -1 -2 -1 -1
0 -1 0 -1 1 0 1 1 1 2 1 0 0 1 0 1 -1z m-17 -1 c2 0 3 0 3 -1 0 0 -1 -1 -3 -1
-2 0 -2 0 -1 -1 1 -2 1 -3 0 -3 -1 0 -2 1 -2 2 0 1 -1 2 -3 2 -2 0 -2 0 -1 -1
1 -2 1 -8 -1 -9 0 0 -1 1 -1 2 0 1 -1 3 -2 3 -4 0 -4 0 -3 2 1 0 2 2 2 2 0 1
1 1 2 0 1 -1 1 -1 1 1 0 2 1 3 3 2 1 -1 4 -1 6 0z m201 0 c0 -1 0 -2 1 -2 1 0
1 -1 1 -2 0 -1 0 -2 -1 -2 -1 0 -1 1 -1 2 0 1 -1 2 -2 2 0 1 -1 1 -1 2 1 2 3
1 3 0z m6 -2 c0 -3 -2 -2 -2 1 0 1 0 2 1 2 0 -1 1 -2 1 -3z m-227 -1 c0 -1 0
-3 -2 -5 -1 -2 -1 -2 -2 -1 -1 1 -1 2 -1 3 1 0 0 1 -1 2 -3 1 -1 4 2 4 2 0 3
-1 4 -3z m32 2 c1 0 0 -1 -1 -2 -1 -1 -3 0 -1 2 0 1 2 1 2 0z m171 -2 c-1 0
-4 1 -4 2 0 1 1 0 2 0 1 -1 2 -2 2 -2z m6 0 c0 -1 -3 -1 -3 0 -1 1 0 2 1 1 1
0 2 0 2 -1z m9 -3 c1 0 1 0 1 -1 0 -1 -3 -1 -3 0 0 0 0 1 -1 2 0 2 0 3 1 3 0
1 1 0 1 -1 0 -2 1 -3 1 -3z m-191 2 c0 -1 -1 -1 -1 -1 -1 0 -2 0 -2 1 0 1 0 1
1 1 0 0 1 0 2 -1z m186 -1 c0 0 -1 0 -1 0 -1 0 -2 0 -2 1 0 1 1 1 2 0 0 0 1 0
1 -1z m-178 0 c0 -1 0 -1 0 -1 -1 0 -1 0 -1 1 -1 1 -1 1 0 1 1 0 1 0 1 -1z
m-42 -3 c0 -1 0 -2 1 -2 0 0 1 -1 1 -2 0 -1 -1 -2 -1 -2 -1 0 -1 1 -1 2 0 1 0
1 -1 0 -3 -3 -4 0 -2 4 2 3 3 3 3 0z m29 -2 c-1 -1 -2 1 -1 2 0 1 0 1 1 0 0
-1 0 -1 0 -2z m201 0 c-1 -1 -2 1 -1 2 0 1 0 1 1 0 0 -1 0 -1 0 -2z m3 1 c-1
-1 -1 -1 -1 0 0 1 0 2 1 2 0 -1 0 -1 0 -2z m-218 -3 c2 -1 1 -2 -1 -2 -1 0 -2
0 -2 1 0 0 -1 1 -2 1 -1 0 -2 -1 -2 -2 0 -2 0 -2 -1 0 -2 3 -2 4 0 4 2 1 6 0
8 -2z m11 1 c0 -1 0 -2 -1 -2 -1 0 -1 1 -1 2 0 0 0 1 1 1 1 0 1 -1 1 -1z m209
0 c0 -1 0 -1 -1 -1 -1 0 -1 0 0 1 0 1 0 1 1 1 0 0 0 0 0 -1z m-5 -3 c-1 -1 -1
-1 0 0 0 1 0 2 1 2 0 -1 0 -2 -1 -2z m-194 -1 c0 -1 -1 -1 -2 -1 -1 -1 -2 0
-1 0 0 1 3 1 3 1z m-35 -2 c0 -1 -1 -1 -2 -1 -2 0 -3 0 -3 1 0 1 4 1 5 0z m11
0 c0 -1 0 -1 -1 -1 -1 0 -1 0 0 1 0 1 0 1 1 1 0 0 0 0 0 -1z m231 -1 c0 0 1 0
1 -1 0 -1 -1 -1 -2 -1 0 1 -1 1 -2 1 0 0 0 1 0 2 0 1 0 1 1 0 0 0 1 -1 2 -1z
m-234 -3 c0 0 -1 0 -2 0 -1 1 -1 1 0 2 1 1 4 -1 2 -2z m8 2 c1 -1 1 -1 0 -1
-1 0 -2 0 -3 1 -1 1 -1 1 0 1 1 0 2 0 3 -1z m-13 -2 c0 -1 -1 -1 -2 -1 -2 0
-3 1 -1 2 0 1 3 0 3 -1z m2 -4 c0 -1 0 -1 -1 -1 -1 0 -1 0 -1 1 0 1 0 1 1 1 1
0 1 0 1 -1z m-9 -5 c2 -2 0 -3 -2 -1 -1 1 -2 2 -2 2 0 1 3 1 4 -1z M245 255
c-2 -1 -1 -3 1 -3 1 0 2 -1 2 -2 0 -1 1 -2 2 -2 1 0 1 0 1 1 -1 0 1 3 2 3 1 0
1 -1 1 -2 0 -1 -1 -2 -1 -2 -2 0 1 -2 2 -2 2 0 1 6 0 8 -2 2 -4 3 -4 0 0 -1 0
-2 -1 -2 -1 0 -2 0 -2 2 0 2 -2 3 -3 1z M57 191 c-1 0 -1 -1 -1 -1 0 -1 0 -1
1 0 1 0 1 1 1 1 0 1 -1 1 -1 0z M56 186 c0 -1 0 -1 1 0 0 1 0 1 0 2 -1 0 -1
-1 -1 -2z M186 170 c-1 0 -1 -2 -1 -3 -1 -2 -2 -4 -4 -6 -2 -2 -3 -2 -7 -2 -7
1 -13 3 -16 4 -2 2 -2 2 -5 0 -1 -1 -2 -3 -2 -4 0 -1 0 -1 1 0 1 2 2 2 6 1 6
0 10 -2 10 -3 0 -1 1 -1 2 0 1 1 4 1 5 0 5 0 10 2 13 7 1 2 1 2 2 1 1 -1 2 -2
2 -1 0 1 1 1 4 -1 2 -2 2 -2 0 -3 -1 -2 -1 -2 -3 0 l-1 2 0 -2 c0 -2 -1 -7 -3
-11 0 -1 0 -3 0 -4 1 -1 1 -3 1 -4 -1 -1 -1 -2 0 -3 1 -1 0 -2 0 -3 -1 -1 -1
-1 1 0 1 1 2 2 2 3 0 1 0 4 0 6 0 2 0 4 -1 4 0 -1 -1 0 0 1 0 1 1 2 2 3 0 0 1
1 2 3 1 2 2 3 3 3 0 0 1 1 2 2 0 2 2 4 4 5 3 2 2 5 -1 5 l-2 0 2 -1 c3 0 2 -2
-1 -4 -3 -1 -3 -1 -5 1 l-2 3 3 0 c2 1 2 1 -1 1 -1 0 -5 0 -7 1 -3 0 -5 0 -5
-1z m4 -1 c0 -1 -1 -1 -2 -1 0 0 -1 0 0 1 0 1 1 1 1 1 1 0 1 0 1 -1z M99 162
c-1 -1 -1 -1 0 -1 0 0 1 -1 2 -3 2 -4 6 -5 17 -5 12 1 12 1 12 2 0 2 -2 2 -11
0 -8 -2 -13 0 -15 5 -2 3 -3 4 -5 2z M95 161 c1 0 1 0 2 0 0 1 -1 1 -2 1 -1 0
-1 0 0 -1z M90 160 c1 0 1 0 2 0 0 1 -1 1 -2 1 -1 0 -1 0 0 -1z M73 155 c-1 0
-1 -1 -1 -2 2 -2 3 -1 3 1 0 1 0 2 0 2 0 0 -1 0 -2 -1z M76 153 c0 -1 1 -1 2
-1 0 -1 1 -1 0 0 0 1 -2 1 -2 1z M81 147 c0 -2 1 -2 1 -1 0 1 0 3 -1 3 0 1 -1
0 0 -2z M173 146 c-2 -1 -3 -3 -3 -3 0 -1 2 0 4 0 3 1 4 2 4 4 0 4 -1 4 -5 -1z
M83 143 c0 -1 0 -2 1 -2 0 1 0 2 -1 2 -1 1 -1 1 0 0z M182 143 c-1 -2 -1 -2 0
-2 1 0 2 0 3 1 1 2 -1 2 -3 1z M84 139 c0 0 0 -1 1 -1 1 -1 1 0 0 0 0 2 -1 2
-1 1z M170 138 c2 -2 4 -3 4 -3 1 0 -5 5 -6 5 -1 0 0 -1 2 -2z M176 134 c1 -1
4 -1 7 -1 5 0 4 1 -3 1 -3 1 -5 0 -4 0z M92 130 c2 -2 4 -3 4 -3 1 0 1 1 0 1
-2 1 -3 2 -5 3 -1 1 0 0 1 -1z M142 126 c-4 -3 -4 -7 1 -12 6 -6 7 -9 7 -14 1
-6 1 -6 -3 -9 -2 -1 -6 -4 -8 -5 l-3 -3 5 1 c8 0 8 0 13 0 3 -1 5 -1 5 0 0 1
8 4 11 3 1 0 2 0 2 1 0 1 -7 8 -9 8 -1 1 -1 1 0 3 1 1 1 4 2 5 0 2 1 4 2 6 2
2 2 3 1 3 -4 2 -5 2 -5 3 0 1 1 1 2 1 2 -1 3 0 4 1 2 2 2 2 1 5 -1 4 -3 4 -8
3 -2 -1 -5 -1 -7 -1 -3 0 -3 0 -1 -1 1 -1 3 -3 3 -4 0 -3 3 -3 3 1 1 4 5 6 7
4 1 -1 2 -3 2 -4 0 -2 0 -2 -4 -2 -4 0 -5 -1 -3 -5 0 -1 1 -2 2 -2 3 0 2 0 -1
-6 -2 -4 -3 -5 -4 -3 -1 1 -2 1 -3 1 -2 0 -7 5 -8 8 -1 1 -2 2 -2 2 -2 0 -6 5
-6 7 0 1 1 2 2 3 1 2 2 2 3 0 0 0 1 -1 1 -1 0 -3 0 -3 2 -3 0 0 1 1 1 1 0 1 0
3 1 3 0 1 0 2 -1 2 -1 0 -2 0 -2 1 0 2 -3 1 -5 -1z m16 -27 c0 -1 0 -1 -1 -1
-1 -1 -1 -1 -1 0 0 1 0 1 1 1 1 0 1 0 1 0z m6 -6 c1 -1 3 -3 3 -3 0 -1 -5 -2
-14 -3 -7 0 -7 0 -6 1 2 3 8 7 11 7 1 0 4 -1 6 -2z M111 126 c1 0 1 0 2 0 0 1
-1 1 -2 1 -1 0 -1 0 0 -1z M225 95 c-1 0 0 -1 1 0 2 0 4 -2 4 -5 l1 -2 0 2 c0
4 -5 8 -6 5z M108 88 c0 -2 0 -2 6 -5 5 -3 11 -4 14 -2 1 1 1 1 -1 1 -2 1 -4
1 -5 2 -1 0 -1 -1 1 -1 2 -2 2 -2 -2 -2 -4 1 -12 6 -11 7 0 1 1 1 2 0 2 -2 7
-4 8 -4 0 0 -2 1 -5 3 -6 3 -6 4 -7 1z M26 85 c-1 -1 -3 -4 -4 -7 -3 -6 -3 -6
-3 -17 1 -12 1 -11 10 -24 l6 -10 -6 -5 c-6 -6 -14 -22 -11 -22 0 0 1 2 2 5 2
7 7 13 7 8 0 -1 1 -4 2 -7 1 -4 2 -6 4 -6 2 0 3 1 4 2 1 4 0 5 -2 2 -3 -3 -4
-2 -4 4 0 3 0 7 0 9 -1 3 0 7 2 7 1 0 5 -2 8 -4 4 -2 7 -4 8 -4 1 0 1 0 1 -1
0 -1 1 -1 1 -1 1 0 3 -1 5 -2 3 -3 6 -4 6 -2 1 1 2 0 4 -2 1 -2 3 -3 4 -2 1 0
3 -1 4 -2 1 -1 2 -2 2 -2 1 0 1 0 1 -1 0 0 3 -1 7 -1 l7 0 -4 2 c-2 1 -5 2 -7
3 -6 1 -12 5 -10 6 1 1 9 0 15 -3 2 -1 6 -2 8 -3 l3 0 -1 3 c-2 3 -3 4 -3 1 1
-3 0 -3 -8 1 -4 2 -8 3 -9 3 -3 0 -18 6 -19 7 0 1 -1 1 -2 1 -1 0 -3 1 -4 2
-2 2 -3 3 -4 3 0 0 -1 1 -2 2 0 1 -2 2 -4 2 -4 0 -5 1 -3 2 2 1 1 2 -3 2 -1 0
-3 1 -3 2 0 0 1 1 1 1 3 0 2 1 -1 5 -1 1 -2 3 -2 3 0 0 0 0 -1 0 0 0 0 -1 0
-1 0 -1 0 -1 -1 -1 -1 0 -1 1 -1 1 0 3 0 4 -1 4 -1 0 -1 0 -1 2 0 2 -1 5 -2 8
-2 4 -2 6 -2 11 1 7 6 15 9 14 2 0 3 1 2 2 -1 1 -3 1 -5 0z m4 -44 c0 -1 0 -1
-1 -1 -1 0 -1 0 -1 1 0 1 0 1 1 1 1 0 1 0 1 -1z m13 -14 c0 -1 0 -1 -1 -1 0 0
-1 0 -1 1 -1 1 -1 1 0 1 0 0 1 0 2 -1z m8 -9 c1 -1 1 -1 -1 0 -2 1 -3 2 -1 2
0 0 1 -1 2 -2z M226 84 l-1 -2 2 1 c2 2 2 3 2 3 -1 0 -2 -1 -3 -2z M221 80
c-2 -1 -2 -1 -1 -1 1 0 2 1 3 2 1 1 1 1 -2 -1z M35 72 c0 -2 0 -3 1 -3 1 1 2
-2 3 -5 1 -1 1 -2 2 -2 0 1 -1 4 -3 7 -3 6 -3 6 -3 3z M41 59 c0 -1 1 -2 2 -4
2 -2 2 -3 1 -3 -1 -1 -1 -1 0 -2 0 0 1 -1 1 -2 0 -1 0 -2 1 -2 1 0 0 5 -1 8
-1 1 -2 3 -3 5 0 1 -1 1 -1 0z M48 45 c-1 -1 -1 -2 0 -2 0 1 1 0 1 -1 1 -2 1
-2 1 0 0 3 -1 5 -2 3z M50 39 c0 -1 1 -1 2 -2 1 -1 2 -1 2 -1 0 1 -1 1 -2 2
-1 1 -2 1 -2 1z M214 24 c-17 -9 -36 -15 -54 -16 -6 0 -12 -1 -14 -1 -1 -1 -4
-1 -5 -1 -3 0 -5 -1 -5 -4 0 -1 0 -2 1 -2 1 0 1 0 1 1 0 1 3 1 16 3 3 0 7 1 8
1 1 1 6 2 11 3 20 5 30 8 39 13 4 2 8 4 8 4 2 -1 -8 -8 -14 -11 -6 -3 -13 -6
-27 -10 -5 -2 -9 -3 -8 -4 1 0 15 4 17 5 0 0 3 2 7 3 3 1 9 3 12 5 10 6 23 17
19 17 0 0 -6 -3 -12 -6z M63 27 c0 -1 1 -1 2 -2 1 -1 1 -1 0 0 -1 2 -2 2 -2 2z
M67 24 c0 -1 1 -1 2 -2 1 -1 1 -1 0 0 -1 2 -2 2 -2 2z M73 18 c0 0 2 0 2 0 1
1 0 1 -1 1 -1 0 -2 0 -1 -1z M131 13 c-1 -1 -2 -2 -1 -2 1 0 1 0 0 -1 -1 -1
-1 -2 1 -2 1 -1 2 0 1 1 0 1 0 3 1 3 1 0 1 1 1 2 0 0 -2 0 -3 -1z M6 6 c-4 -2
-7 -5 -6 -6 1 0 2 0 2 1 2 2 2 2 3 1 1 -1 2 -2 3 -2 1 0 1 0 0 2 -2 1 -2 1 -1
2 1 1 1 1 3 0 0 -1 1 -3 0 -3 0 -1 1 -1 2 -1 1 0 2 1 2 4 0 4 -3 5 -8 2z M126
7 c-1 0 -1 -1 -2 -1 -1 0 -6 -2 -7 -4 -1 -2 -1 -2 2 0 3 1 3 1 4 0 0 -1 1 -2
4 -2 4 0 5 0 3 3 -1 1 0 2 0 3 1 1 1 1 0 0 -1 0 -2 -1 -2 -2 0 -1 0 -2 -1 -1
-1 0 -1 1 0 2 1 1 1 2 1 2 0 1 -2 1 -2 0z"/>
</g>
<g transform="translate(0.000000,256.000000) scale(1.000000,-1.000000)"
fill="#1d1917" stroke="none">
<path d="M0 253 c0 -4 2 -5 4 -3 2 0 2 1 1 1 -1 0 6 3 8 3 2 0 1 2 -1 2 -3 0
-8 -2 -8 -3 0 -1 0 -1 -1 -1 -1 0 -1 0 -1 1 0 2 0 3 -1 3 -1 0 -1 -2 -1 -3z
M16 255 c0 -1 0 -1 1 -1 0 0 1 -1 1 -1 0 -1 0 -2 0 -3 1 -1 1 -2 0 -2 -1 0 -2
-1 -2 -2 0 -1 0 -2 1 -2 1 0 5 5 5 7 0 1 1 3 1 3 2 1 1 2 -3 2 -2 0 -4 0 -4
-1z M27 256 c0 -1 1 -2 3 -2 2 -2 3 -2 5 0 l3 2 -6 0 c-3 0 -5 0 -5 0z M40
255 c0 -1 3 -2 4 -1 1 1 2 1 2 0 1 0 2 0 3 1 1 1 0 1 -4 1 -3 0 -5 0 -5 -1z
M53 255 c-1 -1 0 -1 1 -1 1 0 2 0 2 -1 1 0 2 -1 3 0 1 0 1 0 0 2 -2 1 -6 1 -6
0z M202 255 c0 -1 0 -1 1 -1 0 0 0 0 0 1 0 1 0 1 -1 1 -1 0 -1 0 0 -1z M207
255 c2 -1 3 -1 3 0 1 1 1 1 -2 1 -2 0 -2 0 -1 -1z M216 255 c-1 -2 -1 -3 0 -3
2 0 3 1 2 3 0 1 -1 1 -2 0z M224 255 c0 -1 -1 -1 -2 -1 -1 0 -2 0 -1 -1 0 -1
1 -1 3 -1 2 0 3 0 3 2 0 1 -1 2 -2 2 0 0 -1 0 -1 -1z M230 255 c0 -1 1 -1 2
-1 2 1 3 0 5 -2 1 -2 3 -2 3 1 0 1 -1 1 -2 1 0 -1 -1 0 -2 1 0 1 -6 2 -6 0z
M242 254 c-1 -2 -1 -2 0 -2 2 0 5 -3 4 -5 0 -1 1 -1 3 -1 2 0 3 0 3 -1 0 -1 0
-1 -1 -1 -1 0 -1 -1 -1 -2 0 -2 -2 -3 -2 -1 0 2 -1 2 -2 1 -1 -1 -1 -1 0 -2 0
0 1 -1 0 -2 0 -2 0 -2 2 -1 1 0 2 1 1 1 0 1 1 1 1 2 1 0 2 1 2 2 0 2 0 2 2 2
3 -1 3 1 0 3 -1 0 -2 1 -1 1 1 0 2 4 0 4 -1 0 -3 -3 -2 -3 0 -1 0 -1 -1 -1 -3
0 -2 4 0 4 1 1 2 1 1 2 0 3 -3 2 -3 0 0 -1 -1 -2 -2 -2 -2 0 -2 0 -2 2 1 2 -1
3 -2 0z M254 255 c0 0 0 -1 1 -1 1 -1 1 0 1 0 0 1 0 2 -1 2 -1 0 -1 0 -1 -1z
M49 251 c0 -1 0 -1 1 -1 0 0 1 0 2 1 0 1 -1 1 -1 1 -1 0 -2 0 -2 -1z M27 250
c-1 0 -1 -1 -1 -2 0 -2 0 -2 -1 -1 -1 1 -2 1 -2 0 0 0 -1 -2 -2 -2 -1 -2 -1
-2 3 -2 1 0 2 -2 2 -3 0 -1 1 -2 1 -2 2 1 2 7 1 9 -1 1 -1 1 1 1 2 0 3 -1 3
-2 0 -1 1 -2 2 -2 1 0 1 1 0 3 -1 1 -1 1 1 1 2 0 3 1 3 1 0 1 -1 1 -3 1 -2 -1
-5 -1 -6 0 -1 0 -2 1 -2 0z M233 250 c0 -1 1 -1 1 -2 1 0 2 -1 2 -2 0 -1 0 -2
1 -2 1 0 1 1 1 2 0 1 0 2 -1 2 -1 0 -1 1 -1 2 0 1 -2 2 -3 0z M240 249 c0 -2
0 -3 1 -3 1 0 1 4 0 5 -1 0 -1 -1 -1 -2z M8 249 c-1 -1 0 -2 1 -3 1 -1 2 -2 1
-2 0 -1 0 -2 1 -3 1 -1 1 -1 2 1 3 4 2 8 -2 8 -2 0 -3 -1 -3 -1z M45 249 c-2
-2 0 -3 1 -2 2 2 2 3 0 3 0 0 -1 0 -1 -1z M214 249 c0 -1 3 -2 4 -2 0 0 -1 1
-2 2 -1 0 -2 1 -2 0z M221 247 c0 0 1 -1 2 0 1 0 1 1 -1 1 -1 1 -2 0 -1 -1z
M231 248 c-1 0 -1 -1 -1 -3 1 -1 1 -2 1 -2 0 -1 3 -1 3 0 0 1 0 1 -1 1 0 0 -1
1 -1 3 0 1 -1 2 -1 1z M39 246 c0 -1 1 -1 2 -1 0 0 1 0 1 1 -1 1 -2 1 -2 1 -1
0 -1 0 -1 -1z M225 246 c0 -1 1 -1 2 -1 0 0 1 0 1 0 0 1 -1 1 -1 1 -1 1 -2 1
-2 0z M0 243 c0 -2 0 -3 1 -3 0 0 1 1 1 3 0 2 0 3 -1 3 -1 0 -1 -1 -1 -3z M49
245 c0 -1 0 -1 1 -1 0 0 0 0 0 1 0 1 0 1 -1 1 -1 0 -1 0 0 -1z M5 242 c-2 -4
-1 -7 2 -4 1 1 1 1 1 0 0 -1 0 -2 1 -2 0 0 1 1 1 2 0 1 -1 2 -1 2 -1 0 -1 1
-1 2 0 3 -1 3 -3 0z M36 242 c-1 -1 -1 -1 -1 -2 1 -1 2 1 2 2 -1 1 -1 1 -1 0z
M237 242 c-1 -1 -1 -1 -1 -2 1 -1 2 1 2 2 -1 1 -1 1 -1 0z M240 241 c0 -1 0
-1 1 0 0 1 0 1 0 2 -1 0 -1 -1 -1 -2z M15 240 c-2 0 -2 -1 0 -4 1 -2 1 -2 1 0
0 1 1 2 2 2 1 0 2 -1 2 -1 0 -1 1 -1 2 -1 2 0 3 1 1 2 -2 2 -6 3 -8 2z M32
239 c0 -1 0 -2 1 -2 1 0 1 1 1 2 0 0 0 1 -1 1 -1 0 -1 -1 -1 -1z M242 239 c-1
-1 -1 -1 0 -1 1 0 1 0 1 1 0 1 0 1 0 1 -1 0 -1 0 -1 -1z M253 239 c1 -2 3 -2
3 -1 0 1 -1 2 -2 2 0 0 -1 -1 -1 -1z M0 237 c0 -2 1 -4 2 -2 1 0 1 1 0 2 -1 1
-1 1 -2 0z M238 236 c-1 -1 -1 -1 0 0 1 0 1 1 1 2 -1 0 -1 -1 -1 -2z M41 234
c-1 0 0 -1 1 0 2 0 3 1 1 1 -1 0 -2 0 -2 -1z M4 233 c0 -1 1 -1 3 -1 1 0 2 0
2 1 -1 1 -5 1 -5 0z M19 233 c-1 -1 -1 -1 0 -1 1 0 1 0 1 1 0 1 0 1 0 1 -1 0
-1 0 -1 -1z M248 233 c0 -1 0 -2 0 -2 1 0 2 0 2 -1 1 0 2 0 2 1 0 1 -1 1 -1 1
-1 0 -2 1 -2 1 -1 1 -1 1 -1 0z M255 233 c0 -1 0 -1 1 -1 0 0 0 0 0 1 0 1 0 1
-1 1 -1 0 -1 0 0 -1z M15 231 c-1 -1 -1 -1 0 -2 2 0 3 0 2 2 0 0 -1 1 -2 0z
M22 231 c1 -1 2 -1 3 -1 1 0 1 0 0 1 -1 1 -2 1 -3 1 -1 0 -1 0 0 -1z M9 230
c-2 -1 -1 -2 1 -2 1 0 2 0 2 1 0 1 -3 2 -3 1z M0 229 c0 0 1 -1 1 -2 2 -3 5
-2 5 1 0 2 -1 2 -3 2 -2 0 -3 0 -3 -1z M255 227 c0 -1 0 -1 1 -1 0 0 0 0 0 1
0 1 0 1 -1 1 -1 0 -1 0 0 -1z M12 225 c0 -1 0 -1 1 -1 1 0 1 0 1 1 0 1 0 1 -1
1 -1 0 -1 0 -1 -1z M1 221 c0 0 1 -1 2 -2 2 -2 4 -1 2 1 -1 2 -4 2 -4 1z M0
215 c0 -1 1 -1 1 -1 1 0 2 0 3 1 0 1 -1 1 -2 1 -1 0 -2 0 -2 -1z M57 190 c0
-1 0 -3 0 -5 0 -3 1 -4 3 -4 5 0 5 1 2 6 -3 4 -4 5 -5 3z M188 169 c-1 -1 0
-1 0 -1 1 0 2 0 2 1 0 1 0 1 -1 1 0 0 -1 0 -1 -1z M199 169 l-3 0 2 -3 c2 -2
2 -2 5 -1 1 1 3 2 3 3 0 1 -4 2 -7 1z M188 165 c0 -1 -4 -6 -7 -7 -1 -1 -4 -1
-6 -1 -2 1 -4 1 -5 0 -1 -1 -2 0 -2 1 -2 1 -8 3 -12 3 -3 0 -3 -1 -3 -4 0 -4
5 -10 15 -17 7 -5 8 -5 14 -6 7 0 10 1 8 4 -1 1 -1 2 0 3 0 1 0 3 -1 4 0 1 0
3 0 4 2 4 3 9 3 11 l0 2 1 -2 c2 -2 2 -2 3 -1 2 3 2 2 -1 4 -2 2 -2 2 -3 1 -1
-1 -1 -1 -1 0 0 0 -1 1 -1 1 -1 1 -2 1 -2 0z m-10 -18 c0 -2 -1 -3 -4 -4 -2 0
-4 -1 -4 0 -1 0 6 7 7 7 1 0 1 -1 1 -3z m7 -5 c-1 -1 -2 -1 -3 -1 -1 0 -1 0 0
2 2 1 4 1 3 -1z M91 160 c-4 0 -9 -2 -10 -2 -2 -1 -4 -2 -5 -2 -2 0 -2 -2 0
-3 2 -1 6 -4 6 -6 0 -1 1 -4 2 -7 11 -21 38 -18 44 5 3 9 4 9 -9 8 -12 0 -16
1 -18 5 -2 4 -2 4 -10 2z M142 124 c-1 -1 -2 -2 -2 -3 0 -2 4 -7 6 -7 0 0 1
-1 2 -2 1 -3 6 -8 8 -8 1 0 2 0 3 -1 1 -2 2 -1 4 3 3 6 4 6 1 6 -1 0 -2 1 -2
2 -2 4 -1 5 3 5 4 0 4 0 4 2 0 1 -1 3 -2 4 -2 2 -6 0 -7 -4 0 -3 -3 -4 -3 -1
0 2 -2 4 -5 4 -2 0 -3 0 -3 -2 0 -3 -3 -3 -3 1 0 0 -1 1 -1 2 -2 1 -2 1 -3 -1z
M152 93 c-2 -2 -4 -4 -5 -5 -1 -1 -1 -1 6 -1 9 1 14 2 14 3 0 1 -7 5 -9 5 -1
0 -4 -1 -6 -2z M223 91 c-2 -4 -3 -11 -2 -11 0 0 3 2 5 4 4 3 5 7 3 10 -2 2
-4 1 -6 -3z M110 88 c-1 -1 7 -6 11 -7 2 0 4 0 4 0 0 1 -3 2 -6 3 -3 1 -6 3
-7 4 -1 1 -2 1 -2 0z M24 80 c-4 -8 -5 -15 -2 -22 1 -3 2 -6 2 -8 0 -2 0 -2 1
-2 1 0 1 -1 1 -4 0 0 0 -1 1 -1 1 0 1 0 1 1 0 0 0 1 0 1 1 0 1 0 1 0 0 0 1 -2
2 -3 3 -4 4 -5 1 -5 0 0 -1 -1 -1 -1 0 -1 2 -2 3 -2 4 0 5 -1 3 -2 -2 -1 -1
-2 3 -2 2 0 4 -1 4 -2 1 -1 2 -2 2 -2 1 0 2 -1 4 -3 1 -1 3 -2 4 -2 1 0 2 0 2
-1 1 -1 16 -7 19 -7 1 0 5 -1 9 -3 4 -2 8 -3 9 -3 0 1 -2 6 -3 6 -1 0 -3 1 -6
2 -2 1 -5 2 -8 3 -2 0 -4 1 -4 1 0 0 -2 2 -5 4 -7 5 -18 17 -18 19 0 1 0 2 -1
2 -1 -1 -1 0 -1 0 0 1 0 2 -1 2 -1 0 -1 1 -1 2 0 1 -1 2 -1 2 -1 1 -1 1 0 2 1
0 1 1 -1 3 -1 2 -2 4 -2 4 0 1 0 3 -1 4 0 1 -1 3 -2 4 -1 2 -2 3 -2 2 -1 0 -1
1 -1 3 0 1 -1 5 -2 7 -3 6 -5 6 -9 1z M28 41 c0 -1 0 -1 1 -1 1 0 1 0 1 1 0 1
0 1 -1 1 -1 0 -1 0 -1 -1z M41 27 c0 -1 1 -1 1 -1 1 0 1 0 1 1 -1 1 -2 1 -2 1
-1 0 -1 0 0 -1z M212 21 c-9 -5 -19 -8 -39 -13 -5 -1 -10 -2 -11 -3 -1 0 -5
-1 -8 -1 -13 -2 -16 -2 -16 -3 0 -1 7 -1 15 -1 14 0 15 0 25 3 24 8 29 11 38
17 3 2 5 4 5 5 0 1 -3 -1 -9 -4z M31 22 c-1 -1 -1 -3 0 -5 0 -2 0 -6 0 -9 0
-6 1 -7 4 -4 2 2 4 1 2 -1 -1 -1 -1 -2 -1 -2 0 -1 9 -1 21 -1 13 0 20 1 20 2
0 0 0 1 -1 1 0 0 -1 0 -2 1 -1 1 -3 2 -4 2 -1 -1 -3 0 -4 2 -2 2 -3 3 -4 2 0
-2 -3 -1 -6 2 -2 1 -4 2 -5 2 0 0 -1 0 -1 1 0 1 0 1 -1 1 -1 0 -4 2 -8 4 -7 5
-8 5 -10 2z M48 20 c0 -1 1 -1 2 -2 2 -1 2 -1 1 0 -1 2 -3 3 -3 2z M23 12 c-2
-2 -4 -9 -4 -11 0 -1 3 -1 6 -1 l6 0 -2 5 c0 2 -1 6 -2 7 0 2 -1 3 -1 3 0 0
-2 -1 -3 -3z M6 4 c0 -1 3 -4 4 -3 1 0 -1 4 -2 4 0 0 -1 0 -2 -1z M3 2 c-1 -2
0 -2 1 -2 2 0 2 0 1 2 -1 0 -1 1 -2 1 0 0 0 -1 0 -1z M119 1 c-1 -1 -1 -1 1
-1 2 0 3 0 3 1 0 2 -2 2 -4 0z M84 0 c1 0 1 0 2 0 0 1 -1 1 -2 1 -1 0 -1 0 0
-1z"/>
</g>
<g transform="translate(0.000000,256.000000) scale(1.000000,-1.000000)"
fill="#9f8d66" stroke="none">
<path d="M177 247 c-1 -1 -1 -1 1 -1 2 0 3 0 5 -5 2 -3 4 -7 5 -10 l1 -4 -1 4
c0 4 -3 11 -6 14 -2 3 -3 3 -5 2z M173 244 c-1 -1 -1 -1 0 0 1 1 2 1 2 2 0 0
-1 0 -2 -2z M38 228 c-1 0 -1 -1 0 -1 0 -1 1 0 2 1 1 1 0 1 -2 0z M52 226 c0
0 3 -3 6 -6 4 -3 5 -4 2 -1 -2 2 -5 5 -6 6 -2 1 -3 2 -2 1z M189 224 c0 -1 0
-1 1 0 0 1 0 1 0 2 -1 0 -1 -1 -1 -2z M178 221 c-1 -2 -2 -3 -2 -3 -1 0 -4 -6
-4 -7 1 0 1 1 1 2 1 1 2 2 3 3 2 1 2 1 2 -2 0 -2 0 -5 -1 -7 -1 -3 -1 -5 0 -5
1 -1 1 -1 1 0 0 0 0 1 0 2 3 10 3 18 2 18 -1 1 -1 0 -2 -1z M190 220 c0 -2 0
-3 1 -2 0 1 0 3 0 3 -1 1 -1 0 -1 -1z M37 219 c0 -1 0 -1 1 0 0 1 0 1 0 2 -1
0 -1 -1 -1 -2z M35 210 c-2 -7 -1 -18 2 -22 1 -2 3 -5 4 -6 3 -2 3 -3 2 -5 -1
-1 -1 -2 -1 -3 0 -1 1 0 1 1 1 1 2 2 3 3 3 0 2 2 -1 3 -7 2 -11 14 -9 27 1 10
1 12 -1 2z M44 216 c0 0 0 -1 0 -2 -3 -8 -3 -11 2 -22 2 -5 4 -9 4 -10 0 -2 1
-3 2 -4 0 -1 1 -2 1 -3 0 -1 0 -2 1 -2 1 0 1 1 0 2 0 1 -2 5 -4 10 -1 5 -4 10
-4 12 -2 5 -2 8 0 10 1 1 2 0 8 -6 11 -10 11 -11 13 -9 0 1 1 2 1 3 0 1 0 1
-1 0 -2 -2 -3 -1 -9 4 -3 3 -5 5 -5 7 0 3 -2 6 -4 9 -2 2 -5 3 -5 1z M126 216
c-3 0 -2 -1 5 -1 5 0 9 1 9 1 -2 1 -8 1 -14 0z M191 210 c0 -4 1 -6 1 -4 0 2
0 5 0 7 0 2 -1 0 -1 -3z M101 214 c-4 0 -1 0 7 0 7 0 13 0 13 1 1 0 -14 0 -20
-1z M87 212 c-3 -1 0 -1 3 0 2 1 2 1 1 1 -2 0 -3 -1 -4 -1z M81 210 c-1 -1 -1
-1 0 -1 0 0 1 0 2 1 1 1 1 1 1 1 -1 0 -2 0 -3 -1z M171 208 c-1 -1 -1 -1 0 0
1 0 1 1 1 2 -1 0 -1 -1 -1 -2z M191 199 c0 -1 0 -2 1 -1 0 0 0 2 0 2 -1 1 -1
0 -1 -1z M192 194 c0 -2 0 -3 1 -2 0 1 0 3 0 3 -1 1 -1 0 -1 -1z M193 187 c0
-2 1 -3 6 -7 3 -3 5 -6 5 -6 0 -1 -3 -1 -11 -1 -11 1 -12 1 -13 -3 -1 -2 -1
-2 1 0 l3 3 12 -1 c13 0 13 0 4 8 -4 3 -6 6 -6 8 -1 2 -1 2 -1 -1z M43 171 c0
-1 4 -4 4 -4 0 0 0 1 -2 3 -1 1 -2 2 -2 1z M51 170 c-1 -2 -1 -2 1 -1 2 2 2 3
1 3 0 0 -1 -1 -2 -2z M156 170 c-1 -1 -3 -3 -4 -4 l-2 -2 2 1 c2 1 4 3 5 4 3
1 6 1 8 -2 0 -1 1 -1 1 -1 2 1 -2 4 -5 4 -3 1 -4 1 -5 0z M96 166 c-2 -2 -2
-2 -1 -2 1 1 4 1 6 1 3 0 4 0 2 1 -1 0 -3 1 -3 1 -1 0 -3 0 -4 -1z M170 165
c1 0 3 0 4 0 1 1 0 1 -2 1 -2 0 -3 0 -2 -1z M90 164 c-2 -1 -2 -1 -1 -1 1 0 2
0 3 1 2 1 0 1 -2 0z M109 163 c2 -1 3 -2 4 -2 0 0 0 1 -1 1 -1 1 -2 2 -1 2 0
1 -1 1 -3 1 l-2 0 3 -2z M120 164 c0 0 -1 -1 -1 -2 0 -1 0 -1 2 0 1 1 2 2 3 2
1 -1 2 -1 4 -2 2 0 2 0 0 1 -4 2 -6 2 -8 1z M145 163 c0 0 -1 -1 -1 -2 0 0 -1
-1 -2 -1 -2 0 -2 0 -1 -1 1 -1 2 0 4 1 1 2 2 3 3 3 1 1 1 1 0 1 -1 0 -2 0 -3
-1z M79 162 c-1 -1 -3 -1 -4 -1 -2 0 -3 0 -4 -1 -1 -2 6 -1 12 1 3 2 3 2 1 2
-1 0 -4 -1 -5 -1z M140 162 c0 -1 0 -1 1 -1 0 0 0 0 0 1 0 1 0 1 -1 1 -1 0 -1
0 0 -1z M54 161 c-1 -1 -1 -1 0 -1 1 0 1 0 1 1 0 1 0 1 0 1 -1 0 -1 0 -1 -1z
M116 160 c1 0 1 0 2 0 0 1 -1 1 -2 1 -1 0 -1 0 0 -1z M204 155 c0 -3 0 -3 1
-1 0 3 0 3 2 2 6 -1 14 -11 17 -20 1 -3 1 -3 1 -1 0 3 -5 13 -9 17 -8 7 -12 8
-12 3z M52 153 c-1 -1 -1 -1 0 0 2 1 2 2 1 2 0 0 -1 -1 -1 -2z M134 153 c0 -1
0 -1 1 0 0 1 0 1 0 2 -1 0 -1 -1 -1 -2z M203 149 c0 -1 0 -1 1 0 0 1 0 1 0 2
-1 0 -1 -1 -1 -2z M152 149 c0 0 2 -2 3 -3 3 -2 3 -2 2 0 -2 1 -3 3 -4 3 -2 1
-2 1 -1 0z M201 143 c-1 -2 -2 -4 -3 -5 -1 -1 -2 -2 -2 -2 0 -1 4 4 6 7 1 1 1
2 1 3 -1 0 -1 -1 -2 -3z M161 141 c0 0 8 -7 8 -6 0 0 -2 2 -4 4 -2 2 -4 3 -4
2z M174 130 c5 -6 5 -6 10 -5 3 0 4 1 5 3 1 1 2 3 4 5 1 1 0 1 -3 -2 -3 -2 -6
-4 -6 -4 -1 -3 -5 -1 -10 4 l-4 5 4 -6z M157 133 c2 0 3 -1 3 -2 -1 -2 2 -3 4
-1 2 1 3 1 4 0 1 -1 2 -1 2 0 -2 2 -8 4 -12 4 -3 0 -3 0 -1 -1z M64 132 c-1 0
-4 -1 -5 -3 -2 -2 -3 -4 -3 -8 0 -2 0 -2 -2 0 0 1 -2 2 -3 2 -1 0 -1 0 1 1 1
1 2 1 2 2 0 0 0 0 -1 0 0 -1 -1 0 -2 1 -1 2 -1 2 -3 0 -1 -1 -3 -4 -5 -7 -5
-7 -4 -11 2 -18 3 -3 6 -6 6 -6 1 0 1 -1 1 -1 0 -1 1 -3 2 -4 3 -2 3 -2 7 -1
2 1 3 2 2 2 -2 0 -2 0 -1 2 1 2 1 3 0 4 -2 1 -1 2 1 2 2 0 4 -2 2 -3 0 0 -1
-1 -1 -2 0 -2 0 -2 2 -1 0 1 1 2 2 2 0 -1 0 -1 -1 -2 -2 0 0 -4 3 -4 3 0 3 2
0 2 -2 1 -1 1 1 1 4 0 5 -1 5 -5 0 -3 1 -2 6 0 3 2 4 3 4 5 0 1 1 4 1 6 1 2 2
4 3 6 1 3 1 4 -3 5 -5 2 -10 7 -11 12 -1 8 -5 11 -12 10z m8 -7 c0 -1 1 -4 2
-7 0 -8 1 -9 2 -7 1 1 1 1 0 -1 0 -1 0 -2 1 -2 0 0 1 -1 2 -2 0 -2 0 -2 1 -1
1 1 1 1 2 -1 0 -4 -2 -7 -5 -5 -1 0 -1 0 0 1 1 0 2 4 0 4 0 0 -1 -1 -2 -1 0
-1 -1 -1 -2 -1 0 1 0 1 1 2 1 1 0 5 -2 5 -1 1 -1 1 -1 -1 1 -1 1 -1 -1 0 -3 1
-5 2 -5 4 0 1 -1 2 -1 4 -1 1 -2 3 -2 5 0 2 1 3 3 4 5 2 6 2 7 0z m-10 -23 c0
-1 0 -1 -1 -1 0 1 -1 0 -1 0 -1 -1 -1 0 -1 1 0 2 2 2 3 0z M148 132 c1 0 1 0
2 0 0 1 -1 1 -2 1 -1 0 -1 0 0 -1z M130 131 c-2 -4 -4 -9 -4 -13 0 -4 -1 -10
-1 -14 0 -2 1 -3 3 -4 3 -2 4 -3 3 -3 -2 -2 -1 -3 1 -3 1 0 2 1 2 2 0 1 0 2 1
2 1 1 1 0 1 -1 0 -1 1 -2 2 -2 0 0 1 0 1 1 -1 0 -1 1 0 2 1 0 1 1 1 1 -1 0 0
1 1 1 1 1 2 8 0 8 -1 0 -1 1 -1 2 0 1 -1 4 -1 5 -2 3 -2 8 0 11 1 2 1 2 -1 0
-2 -2 -3 -4 -3 -7 0 -4 -3 -4 -5 1 -1 4 -1 4 0 8 2 3 2 5 0 3z m8 -20 c-1 -2
-7 -2 -7 0 0 1 3 4 3 3 0 0 1 0 1 1 1 1 2 1 2 -1 1 -1 1 -3 1 -3z M225 131 c3
-9 1 -28 -2 -32 -1 -1 -3 -3 -4 -5 0 -2 -2 -4 -2 -5 -1 -1 -1 -3 -1 -3 0 -1 2
2 4 6 2 4 4 7 5 8 1 0 2 1 2 1 -1 1 0 5 0 8 2 7 1 19 -1 22 -1 1 -1 1 -1 0z
M171 127 c0 -1 0 -2 1 -2 0 1 0 2 -1 2 -1 1 -1 1 0 0z M54 123 c0 -1 0 -1 1 0
1 0 1 0 1 1 0 0 0 0 -1 0 -1 0 -1 0 -1 -1z M108 121 c-4 -2 -7 -5 -7 -8 0 -3
2 -3 6 -2 3 1 4 3 6 6 3 7 1 7 -5 4z M172 121 c0 -1 0 -2 1 -1 0 0 0 2 0 2 -1
1 -1 0 -1 -1z M170 111 c-1 -1 -1 -1 0 0 1 0 1 1 1 2 -1 0 -1 -1 -1 -2z M168
108 c0 -3 5 -16 7 -18 1 -2 1 -2 -1 -4 -1 -1 -3 -2 -4 -2 -3 0 -4 -1 -7 -6 -2
-3 -5 -6 -7 -8 -4 -3 -12 -13 -15 -19 -4 -7 -5 -8 -6 -9 -2 -1 -9 -14 -9 -16
0 0 1 0 2 -1 4 -1 12 1 15 3 1 1 2 2 3 2 2 0 14 7 20 10 2 2 10 7 18 11 7 3
13 7 14 8 2 1 5 2 5 0 -1 -1 2 -2 3 -1 1 0 1 1 -1 2 -1 1 -1 1 1 3 1 1 3 2 4
2 1 0 2 1 3 2 1 1 1 1 3 0 3 -1 9 -1 12 0 1 1 2 1 2 0 0 -3 -5 -8 -10 -12 -3
-2 -6 -5 -7 -6 0 -1 -1 -2 -1 -2 -1 0 -2 -1 -2 -3 -2 -3 -2 -3 -5 -2 -5 1 -5
1 -5 -1 0 -1 1 -2 3 -2 5 0 12 0 12 1 0 0 1 1 2 1 1 0 9 2 12 3 2 1 3 1 5 0 3
-2 5 1 6 7 0 2 0 3 -1 2 -1 -7 0 -7 -8 -7 -3 1 -6 0 -7 0 0 -1 -1 -1 -2 -1 -2
0 -2 0 -2 3 1 2 2 5 4 7 6 7 6 8 8 12 0 2 1 3 2 3 0 0 2 -2 3 -6 1 -3 2 -4 1
-2 0 1 -1 4 -2 7 -1 2 -2 5 -2 6 1 2 1 4 1 5 1 2 1 1 0 -1 -1 -2 -2 -4 -2 -5
0 -3 -3 -3 -6 0 -3 3 -3 4 0 7 1 1 3 3 4 5 2 2 1 1 -2 -2 -6 -6 -13 -11 -13
-8 0 0 -2 -1 -5 -4 -6 -6 -23 -17 -34 -23 -4 -2 -8 -4 -10 -6 -1 -1 -3 -2 -4
-2 -2 0 -4 -1 -5 -3 -1 -1 -3 -2 -4 -2 -1 0 -3 -1 -3 -2 -2 -1 -3 -1 -5 -1 -3
1 -4 1 -4 -1 0 -2 -3 -3 -4 -2 0 1 0 2 1 2 1 1 1 2 1 4 -1 2 -1 4 0 4 0 0 1 2
1 4 1 2 1 4 2 4 0 0 1 2 2 4 3 6 7 11 14 19 4 4 7 8 7 9 1 1 3 2 5 3 5 3 7 5
4 8 -1 1 -3 6 -4 10 -2 5 -3 8 -3 7z m51 -38 c-1 -1 -2 -2 -3 -2 0 0 0 1 1 2
1 0 2 1 2 1 1 0 0 -1 0 -1z M229 98 c0 -1 4 -5 4 -4 0 1 1 1 2 0 0 -2 1 -2 1
-1 0 1 -5 6 -6 6 -1 0 -1 0 -1 -1z M236 87 c0 -2 0 -3 1 -2 0 1 0 3 0 4 -1 1
-1 0 -1 -2z M64 87 c0 -1 0 -2 1 -2 1 0 1 1 1 2 0 0 0 1 -1 1 -1 0 -1 -1 -1
-1z M215 83 c0 -1 0 -3 0 -3 0 -1 1 0 1 1 1 3 0 4 -1 2z M76 61 c1 -1 2 -2 2
-2 0 0 0 1 -1 2 -1 1 -2 2 -2 2 -1 0 0 -1 1 -2z M80 54 c0 -1 0 -1 1 -1 0 1 1
0 1 0 1 -1 1 -1 1 0 0 2 -2 3 -3 1z M234 33 c-1 -3 -3 -6 -4 -7 -1 -1 -1 -3
-1 -4 1 -1 1 -3 0 -4 l-1 -2 0 2 c0 1 0 2 -1 2 -1 -1 -2 -2 -1 -5 0 -1 1 -1 2
-1 1 0 2 -1 2 -5 1 -6 3 -10 5 -9 1 1 1 2 1 3 0 0 1 1 2 1 2 0 3 2 1 2 -1 1
-2 7 -1 10 1 2 3 3 5 2 1 -1 1 -1 0 -3 -2 -1 -2 -2 -1 -2 1 -1 1 -2 1 -5 -1
-2 -1 -4 -1 -6 0 -2 1 -2 4 -2 4 0 5 0 5 3 1 2 2 3 3 3 2 0 2 1 2 6 0 5 0 7
-1 7 -2 1 -4 0 -4 -3 -1 -3 -2 -3 -5 3 l-3 6 3 -1 c5 0 4 2 -2 6 -5 4 -6 4 -6
1 1 -1 0 -2 -1 -3 0 0 -1 -1 -1 -2 0 0 0 -1 -1 -1 -1 0 -1 1 0 5 1 2 2 3 2 3
1 0 1 1 1 2 0 1 0 2 1 2 0 0 6 -4 8 -6 0 0 2 -2 4 -3 2 -1 1 0 -2 3 -5 4 -9 7
-11 7 0 0 -2 -2 -4 -5z M171 15 c0 -1 1 -1 2 -1 0 0 1 0 1 1 0 1 -1 1 -1 1 -1
0 -2 0 -2 -1z M164 14 c1 0 1 0 2 0 0 1 -1 1 -2 1 -1 0 -1 0 0 -1z M254 4 c0
-1 -1 -2 -1 -1 -1 0 -1 -1 -1 -1 0 -1 1 -2 2 -2 1 0 2 1 2 3 0 2 -1 3 -2 1z
M217 2 c0 -1 0 -2 1 -2 1 0 1 0 1 1 0 0 0 1 -1 2 -1 0 -1 -1 -1 -1z"/>
</g>
<g transform="translate(0.000000,256.000000) scale(1.000000,-1.000000)"
fill="#e3d0aa" stroke="none">
<path d="M177 237 c-2 0 -2 -1 -2 -1 1 0 0 -1 -1 -2 -1 -1 -3 -3 -4 -5 -1 -2
-2 -4 -2 -4 -1 0 -1 0 0 -1 0 -1 0 -1 -1 -1 -1 0 -3 -4 -3 -7 0 -1 1 -2 1 -4
3 -2 5 0 4 4 0 3 0 4 1 5 1 1 2 2 2 2 0 1 1 3 3 4 1 1 2 3 2 3 0 3 2 4 3 3 1
0 2 -1 2 -2 0 0 1 -1 2 -1 2 0 2 0 1 1 -1 1 -1 2 -1 3 0 1 -4 5 -5 5 0 0 -1
-1 -2 -2z M185 219 c0 -14 0 -16 -1 -16 -1 0 -1 -1 -1 -2 0 -3 0 -3 3 -2 1 0
3 0 3 1 0 0 1 4 1 9 0 9 -2 19 -4 19 0 0 -1 -4 -1 -9z M38 204 c-1 -3 1 -14 3
-16 2 -3 5 -5 6 -5 0 1 -4 10 -6 12 0 1 -1 2 -1 4 0 1 -1 3 -1 5 -1 1 -1 1 -1
0z M188 193 c-1 -1 -1 -2 0 -3 2 -2 3 -1 3 2 0 2 -1 3 -3 1z M153 185 c-2 -2
-6 -9 -7 -12 0 -3 0 -4 2 -5 2 -1 4 0 7 3 2 1 3 2 10 1 8 0 12 1 10 3 0 1 1 1
2 1 2 0 3 0 3 1 0 1 -1 1 -2 0 -2 0 -3 0 -4 1 -1 1 -2 2 -3 1 -1 0 -1 0 0 1 1
1 -1 4 -3 3 -1 0 -3 0 -4 1 -1 1 -9 2 -11 1z M102 179 c-3 -1 -3 -4 -1 -7 1
-1 2 -2 2 -3 1 -2 2 -2 7 -2 4 0 8 0 10 -1 5 0 6 2 3 6 -3 4 -7 7 -11 7 -1 1
-3 1 -4 1 -2 1 -4 0 -6 -1z M185 178 c1 -1 1 -1 -1 -1 -1 -1 -1 -1 1 -1 3 0 3
0 2 2 -1 0 -2 1 -2 1 -1 0 -1 0 0 -1z M204 147 c-2 -6 -3 -8 -7 -12 -4 -4 -5
-6 -5 -8 0 -5 -2 -6 -8 -5 -5 0 -6 1 -8 3 -3 5 -10 11 -14 12 -6 2 -15 0 -21
-3 -2 -2 -4 -4 -4 -4 0 -1 0 -1 6 2 3 1 8 3 12 3 l8 1 4 -3 c6 -5 8 -10 6 -15
0 -2 -1 -5 -2 -6 0 -3 0 -4 1 -6 0 -2 1 -5 2 -8 2 -6 2 -7 6 -4 4 3 6 4 7 1 1
-3 -1 -6 -6 -8 -3 -1 -8 -4 -11 -7 -12 -13 -13 -14 -15 -20 -3 -10 -3 -11 3
-10 3 0 6 0 7 1 1 1 3 2 5 3 2 0 5 1 5 2 4 4 17 13 17 12 0 0 1 1 2 3 1 2 3 5
5 6 2 1 5 5 10 12 2 5 5 9 7 11 5 5 9 21 7 28 0 1 -2 5 -3 9 -2 5 -3 8 -7 12
-3 3 -6 6 -6 6 0 0 -2 -3 -3 -8z m-12 -49 c0 -1 -1 -2 -2 -2 -1 0 -2 0 -2 2 0
2 1 2 2 2 1 0 2 -1 2 -2z M153 46 c0 -1 0 -2 2 -1 0 0 1 1 1 1 0 1 0 1 -1 1 0
-1 -1 0 -1 0 -1 1 -1 1 -1 -1z"/>
</g>
<g transform="translate(0.000000,256.000000) scale(1.000000,-1.000000)"
fill="#d2a05c" stroke="none">
<path d="M176 246 c-2 -1 -2 -1 -1 -2 1 -1 1 -1 -2 -4 -5 -6 -13 -21 -13 -26
0 -2 1 -4 3 -6 2 -2 3 -4 3 -4 0 -1 -9 -1 -10 1 -1 1 -4 1 -4 0 0 -1 -1 -1 -2
-1 0 1 -1 1 -1 0 1 0 1 -1 0 -1 -1 -1 -1 -1 -1 0 0 0 -1 1 -2 0 -1 0 -2 -1 -1
-1 0 -1 -1 -1 -2 -1 -2 0 -2 0 -1 -3 0 -2 1 -4 2 -5 1 -1 1 -1 0 -2 -2 -2 -2
-3 0 -5 1 -1 2 -5 0 -4 0 1 -1 1 -1 0 -1 -1 0 -14 1 -16 1 -2 1 -2 -1 -2 -2 0
-3 0 -2 -2 0 -1 1 -2 2 -2 0 0 1 1 1 2 1 1 2 2 3 2 4 0 4 1 2 2 -4 2 -3 9 1
14 1 3 3 5 3 5 0 1 10 1 11 -1 1 -1 3 -1 4 -1 2 1 4 -2 3 -3 -1 -1 -1 -1 0 -1
1 1 3 0 4 0 1 -1 3 -2 4 -1 1 0 2 0 3 -1 0 0 1 0 3 0 1 1 1 1 0 1 -1 0 -1 0 0
2 2 2 4 1 3 -1 0 -2 3 -6 6 -6 1 0 1 0 0 1 -4 1 -1 2 4 2 l5 0 -5 4 c-4 4 -5
5 -5 8 0 2 0 3 -1 2 0 -2 -1 -2 -3 0 -2 2 -2 2 0 4 2 2 0 4 -4 4 l-3 0 0 6 c0
4 0 8 0 9 1 2 1 5 1 7 -1 4 -2 5 -3 5 -1 0 -2 -1 -2 -1 0 -1 -1 -2 -1 -3 -1 0
-3 -3 -4 -6 -2 -3 -3 -5 -4 -5 -1 -1 -6 5 -6 7 0 2 0 3 1 3 0 0 1 1 2 3 1 4 8
16 11 16 2 1 8 -2 9 -4 0 -2 1 -2 1 -1 0 1 -6 12 -7 13 -1 0 -3 -1 -4 -1z m5
-30 c-1 -5 -2 -7 -3 -12 0 -1 0 -3 0 -4 0 -2 -3 -2 -7 0 -4 2 -5 5 -3 5 1 0 2
3 4 7 2 3 3 6 4 6 0 0 1 1 2 3 2 4 3 1 3 -5z M40 228 c-1 -1 0 -1 2 -1 5 -1 7
-3 3 -3 -5 0 -7 -2 -8 -8 -1 -4 -1 -7 -1 -8 1 -1 1 -1 1 1 0 4 3 10 5 9 1 0 2
1 4 1 2 1 2 1 2 -1 0 -2 4 -8 5 -9 0 0 0 -1 0 -3 0 -2 0 -3 2 -4 1 -1 2 -2 2
-1 0 0 -1 1 -2 1 -1 1 -1 6 1 5 2 0 1 3 -3 5 -4 3 -5 7 -2 6 1 0 3 -1 3 -2 1
-1 2 -2 2 -1 1 0 3 -2 6 -5 4 -5 4 -6 1 -12 -1 -4 -1 -4 1 -4 1 0 5 3 6 6 1 0
0 3 -1 5 -1 3 -2 5 -1 6 1 1 1 1 -1 1 -1 0 -2 0 -2 1 0 1 -9 10 -13 12 -5 3
-10 4 -12 3z M42 215 c0 -1 0 -1 1 -1 0 0 1 0 2 1 0 1 -1 1 -1 1 -1 0 -2 0 -2
-1z M130 215 c-1 0 -3 0 -5 0 -2 0 -4 0 -4 -1 -1 0 -7 0 -14 -1 -8 0 -16 -1
-19 -2 -3 0 -7 -2 -10 -2 -5 -2 -3 -3 3 -2 5 1 11 1 11 -1 0 -1 2 -1 2 0 1 2
2 2 6 2 7 0 14 1 17 2 2 1 4 1 5 1 4 0 14 1 16 2 1 1 2 1 2 2 -1 1 -9 1 -10 0z
M60 206 c1 0 1 0 2 0 0 1 -1 1 -2 1 -1 0 -1 0 0 -1z M35 201 c0 -3 0 -4 1 -3
0 2 0 4 0 6 -1 1 -1 0 -1 -3z M62 204 c0 -1 1 -2 1 -3 1 -1 1 -1 1 1 0 1 -1 2
-2 2 -1 1 -1 1 0 0z M92 202 c0 -1 0 -1 0 -2 1 0 1 1 1 1 1 2 0 3 -1 1z M190
200 c0 -1 1 -4 1 -5 1 -2 1 -1 0 3 0 5 -1 7 -1 2z M97 201 c0 -1 -1 -2 -1 -3
0 -2 -4 -4 -4 -3 -1 1 -2 0 -5 -3 -2 -3 -2 -3 -1 -6 1 -1 2 -2 2 -1 0 0 1 -2
2 -5 1 -3 4 -7 6 -10 6 -5 8 -5 5 0 -1 3 -2 5 -1 5 0 0 -1 1 -1 1 -1 1 -1 1 0
2 1 1 3 2 3 1 1 0 2 0 3 1 0 1 2 1 3 0 1 0 3 0 4 -1 4 0 8 -3 10 -5 4 -6 5 -9
4 -9 -1 0 0 -1 2 -2 3 -1 4 -1 6 0 2 1 2 1 0 4 -1 1 -2 3 -2 3 0 0 -1 2 -2 3
-1 2 -2 3 -2 3 -1 0 -1 1 0 2 0 3 -2 5 -4 3 0 0 -1 0 -2 1 0 1 0 2 1 2 1 1 1
1 0 3 -2 1 -2 1 -3 0 0 0 -1 -1 -1 -1 -2 0 -1 3 1 5 1 1 1 1 0 2 -1 1 -2 2 -3
4 -1 1 -2 2 -8 2 -3 0 -8 -1 -9 -1 -3 -1 -4 -1 -2 1 1 1 2 2 2 2 0 1 -2 1 -3
0z M104 201 c-2 -1 -2 -1 1 -1 2 0 3 0 3 1 -1 1 -1 1 -1 1 0 0 -2 -1 -3 -1z
M82 194 c-1 -2 -1 -2 1 -1 1 1 1 2 1 3 -1 0 -1 -1 -2 -2z M37 190 c0 -1 1 -3
2 -4 1 -1 1 -1 1 0 -1 0 -1 2 -2 3 -1 2 -1 2 -1 1z M47 188 c0 0 0 -1 1 -1 1
-1 1 0 0 0 0 2 -1 2 -1 1z M49 184 c0 -2 -1 -2 -4 -2 l-4 1 3 -2 c5 -2 5 -2 2
-4 -3 -1 -4 -3 -2 -7 2 -3 5 -3 8 0 2 3 2 6 -1 8 0 1 -1 3 -1 5 -1 1 -1 2 -1
1z m2 -9 c0 -2 -1 -3 -3 -3 -3 0 -3 1 -2 3 1 3 5 2 5 0z M198 173 c1 0 3 0 4
0 1 1 0 1 -2 1 -2 0 -3 0 -2 -1z M89 165 c-1 -1 0 -1 0 -1 1 0 2 0 3 1 0 1 -1
1 -1 1 -1 0 -2 0 -2 -1z M79 163 c-2 -1 -3 -2 -3 -2 0 -1 1 -1 2 0 1 1 4 2 5
2 2 1 2 1 1 1 -2 0 -4 -1 -5 -1z M139 152 c0 -1 -1 -1 -1 -1 -2 0 -4 -4 -2 -5
0 -1 1 -2 0 -3 0 0 0 -1 1 -1 2 0 0 -5 -2 -7 -1 -1 -3 -4 -4 -6 l-2 -4 4 4 c3
2 6 5 8 6 3 3 5 3 17 3 l6 1 -5 4 c-2 2 -6 4 -8 5 -3 1 -6 2 -8 3 -3 2 -4 2
-4 1z M220 143 c0 -1 1 -2 1 -4 1 -1 2 -2 2 -1 0 1 -1 2 -2 3 0 2 -1 2 -1 2z
M224 134 c0 -2 0 -5 1 -7 1 -7 1 -12 -1 -14 -1 -1 -2 -3 -2 -5 0 -3 -2 -6 -7
-11 -1 -2 -4 -6 -5 -8 -2 -2 -6 -8 -9 -12 -4 -4 -7 -8 -8 -9 0 -2 0 -2 -1 -1
-1 1 -1 1 -1 1 0 -2 -5 -7 -6 -7 -1 0 -4 -2 -7 -5 -3 -2 -6 -4 -6 -4 0 0 -3
-2 -6 -4 -3 -1 -6 -3 -6 -3 -1 0 -3 -2 -6 -5 -5 -5 -7 -6 -8 -4 -1 1 -1 1 -2
0 -2 -2 4 -4 7 -2 0 1 2 2 3 2 1 0 3 1 4 3 1 1 3 2 5 2 1 0 3 1 4 2 2 2 6 4
10 6 13 7 36 22 36 25 0 1 -1 1 -1 0 -1 -2 -2 -2 -2 0 0 1 1 2 2 2 0 1 1 2 1
2 0 1 1 3 1 5 1 1 2 4 3 5 2 7 4 10 6 11 4 4 5 24 2 34 -2 3 -2 3 -1 1z M141
43 c0 -1 0 -2 1 -1 0 0 0 2 0 2 -1 1 -1 0 -1 -1z M140 35 c0 -2 -1 -3 -1 -3
-1 0 -1 -1 -1 -2 1 0 2 -1 3 0 1 0 1 4 0 6 -1 1 -1 1 -1 -1z"/>
</g>
<g transform="translate(0.000000,256.000000) scale(1.000000,-1.000000)"
fill="#746b4d" stroke="none">
<path d="M108 215 c1 0 1 0 2 0 0 1 -1 1 -2 1 -1 0 -1 0 0 -1z M96 214 c1 0 3
0 4 0 1 1 0 1 -2 1 -2 0 -3 0 -2 -1z M192 209 c0 -3 0 -4 1 -3 0 2 0 4 0 6 -1
1 -1 0 -1 -3z M32 199 c0 -1 0 -1 1 0 0 1 0 1 0 2 -1 0 -1 -1 -1 -2z M33 193
c0 -1 0 -1 1 0 0 1 0 1 0 2 -1 0 -1 -1 -1 -2z M194 187 c0 -1 0 -1 1 0 0 1 0
1 0 2 -1 0 -1 -1 -1 -2z M195 185 c0 -1 1 -1 2 -2 1 -1 1 -1 0 0 -1 2 -2 2 -2
2z M37 184 c0 -1 1 -1 2 -2 1 -1 1 -1 0 0 -1 2 -2 2 -2 2z M204 177 c4 -4 4
-5 1 -5 -2 0 -2 0 0 -1 5 -1 5 -4 1 -8 -3 -2 -4 -4 -1 -4 0 0 1 1 1 1 0 1 1 2
2 3 4 3 3 8 -3 13 -2 2 -3 3 -1 1z M181 168 c-3 -3 -3 -3 -1 -2 2 2 5 6 4 6 0
0 -2 -2 -3 -4z M198 171 c1 0 1 0 2 0 0 1 -1 1 -2 1 -1 0 -1 0 0 -1z M158 168
c-1 0 0 0 2 0 1 0 2 0 1 0 0 1 -1 1 -1 1 -1 0 -2 0 -2 -1z M152 164 c-1 -1 -1
-1 0 0 2 1 2 2 2 2 -1 0 -1 -1 -2 -2z M122 164 c-1 -3 -1 -4 3 -3 4 0 4 0 2 1
-2 0 -3 1 -4 1 -1 1 -1 1 -1 1z M39 159 c0 -2 0 -3 1 -2 0 1 0 3 0 3 -1 1 -1
0 -1 -1z M212 156 c0 -1 1 -1 2 -2 1 -1 1 -1 0 0 -1 2 -2 2 -2 2z M57 136 c0
-1 1 -3 3 -3 0 0 0 1 0 2 -1 2 -2 2 -3 1z M64 135 c-2 -1 -2 -1 1 -1 4 0 9 -2
11 -4 1 -1 2 -4 2 -7 1 -5 5 -10 11 -11 2 0 3 -1 3 -1 0 -2 4 -1 4 1 1 3 7 8
12 10 3 2 4 2 2 2 -4 -1 -7 -3 -11 -6 -6 -4 -16 -2 -18 5 -1 2 -1 4 -1 4 1 1
-3 5 -6 7 -5 2 -6 2 -10 1z M150 131 c0 0 1 -1 1 -2 1 -2 2 -2 7 -1 3 0 6 1 7
1 1 1 1 1 0 1 -2 -1 -5 -1 -7 -1 -4 -1 -5 -1 -5 1 -1 1 -2 2 -3 2 -1 0 -1 0 0
-1z M27 127 c0 -2 0 -4 0 -5 -1 -1 0 -2 0 -2 1 0 1 2 1 4 0 4 0 4 1 3 1 -2 1
-2 1 1 0 4 -2 4 -3 -1z M178 130 c1 0 1 0 2 0 0 1 -1 1 -2 1 -1 0 -1 0 0 -1z
M41 127 c-1 -2 -1 -2 0 -1 1 0 1 1 1 2 0 1 -1 0 -1 -1z M114 124 c1 0 1 0 2 0
0 1 -1 1 -2 1 -1 0 -1 0 0 -1z M138 124 c-2 -1 -1 -6 1 -10 1 -2 3 -5 3 -7 2
-4 2 -4 0 -7 -2 -2 -3 -4 -2 -4 0 -2 -6 -4 -9 -3 -1 0 -3 0 -4 0 -1 0 -1 1 -1
2 1 3 0 4 -3 6 -3 1 -4 3 -2 3 0 0 1 1 1 2 1 1 0 2 0 2 -1 0 -1 0 0 1 1 2 1 8
0 11 l-1 3 -1 -3 c0 -2 0 -4 0 -4 0 -1 -1 -2 -2 -2 -1 0 -1 1 -1 4 l0 4 -2 -5
c-2 -3 -3 -5 -5 -6 -3 -2 -4 -3 -3 -5 0 -1 0 -2 -1 -2 0 0 -1 -1 -1 -3 0 -3 0
-3 -3 -2 -2 0 -2 1 -2 3 1 3 1 3 -4 2 -5 -2 -7 -5 -7 -11 0 -4 0 -5 -1 -4 -1
1 -1 1 0 0 1 -4 1 -6 0 -6 0 1 -2 0 -4 -1 -2 -1 -4 -2 -6 -2 -1 0 -2 0 -2 -1
0 -1 -17 0 -19 1 0 1 -2 2 -4 3 -1 0 -2 1 -3 3 -1 2 -1 3 -2 3 0 -1 -4 6 -4 7
1 1 -3 4 -4 4 -1 0 1 -5 3 -8 1 -1 3 -3 3 -5 2 -4 9 -9 14 -10 3 0 7 -3 7 -4
-1 0 -3 0 -5 0 -2 0 -3 0 -2 -1 0 -1 0 -1 -1 -1 -4 2 -3 -2 0 -5 2 -3 3 -3 1
-1 -1 1 -2 3 -2 3 -2 1 0 2 8 2 4 1 7 1 7 2 2 1 4 1 3 0 0 -2 3 -4 6 -5 2 0 4
-1 5 -2 1 -1 2 -2 3 -2 1 0 1 0 1 -1 0 -1 0 -1 1 -1 3 1 5 -3 5 -7 0 -1 1 -3
2 -3 2 -2 2 -2 1 -3 -1 -1 -1 -1 -1 -1 1 0 1 -1 0 -2 -1 -1 -1 -2 0 -2 1 -1 1
-1 1 0 0 1 0 1 1 0 1 -1 1 -2 1 -3 -1 0 0 -1 1 -2 1 -1 1 -1 1 1 l0 3 2 -3 c2
-2 2 -2 0 -4 -2 -2 -2 -2 -1 -3 3 -1 0 -2 -5 -2 -5 0 -6 0 -8 3 -2 1 -3 3 -4
3 0 0 -1 0 -2 1 -1 1 -3 2 -4 2 -1 0 -1 0 1 -1 1 -1 2 -1 2 -2 0 -1 10 -8 13
-8 2 -1 3 -2 4 -2 2 -4 32 -6 37 -3 1 1 1 1 -1 0 -3 0 -17 0 -21 0 -2 1 -3 2
-3 3 0 1 -1 2 -3 2 -1 0 -2 0 -1 1 0 1 0 1 -1 1 0 0 -1 1 -1 2 0 2 1 2 3 2 3
0 4 -2 2 -2 -1 0 -1 -1 -1 -1 0 -2 3 -1 4 1 1 0 2 1 2 0 2 0 6 4 6 6 0 2 0 2
1 2 1 -1 2 0 3 1 1 1 2 2 3 2 1 1 3 4 6 7 2 4 8 11 12 15 7 8 7 8 5 8 -3 -1
-9 1 -7 2 0 1 4 1 7 2 6 0 7 1 10 3 1 2 3 4 5 4 2 1 2 1 -1 1 -2 0 -3 -1 -5
-3 -2 -3 -5 -4 -28 -4 -16 -1 -23 0 -25 3 0 0 -2 1 -3 1 -2 1 -2 1 -1 -1 1 -1
2 -2 3 -3 1 0 2 -1 2 -1 0 -1 0 -1 1 -1 0 0 2 0 3 -1 2 -1 5 -2 8 -3 4 -1 12
-2 19 -2 5 0 8 0 8 -1 0 0 -4 -5 -8 -9 -4 -5 -8 -10 -9 -11 -1 -2 -3 -3 -3 -3
-1 0 -2 -1 -3 -2 -2 -2 -2 -2 -7 2 -3 3 -6 4 -8 4 -2 0 -3 0 -3 1 -1 1 -1 1 0
1 0 0 1 1 0 1 0 1 -1 2 -1 2 -2 0 -3 2 -3 5 0 2 0 2 -1 1 0 -2 -1 -2 -4 2 -2
2 -4 5 -4 6 1 1 1 1 2 0 1 -1 2 -2 2 -3 1 -1 1 -1 1 0 0 3 0 4 -1 3 -1 0 -1 1
0 2 0 3 -3 7 -4 5 -1 -1 -1 0 -1 1 1 1 0 2 0 2 -1 0 -1 0 -1 1 0 1 0 1 1 1 0
-1 0 1 0 3 -2 9 -2 10 0 10 1 0 2 -1 2 -1 0 -2 6 -9 7 -9 1 0 0 6 -2 8 0 2 -1
3 -1 3 0 2 5 1 7 -1 2 0 3 -1 4 0 1 0 2 0 2 -1 0 -1 1 -2 2 -1 3 0 3 2 0 2 -1
0 -2 1 -3 2 0 1 0 3 -1 3 -1 2 -1 4 1 9 3 6 5 6 5 -2 0 -8 -1 -7 6 -14 1 -1 2
-2 3 -2 0 0 1 0 1 -1 0 -1 -3 -1 -5 0 -1 1 -3 1 -4 1 -2 -1 -2 -1 1 -3 5 -3
11 -3 15 0 5 4 6 5 8 11 3 7 3 7 -3 16 -2 3 -2 5 -2 7 1 4 1 4 0 3z m-52 -46
c0 -1 0 -3 0 -3 0 -1 0 -1 1 -1 1 0 1 1 1 2 0 1 0 1 1 0 0 -1 -1 -2 -2 -3 -2
-2 -3 -3 -5 -2 -3 2 -4 3 -3 6 1 1 1 1 1 -1 0 -2 2 -3 2 0 0 0 0 2 0 3 0 2 3
1 4 -1z m34 -43 c-1 -2 -4 -2 -4 0 0 0 -1 1 -1 1 -1 0 -1 0 1 1 2 1 4 0 4 -2z
m-11 -8 c1 -2 1 -2 0 -2 -1 0 -2 1 -3 2 -1 1 -1 1 0 1 1 0 2 -1 3 -1z M27 116
c-1 -2 -1 -4 -1 -5 -1 -2 -1 -3 0 -4 1 -1 1 -1 1 1 0 1 0 4 0 6 1 4 0 5 0 2z
M36 116 c0 -1 0 -1 1 0 0 1 0 1 0 2 -1 0 -1 -1 -1 -2z M229 115 c0 -1 0 -2 1
-1 0 0 0 2 0 2 -1 1 -1 0 -1 -1z M35 110 c0 -1 0 -2 1 -1 0 0 0 2 0 2 -1 1 -1
0 -1 -1z M228 110 c0 -1 0 -1 1 0 0 1 0 1 0 2 -1 0 -1 -1 -1 -2z M167 106 c0
0 1 -2 1 -4 1 -3 2 -4 2 -2 0 1 -3 8 -3 6z M227 103 c0 -1 0 -1 1 0 0 1 0 1 0
2 -1 0 -1 -1 -1 -2z M26 103 c0 -1 0 -1 1 -1 0 0 0 0 0 1 0 1 0 1 -1 1 -1 0
-1 0 0 -1z M230 100 c0 -1 1 -1 2 -2 1 -1 1 -1 0 0 -1 2 -2 2 -2 2z M134 97
c0 -1 0 -1 1 -1 1 0 1 0 1 1 0 1 0 1 -1 1 -1 0 -1 0 -1 -1z M230 96 c1 -2 2
-3 2 -2 0 0 -1 1 -2 2 l-2 3 2 -3z M170 95 c0 -2 1 -3 2 -4 1 -1 2 -2 2 -3 1
-1 1 -1 1 0 0 1 0 2 -1 3 -1 0 -2 2 -2 3 l-2 4 0 -3z M236 94 c0 -1 0 -2 1 -2
0 1 0 2 -1 2 -1 1 -1 1 0 0z M232 90 c0 -1 0 -1 1 0 0 1 0 1 0 2 -1 0 -1 -1
-1 -2z M237 88 c0 -2 0 -3 1 -2 0 1 0 3 0 3 -1 1 -1 0 -1 -1z M227 82 l-2 -2
2 2 c3 2 3 3 3 3 -1 0 -2 -1 -3 -3z M219 77 c-2 -1 -2 -1 -1 -1 1 0 2 0 3 1 0
1 0 1 -2 0z M234 74 c0 -1 3 -7 3 -6 0 0 -1 2 -1 4 -1 2 -2 3 -2 2z M213 66
c-1 -2 -1 -2 1 -2 1 0 2 1 2 2 0 0 0 1 -1 1 0 0 -1 -1 -2 -1z M222 64 c-3 -1
-7 -3 -9 -5 -7 -6 -10 -7 -11 -7 -1 1 -2 0 -2 -1 0 -2 -2 -1 -3 1 -1 2 0 3 2
2 0 0 1 0 1 1 0 1 1 1 2 1 1 0 1 1 1 2 -1 0 -1 1 -1 2 0 1 -2 0 -4 -2 -1 -1
-6 -4 -11 -6 -5 -3 -10 -6 -10 -6 -1 -1 0 0 2 0 2 1 3 2 3 2 1 -1 1 -7 1 -8
-2 -2 0 -1 7 2 9 4 11 3 5 -3 -2 -2 -4 -4 -4 -4 0 -1 3 0 7 0 7 0 12 1 27 5 4
1 5 1 6 -1 0 -1 1 -1 1 -1 0 1 1 1 1 0 2 -1 2 -2 1 -4 -2 -4 -6 -8 -19 -19 -4
-3 -7 -5 -7 -6 0 0 -1 -2 -3 -4 -2 -2 -3 -4 -3 -4 0 -1 2 -1 5 -1 4 0 5 0 5 2
1 1 2 2 2 2 1 0 2 1 2 2 0 1 1 2 2 3 2 0 2 1 1 3 0 2 0 3 2 4 1 1 2 2 2 2 0 1
2 4 5 6 3 3 6 7 7 10 1 2 2 5 2 5 1 1 3 7 3 9 0 0 -1 -1 -1 -3 -2 -3 -2 -3 -6
-2 -2 0 -6 0 -10 -2 -9 -3 -25 -5 -25 -2 0 1 3 5 5 6 3 1 3 1 3 0 0 -1 0 -2 1
-2 1 0 1 1 1 2 0 2 4 6 11 10 4 3 11 9 11 11 0 2 -4 1 -8 -2z m5 -1 c-1 -2 -9
-8 -10 -8 -1 0 -3 -1 -4 -2 -1 -1 -3 -2 -4 -2 -2 0 -1 1 3 5 5 4 15 10 16 10
0 -1 0 -2 -1 -3z M238 63 c0 -1 0 -1 1 0 0 1 0 1 0 2 -1 0 -1 -1 -1 -2z M16
62 c0 -1 0 -2 1 -1 0 0 0 2 0 2 -1 1 -1 0 -1 -1z M207 63 c0 0 -1 -1 -1 -2 0
-1 1 -1 2 -1 0 1 1 1 2 1 0 0 0 1 0 2 0 1 -1 1 -3 0z M63 60 c0 0 2 -3 5 -6 2
-3 4 -5 4 -4 0 0 -1 2 -3 3 -1 1 -3 4 -4 6 -1 1 -2 2 -2 1z M240 53 c0 -3 0
-3 1 -2 0 1 0 3 0 4 -1 1 -1 0 -1 -2z M163 37 c-2 -1 -3 -2 -1 -1 1 1 5 4 4 4
0 0 -2 -1 -3 -3z M247 33 c0 -1 2 -2 2 -2 0 0 -1 1 -1 2 -1 1 -3 2 -3 2 0 0 1
-1 2 -2z M209 30 c-5 -2 -11 -4 -13 -5 -8 -4 -17 -5 -27 -5 -8 0 -10 -1 -13
-3 -5 -3 -4 -5 3 -5 10 -1 36 5 47 10 6 3 13 8 13 10 1 1 1 1 -10 -2z m0 -4
c-3 -6 -48 -17 -48 -12 0 1 2 2 8 2 9 1 21 4 32 8 7 3 9 4 8 2z M250 31 c0 -1
1 -1 2 -2 1 -1 1 -1 0 0 -1 2 -2 2 -2 2z M143 26 c-2 -2 -2 -2 0 -1 1 1 2 1 3
2 0 1 0 1 -3 -1z M23 22 c-6 -4 -14 -10 -14 -11 2 -1 8 2 13 7 9 8 9 9 1 4z
M123 15 c0 -1 0 -1 1 -1 1 0 1 0 1 1 0 1 0 1 -1 1 -1 0 -1 0 -1 -1z M116 13
c0 -1 -1 -1 -3 -1 -1 -1 -2 -2 -2 -3 0 -3 1 -6 3 -5 0 1 0 1 -1 2 0 0 -1 1 -1
3 l0 2 2 -2 c2 -2 2 -2 3 -1 0 1 1 2 2 3 1 1 1 2 1 2 0 0 -1 0 -2 0 -1 1 -2 0
-2 0z M222 8 c0 -2 -1 -4 -1 -4 -1 0 -1 -1 -1 -2 0 -3 3 -2 4 1 0 2 1 3 2 3 1
0 2 -1 2 -3 2 -4 3 -4 2 0 -1 6 -2 8 -5 8 -1 0 -2 -1 -3 -3z"/>
</g>
<g transform="translate(0.000000,256.000000) scale(1.000000,-1.000000)"
fill="#8e7554" stroke="none">
<path d="M173 246 c-2 -1 -4 -3 -4 -5 -2 -4 0 -4 2 0 1 2 3 5 5 5 1 1 2 2 2 2
-1 0 -3 -1 -5 -2z M182 244 c4 -5 5 -5 3 -1 -1 1 -3 3 -4 4 0 1 0 0 1 -3z M39
230 c-1 0 -2 -2 -3 -3 -1 -2 -1 -2 1 -2 1 0 1 1 1 1 -1 2 3 3 8 3 1 0 3 0 2 0
-1 1 -6 2 -9 1z M189 227 c0 -1 0 -1 1 0 0 1 0 1 0 2 -1 0 -1 -1 -1 -2z M57
222 c6 -5 16 -13 17 -13 1 0 -1 2 -4 4 -2 1 -6 4 -9 7 -3 3 -6 6 -7 6 -2 1 0
-1 3 -4z M36 220 c0 -2 -1 -3 -1 -4 -1 -1 -1 -5 -1 -13 0 -12 1 -17 5 -21 2
-1 1 0 -1 4 -4 7 -5 17 -2 28 1 5 1 8 1 8 -1 0 -1 -1 -1 -2z M191 217 c0 -1 0
-1 1 0 0 1 0 1 0 2 -1 0 -1 -1 -1 -2z M131 218 c0 -1 3 -1 5 -1 3 -1 5 0 4 0
-1 1 -10 1 -9 1z M125 216 c1 0 3 0 4 0 1 1 0 1 -2 1 -3 0 -3 0 -2 -1z M177
216 c-1 0 -1 -1 0 -1 1 -1 1 0 1 0 0 2 -1 2 -1 1z M113 215 c2 0 4 0 6 0 2 0
1 1 -3 1 -4 0 -5 -1 -3 -1z M103 214 c0 0 2 0 2 0 1 1 0 1 -1 1 -1 0 -2 0 -1
-1z M91 213 c0 0 2 0 2 0 1 1 0 1 -1 1 -1 0 -2 0 -1 -1z M173 211 c-1 -1 -1
-1 0 0 1 0 1 1 1 2 -1 0 -1 -1 -1 -2z M176 210 c-1 -4 -1 -7 0 -6 1 1 2 9 2 9
-1 0 -1 -1 -2 -3z M78 210 l-2 -1 2 0 c1 0 2 0 3 1 1 1 1 1 0 1 -1 0 -2 -1 -3
-1z M45 207 c0 -1 -1 -2 -1 -4 0 -3 11 -30 12 -29 0 0 -2 5 -4 11 -5 11 -6 17
-4 17 3 0 8 -4 13 -9 3 -4 5 -5 5 -4 0 1 0 2 -1 2 0 0 -4 4 -9 8 -5 5 -9 9 -9
9 0 0 -1 -1 -2 -1z M193 191 c0 -1 0 -1 1 0 0 1 0 1 0 2 -1 0 -1 -1 -1 -2z
M200 180 c0 -1 2 -2 2 -2 0 0 -1 1 -1 2 -1 1 -3 2 -3 2 0 0 1 -1 2 -2z M41
174 c0 -1 1 -3 3 -5 1 -1 2 -2 1 -1 -1 1 -2 3 -3 5 0 2 -1 2 -1 1z M186 172
c1 0 3 0 4 0 1 1 0 1 -2 1 -2 0 -3 0 -2 -1z M52 169 c-1 -1 -1 -1 0 0 1 1 2 1
2 2 0 0 -1 0 -2 -2z M89 163 c-4 -1 -8 -2 -10 -3 -1 0 -3 -1 -5 -1 -2 0 -4 -1
-5 -1 -1 -1 -2 -2 -3 -2 -1 0 -2 0 -2 -1 0 -1 0 -1 -1 -1 -1 1 -2 0 -4 0 -3
-2 -3 -2 -3 0 0 1 0 1 -2 -1 -1 -1 -2 -2 -4 -1 -1 1 -2 1 -2 -1 0 0 0 -1 1 -1
1 0 1 0 1 -1 -1 -1 1 -2 5 -1 2 0 5 2 7 4 2 1 6 4 9 4 3 1 7 3 9 3 3 2 16 5
22 5 3 1 3 1 -1 1 -2 0 -8 -1 -12 -2z M149 164 c-2 -1 -4 -3 -5 -4 l-1 -2 2 2
c1 1 2 2 3 2 1 0 2 1 3 2 1 1 1 1 -2 0z M133 161 c1 0 1 0 2 0 0 1 -1 1 -2 1
-1 0 -1 0 0 -1z M203 159 c0 -1 0 -3 0 -5 l1 -3 0 3 c0 3 1 4 2 4 1 1 1 1 0 1
-1 1 -2 0 -3 0z M133 155 c-1 -1 -1 -3 0 -3 0 0 1 1 1 2 1 2 0 3 -1 1z M217
151 c0 -1 2 -2 2 -2 0 0 -1 1 -1 2 -1 1 -3 2 -3 2 0 0 1 -1 2 -2z M151 151 c0
0 4 -4 12 -10 6 -6 3 -2 -4 4 -5 4 -8 7 -8 6z M66 145 c-1 0 -3 0 -5 0 -2 -1
-4 -1 -5 -2 -2 0 -4 -1 -5 -2 -2 -1 -4 -4 -6 -6 -9 -18 -11 -24 -7 -31 0 -2 2
-4 2 -4 1 0 5 -3 4 -4 0 -1 4 -8 4 -7 1 0 1 -1 2 -3 1 -2 2 -3 3 -3 2 -1 4 -2
4 -3 2 -1 19 -2 19 -1 0 1 1 1 2 1 2 0 4 1 6 2 2 1 4 2 4 1 1 0 1 2 0 6 -1 1
-1 1 0 0 1 -1 1 0 1 4 0 6 2 9 7 11 5 1 5 1 4 -2 0 -2 0 -3 2 -3 3 -1 3 -1 3
2 0 2 1 3 1 3 1 0 1 1 1 2 -1 2 0 3 3 5 2 1 3 3 5 6 3 7 3 8 -1 7 -2 0 -2 0
-1 -1 3 -2 -1 -10 -6 -12 -4 -1 -6 -1 -6 2 0 3 3 6 7 8 2 1 3 2 2 2 -2 0 -10
-6 -12 -10 -2 -3 -6 -4 -6 -2 0 0 -1 1 -3 1 -6 1 -10 6 -11 11 -1 6 -2 8 -7
10 -3 1 -5 1 -8 1 -5 -1 -6 -1 -6 1 1 1 0 2 0 3 -1 1 2 3 7 5 2 1 4 2 4 2 0 1
-2 1 -2 0z m8 -16 c1 -1 2 -4 2 -7 1 -5 6 -10 11 -12 4 -1 4 -2 3 -5 -1 -2 -2
-4 -3 -6 0 -2 -1 -5 -1 -6 0 -2 -1 -3 -4 -5 -5 -2 -6 -3 -6 0 0 4 -1 5 -5 5
-2 0 -3 0 -1 -1 3 0 3 -2 0 -2 -3 0 -5 4 -3 4 1 1 1 1 1 2 -1 0 -2 -1 -2 -2
-2 -1 -2 -1 -2 1 0 1 1 2 1 2 2 1 0 3 -2 3 -2 0 -3 -1 -1 -2 1 -1 1 -2 0 -4
-1 -2 -1 -2 1 -2 1 0 0 -1 -2 -2 -4 -1 -4 -1 -7 1 -1 1 -2 3 -2 4 0 0 0 1 -1
1 0 0 -3 3 -6 6 -6 7 -7 11 -2 18 2 3 4 6 5 7 2 2 2 2 3 0 1 -1 2 -2 2 -1 1 0
1 0 1 0 0 -1 -1 -1 -2 -2 -2 -1 -2 -1 -1 -1 1 0 3 -1 3 -2 2 -2 2 -2 2 0 0 4
1 6 3 8 4 5 11 5 15 0z m-18 -5 c0 -1 0 -1 -1 -1 -1 -1 -1 -1 -1 0 0 1 0 1 1
1 1 0 1 0 1 0z m10 -37 c0 -1 0 -2 -1 -2 -1 0 -1 1 -1 2 0 0 0 1 1 1 1 0 1 -1
1 -1z M59 102 c0 -1 0 -2 1 -1 0 0 1 1 1 0 1 0 1 0 1 1 -1 2 -3 2 -3 0z M224
140 c0 -1 0 -2 1 -2 0 1 0 2 -1 2 -1 1 -1 1 0 0z M225 134 c0 -1 0 -2 1 -3 1
-1 1 -1 0 2 0 3 -1 4 -1 1z M174 131 c1 -1 3 -3 4 -4 2 -1 6 -1 6 0 0 0 2 2 3
3 3 2 3 2 1 2 -8 -2 -11 -2 -14 0 l-2 2 2 -3z M151 132 c1 -1 2 -2 2 -3 0 -1
0 -1 1 0 1 1 2 2 5 2 1 0 1 0 1 1 0 1 -2 1 -5 1 -4 0 -5 -1 -4 -1z M127 129
c0 -1 -1 -3 -3 -5 -1 -2 -2 -3 -1 -4 0 -3 0 -9 -1 -11 -1 -1 -1 -1 0 -1 0 0 1
-1 0 -2 0 -1 -1 -2 -1 -2 -2 0 -1 -2 2 -3 3 -2 4 -3 3 -6 0 -1 0 -2 1 -2 1 0
3 0 4 0 2 -1 4 -1 6 0 2 1 3 2 3 2 0 0 -1 1 -3 1 -2 0 -3 -1 -3 -1 0 -1 -1 -1
-2 -1 -2 0 -3 1 -1 3 1 0 0 1 -3 3 -2 1 -3 2 -3 4 0 4 1 10 1 14 0 4 1 7 2 10
2 3 3 4 1 4 0 0 -1 -1 -2 -3z M147 131 c1 0 1 0 2 0 0 1 -1 1 -2 1 -1 0 -1 0
0 -1z M139 127 l-1 -2 2 1 c2 2 2 3 2 3 -1 0 -2 -1 -3 -2z M227 127 c0 -1 0
-2 1 -1 0 0 0 2 0 2 -1 1 -1 0 -1 -1z M28 125 c0 -2 0 -4 -1 -4 -1 -1 -1 -2
-1 -3 0 -2 0 -2 2 1 0 2 1 5 1 6 -1 3 -1 3 -1 0z M228 121 c0 -3 0 -3 1 -2 0
1 0 3 0 4 -1 1 -1 0 -1 -2z M170 114 c0 -1 0 -1 1 0 0 1 0 1 0 2 -1 0 -1 -1
-1 -2z M228 113 c0 -1 0 -1 1 0 0 1 0 1 0 2 -1 0 -1 -1 -1 -2z M227 108 c0 -2
0 -3 1 -2 0 1 0 3 0 3 -1 1 -1 0 -1 -1z M227 102 c0 -1 0 -2 -2 -2 -2 -1 -8
-12 -8 -15 0 -1 1 1 3 5 2 6 5 9 7 8 1 0 2 0 2 1 1 1 1 1 0 1 0 0 -1 1 -2 2
-1 2 -1 2 0 0z M216 81 c-1 -4 0 -6 2 -6 1 0 1 0 0 1 0 0 -1 2 -1 4 l-1 4 0
-3z M82 79 c0 -1 0 -3 0 -3 0 -3 -2 -2 -2 0 0 2 0 2 -1 1 -1 -3 0 -4 3 -6 2
-1 3 0 5 2 1 1 2 2 2 3 -1 1 -1 1 -1 0 0 -1 0 -2 -1 -2 -1 0 -1 0 -1 1 0 0 0
2 0 3 -1 2 -4 3 -4 1z M162 79 c-1 -1 -4 -2 -8 -2 -3 -1 -7 -1 -7 -2 -2 -1 4
-3 7 -2 2 0 2 0 -5 -8 -4 -4 -10 -11 -12 -15 -3 -3 -5 -6 -6 -7 -1 0 -2 -1 -3
-2 -1 -1 -2 -2 -3 -1 -1 0 -1 0 -1 -2 0 -2 -4 -6 -6 -6 0 1 -1 0 -2 0 -1 -2
-4 -3 -4 -1 0 0 0 1 1 1 2 0 1 2 -2 2 -2 0 -3 0 -3 -2 0 -1 1 -2 1 -2 1 0 1 0
1 -1 -1 -1 0 -1 1 -1 2 0 3 -1 3 -2 0 -1 1 -2 3 -3 6 -1 20 0 23 1 7 4 21 12
21 13 0 0 -3 -2 -7 -4 -4 -1 -7 -3 -8 -3 -1 0 -2 -1 -3 -2 -3 -2 -11 -4 -15
-3 -1 1 -2 1 -2 1 0 2 7 15 9 16 1 1 2 2 6 9 3 6 11 16 15 19 2 2 5 5 6 6 2 4
2 5 0 3z M73 72 c0 -1 -3 -1 -7 -2 -9 0 -10 -1 -7 -3 1 -1 3 -4 5 -6 1 -3 4
-7 5 -8 2 -1 3 -3 3 -3 0 -1 3 -6 7 -9 1 -1 2 -2 3 -2 1 0 3 -1 4 -2 1 -1 2
-1 2 -1 1 0 2 -2 4 -3 2 -3 3 -3 8 -3 5 0 8 1 5 2 -1 1 -1 1 1 3 2 2 2 2 0 4
l-2 3 0 -3 c0 -2 0 -2 -1 -1 -1 1 -2 2 -1 2 0 1 0 2 -1 3 -1 1 -1 1 -1 0 0 -1
0 -1 -1 0 -1 0 -1 1 0 2 1 1 1 2 0 2 0 0 0 0 1 1 1 1 1 1 -1 3 -1 0 -2 2 -2 3
0 4 -2 8 -5 7 -1 0 -1 0 -1 1 0 1 0 1 -1 1 -1 0 -2 1 -3 2 -1 1 -3 2 -5 2 -3
1 -6 3 -6 5 1 1 -1 1 -3 0z m4 -11 c1 -1 1 -2 1 -2 0 0 -1 1 -2 2 -1 1 -2 2
-1 2 0 0 1 -1 2 -2z m6 -8 c0 -1 0 -1 -1 0 0 0 -1 1 -1 0 -1 0 -1 0 -1 1 1 2
3 1 3 -1z M205 62 c-1 -1 -1 -2 0 -2 0 0 1 1 1 2 0 1 0 1 -1 0z M183 50 c-3
-1 -5 -2 -5 -3 0 0 2 1 5 3 3 1 5 2 5 3 0 0 0 0 -5 -3z M173 45 c-2 0 -3 -2
-4 -3 -1 -1 0 -1 3 1 6 4 7 6 1 2z M163 38 c-1 -1 -1 -1 0 0 2 1 2 2 2 2 -1 0
-1 -1 -2 -2z M116 37 c-2 -1 -2 -1 -1 -1 0 0 1 -1 1 -1 0 -2 3 -2 4 0 0 2 -2
3 -4 2z M106 27 c1 -1 2 -2 3 -2 1 0 1 0 0 2 -1 0 -2 1 -3 1 -1 0 -1 0 0 -1z"/>
</g>
<g transform="translate(0.000000,256.000000) scale(1.000000,-1.000000)"
fill="#6b5233" stroke="none">
<path d="M169 243 c-2 -2 -5 -5 -5 -7 -1 -2 -5 -7 -9 -11 -6 -6 -7 -7 -10 -7
-2 0 -4 0 -5 0 -2 1 -1 0 1 -1 3 -2 3 -2 7 0 2 1 5 1 6 2 1 0 3 0 4 1 1 1 9
17 9 19 0 0 1 3 3 4 2 2 3 4 3 4 -1 0 -2 -2 -4 -4z M184 244 c1 -1 1 -2 2 -2
0 0 0 1 -1 2 -1 1 -1 2 -2 2 0 0 0 -1 1 -2z M45 230 c1 0 1 0 2 0 0 1 -1 1 -2
1 -1 0 -1 0 0 -1z M50 229 c0 -1 1 -1 2 -1 0 -1 1 -1 0 0 0 1 -2 1 -2 1z M34
224 c-1 -5 -3 -19 -2 -19 1 0 1 4 3 17 1 7 1 8 -1 2z M63 219 c2 -2 4 -4 4 -4
0 0 -1 2 -3 4 -3 2 -5 4 -5 4 0 0 1 -2 4 -4z M72 212 c0 -1 1 -1 2 -1 0 1 -1
1 -2 1 -1 1 -1 1 0 0z M76 210 c1 0 1 0 2 0 0 1 -1 1 -2 1 -1 0 -1 0 0 -1z
M31 203 c0 -1 0 -2 1 -2 1 0 1 1 1 2 0 0 0 1 -1 1 -1 0 -1 -1 -1 -1z M47 201
c0 -2 5 -17 9 -24 1 -2 2 -4 2 -4 2 0 10 8 11 12 2 4 1 5 -1 3 -1 -1 -2 0 -7
5 -5 5 -10 9 -12 9 -1 0 -1 -1 -2 -1z m14 -10 c3 -4 6 -7 6 -8 0 0 -2 -2 -4
-4 -4 -4 -6 -3 -9 4 -1 2 -2 5 -2 5 -1 2 -1 9 0 10 1 1 4 -1 9 -7z M32 195 c0
-1 0 -2 1 -1 0 0 0 2 0 2 -1 1 -1 0 -1 -1z M33 191 c0 -2 4 -11 6 -12 2 0 2 0
1 -3 -1 -3 -1 -3 1 -6 2 -3 2 -4 1 -4 -2 0 -2 -1 -1 -3 1 -1 1 -1 2 1 1 2 1 2
2 1 1 -1 2 -2 3 -2 2 0 1 -1 -2 -5 -2 -2 -4 -3 -4 -3 -1 1 -1 1 -2 0 -1 -2 -2
-3 -1 -3 0 -1 0 -1 -1 -1 -1 0 -1 -1 -1 -1 0 -1 -1 -3 -2 -4 -7 -7 -9 -13 -11
-26 0 -4 0 -6 1 -6 1 0 1 1 1 3 0 1 0 3 0 4 1 1 1 2 1 3 0 2 1 7 2 7 1 0 1 -2
1 -6 -1 -3 -1 -6 -1 -7 0 -1 -1 -2 -1 -2 -1 0 -1 -1 -1 -1 0 -1 0 -3 0 -5 0
-4 0 -4 -1 -2 -2 2 -2 3 -1 2 1 0 1 0 1 1 0 1 -2 1 -2 0 -1 0 -1 -2 0 -4 0 -3
1 -4 2 -3 0 0 1 0 1 -1 0 0 -1 -1 -1 -1 -4 -1 5 -16 9 -16 1 0 2 -1 3 -2 1 -1
1 -1 2 0 1 1 1 1 1 0 0 0 1 -2 3 -4 2 -2 3 -4 4 -7 0 -5 1 -6 4 -9 2 -1 3 -3
3 -3 -1 0 0 -1 1 -2 2 -1 3 -2 3 -3 0 0 1 -1 1 -1 1 0 1 0 1 -1 0 -2 1 -3 1
-4 1 -2 1 -2 2 0 1 1 1 1 2 -1 1 -2 2 -4 2 -4 1 0 1 -2 1 -3 0 -1 1 -2 2 -2 1
0 2 -1 3 -2 1 -1 1 -2 -1 -2 -1 -1 -2 0 -4 2 l-1 3 -2 -3 c-2 -3 -3 -6 -1 -6
1 0 1 0 1 1 0 1 2 1 4 1 3 -1 5 0 5 1 2 1 2 1 3 -1 1 -1 2 -2 2 -3 0 -1 0 -1
1 -1 0 1 2 0 2 -1 2 -1 2 -1 0 -3 l-3 -3 3 -1 c3 -1 3 -1 3 1 0 1 0 3 0 4 0 2
0 2 1 1 1 -2 1 -8 0 -8 -1 -1 -1 -1 0 -1 0 0 2 1 3 2 2 2 2 3 1 3 -2 0 -2 1
-1 2 1 1 4 -2 4 -4 0 -1 -1 -2 -1 -2 -1 -1 -1 -1 1 -1 2 0 3 1 2 3 -1 2 0 3 3
0 1 -1 3 -1 6 -1 6 0 11 -1 11 -2 0 -1 -3 -2 -8 -2 -2 0 -4 -1 -3 -1 0 0 -1
-1 -3 -1 -3 -1 -3 -4 1 -6 1 -1 3 -1 3 0 1 1 1 2 0 3 -1 1 -1 1 0 1 1 -1 2 0
3 0 0 1 2 1 3 2 3 0 4 1 6 1 1 1 2 1 3 1 0 -1 2 0 3 1 2 1 3 1 4 0 1 -1 3 0 9
3 3 2 7 4 8 5 1 0 2 1 3 1 0 0 3 2 6 4 3 1 6 3 7 3 1 0 2 1 4 2 1 1 3 2 4 2 1
0 2 0 2 1 0 0 1 1 3 1 1 1 2 1 2 2 0 1 1 1 2 1 2 0 5 4 5 5 -1 0 -18 -9 -18
-10 -1 0 -5 -3 -10 -6 -5 -3 -11 -6 -13 -7 -4 -3 -13 -5 -14 -4 0 1 -2 1 -3 0
-2 -1 -4 -1 -5 0 -1 1 -3 1 -5 1 -4 0 -12 2 -14 4 -1 0 -3 1 -4 2 -3 0 -12 7
-12 8 0 1 -1 2 -3 2 -2 1 -5 4 -7 6 -2 3 -5 7 -8 10 -2 3 -4 6 -4 6 0 1 -2 3
-4 5 -3 4 -4 8 0 6 1 0 1 0 1 1 -1 1 0 1 2 1 4 -1 5 1 1 3 -2 1 -3 2 -3 1 0 0
-3 1 -6 3 -5 3 -7 4 -8 7 0 2 -2 4 -3 5 -1 1 -3 4 -4 7 -1 2 -2 6 -3 7 -2 3
-1 9 2 16 2 3 3 6 3 7 1 3 6 11 9 12 2 2 14 5 21 7 1 0 2 -1 3 -1 1 -2 1 -2
-8 -6 -9 -3 -9 -8 -1 -6 4 1 5 1 9 0 2 -1 4 -3 4 -4 1 0 2 -1 2 0 1 0 1 -1 1
-1 0 -5 7 -9 8 -5 0 1 0 1 -1 0 -1 -1 -1 -1 -2 1 -1 2 -2 2 -2 1 -1 -1 -1 -1
-1 0 0 0 0 1 1 2 2 1 1 2 -1 1 -1 0 -1 0 0 2 1 3 1 3 0 6 -2 1 -2 1 -1 -2 1
-2 0 -3 -1 -3 0 0 -1 1 -1 2 -1 0 -1 1 0 1 2 0 0 4 -2 4 -2 0 -2 1 -1 2 2 2 3
5 2 5 -1 0 -1 1 -1 1 0 2 -10 2 -13 0 -1 -1 -2 -1 -3 -1 -1 1 4 6 9 8 2 1 3 2
2 2 -3 0 -8 -3 -11 -6 -4 -4 -16 -5 -17 -1 -1 1 3 10 5 10 0 0 1 1 2 3 l2 3
-4 -1 c-3 0 -4 0 -6 3 -3 3 -4 7 -2 9 1 1 0 2 -3 5 -2 2 -4 5 -5 7 0 2 -1 3
-1 2z m14 -46 c3 1 5 1 5 0 0 -1 -8 -6 -9 -6 -1 0 -2 1 -3 2 -2 2 -2 2 -1 5 1
2 2 2 2 1 0 -2 1 -2 6 -2z m-11 -52 c0 0 0 -1 -1 -1 -1 0 -1 1 -1 2 0 1 0 2 1
2 1 -1 1 -2 1 -3z m3 -4 c2 -2 2 -3 1 -3 -1 0 -3 1 -4 3 -3 3 -1 3 3 0z M195
186 c0 -1 1 -1 2 -2 1 -1 1 -1 0 0 -1 2 -2 2 -2 2z M97 163 c0 0 2 0 2 0 1 1
0 1 -1 1 -1 0 -2 0 -1 -1z M93 162 c1 0 1 0 2 0 0 1 -1 1 -2 1 -1 0 -1 0 0 -1z
M88 161 c1 0 1 0 2 0 0 1 -1 1 -2 1 -1 0 -1 0 0 -1z M134 161 c-2 0 -2 0 -1
-1 1 -1 1 -1 0 -3 -1 -1 -2 -4 -2 -6 0 -8 -6 -19 -13 -23 -4 -3 -4 -3 -2 -3 1
-1 2 -1 2 -2 -1 -1 -1 -2 0 -3 l0 -2 2 2 c1 1 2 3 2 5 0 2 0 3 1 3 0 0 2 4 4
8 3 5 4 9 5 13 0 5 1 7 3 9 3 3 4 4 2 4 0 0 -2 0 -3 -1z M145 158 c-2 -3 -2
-3 0 -5 1 -1 2 -2 3 -2 2 0 4 2 3 3 0 1 -1 1 -2 0 -1 -3 -4 -2 -4 1 0 1 1 3 2
4 2 2 2 3 2 3 -1 0 -3 -2 -4 -4z M84 160 c1 0 1 0 2 0 0 1 -1 1 -2 1 -1 0 -1
0 0 -1z M79 159 c-1 -1 -1 -1 0 -1 0 0 1 0 2 1 1 1 1 1 1 1 -1 0 -2 0 -3 -1z
M202 155 c0 -2 0 -3 1 -2 0 1 0 3 0 4 -1 1 -1 0 -1 -2z M156 148 c1 -2 3 -3 3
-3 0 0 -1 1 -2 3 -1 1 -3 2 -3 2 0 0 1 -1 2 -2z M160 145 c0 0 1 -2 3 -4 l4
-2 -3 3 c-3 3 -4 3 -4 3z M92 123 c-1 -2 -5 -2 -5 -1 0 1 -1 1 -1 0 -3 -1 2
-4 7 -4 4 0 11 3 11 5 0 1 -1 1 -1 0 -2 -1 -6 0 -5 1 0 1 -1 1 -2 1 -1 0 -3
-1 -4 -2z M228 105 c0 -1 0 -1 1 0 0 1 0 1 0 2 -1 0 -1 -1 -1 -2z M224 97 c-1
0 0 -1 1 0 2 0 3 1 1 1 -1 0 -2 0 -2 -1z M221 91 c-1 -2 -1 -3 0 -1 1 1 1 2 1
3 -1 0 -1 -1 -1 -2z M107 91 c0 0 2 0 2 0 1 1 0 1 -1 1 -1 0 -2 0 -1 -1z M95
88 c1 -2 2 -4 2 -4 1 0 1 -2 1 -3 0 -4 1 -5 2 -3 1 2 1 1 3 -4 0 -2 0 -3 1 -2
0 1 1 1 1 0 1 -1 4 -2 6 -2 4 -1 5 -1 7 0 l2 1 -3 1 c-2 1 -3 2 -3 1 0 0 -1 0
-1 1 -1 1 -3 1 -4 1 -2 1 -2 1 -1 -1 2 -1 2 -1 1 -2 -3 0 -3 0 -3 4 0 2 -2 4
-4 7 -2 2 -4 4 -4 5 -2 4 -4 3 -3 0z M218 82 c-1 -2 -1 -4 -1 -5 1 0 1 2 2 4
0 2 0 4 0 5 -1 0 -1 -2 -1 -4z M122 69 c-2 0 -2 -1 -1 0 1 0 1 0 1 -1 -1 -1
-2 -1 -2 0 -1 1 -2 1 -2 -1 -1 0 -2 -1 -2 0 -1 0 -1 0 -1 0 2 -2 -3 -5 -5 -5
-2 1 -3 0 -2 -1 0 0 0 -1 -1 -1 -1 0 -1 -1 -1 -2 0 -3 1 -3 3 0 1 2 3 2 3 -1
0 0 -1 -1 -2 -1 -1 0 -1 0 0 -2 1 -2 1 -2 3 0 1 1 2 2 2 2 2 0 1 -4 0 -4 -1
-1 0 -1 2 0 4 0 7 -1 7 -4 0 0 1 -1 3 -1 2 0 2 0 1 1 -1 1 -1 1 1 1 1 -1 2 0
2 0 -1 0 0 1 2 2 2 1 3 3 3 3 0 1 1 2 2 2 1 1 2 1 2 2 -1 0 0 1 1 1 1 1 2 2 3
3 0 1 1 3 3 4 1 1 2 3 1 3 0 0 -4 1 -10 1 -5 0 -11 0 -12 0 -2 1 -3 1 -4 -1z
m21 -1 c2 0 1 -2 -1 -2 -1 -1 -3 -3 -4 -5 -5 -6 -13 -9 -13 -4 0 2 -2 3 -5 3
-1 0 -2 0 -2 1 0 0 0 2 -1 2 0 2 0 2 1 1 1 0 2 1 3 1 1 1 2 2 3 2 1 0 2 0 2 1
1 0 13 1 17 0z m-26 -10 c1 -1 1 -1 -1 -1 -1 0 -3 1 -3 2 0 1 0 1 1 0 0 0 1
-1 3 -1z m5 -3 c0 -1 -1 -1 -2 -1 -1 0 -2 0 -1 1 0 1 1 1 1 1 0 0 1 0 2 -1z
M103 62 c0 -1 0 -1 1 -1 0 0 0 0 0 1 0 1 0 1 -1 1 -1 0 -1 0 0 -1z M122 46
c-1 0 0 -1 1 -2 1 -1 1 -1 0 0 0 1 -1 2 0 2 0 1 0 1 0 1 -1 0 -1 0 -1 -1z
M221 36 c0 -1 -1 -2 0 -2 1 0 5 3 5 4 0 2 -4 1 -5 -2z M215 33 c1 0 1 0 2 0 0
1 -1 1 -2 1 -1 0 -1 0 0 -1z M74 31 c0 -3 6 -7 6 -4 0 1 -1 1 -2 1 -1 0 -2 0
-2 1 0 1 0 1 1 1 1 0 1 0 1 1 -1 1 -4 1 -4 0z M197 27 l-1 -2 2 1 c1 2 3 3 3
3 0 0 0 0 -1 0 0 0 -2 -1 -3 -2z M73 26 c0 -1 0 -1 1 0 1 0 1 0 1 1 0 0 0 0
-1 0 -1 0 -1 0 -1 -1z M189 25 c-1 -2 -8 -3 -13 -3 -4 0 -4 -2 0 -2 1 0 3 1 4
1 0 1 2 1 4 1 1 0 5 1 7 2 2 1 3 2 2 2 -1 0 -2 -1 -4 -1z M102 18 c0 -1 0 -2
1 -2 0 1 0 2 -1 2 -1 1 -1 1 0 0z M126 15 c-2 -3 -1 -3 1 -1 1 1 2 2 1 2 0 1
-1 0 -2 -1z M104 5 c-2 -2 0 -5 2 -5 2 0 3 0 3 1 0 1 -1 1 -1 1 -1 0 -2 1 -2
2 0 2 -1 3 -2 1z M225 5 c0 -1 1 -1 2 -1 0 -1 1 -1 0 0 0 1 -2 1 -2 1z"/>
</g>
<g transform="translate(0.000000,256.000000) scale(1.000000,-1.000000)"
fill="#544d33" stroke="none">
<path d="M181 249 c0 -1 1 -1 2 -2 1 -1 1 -1 0 0 -1 2 -2 2 -2 2z M169 244
l-2 -2 2 2 c3 2 3 3 3 3 -1 0 -2 -1 -3 -3z M154 226 c-4 -5 -6 -8 -6 -8 0 0 3
2 6 5 6 7 8 10 8 10 0 0 -4 -3 -8 -7z M41 231 c0 0 2 0 2 0 1 1 0 1 -1 1 -1 0
-2 0 -1 -1z M36 229 c-1 -1 -1 -1 0 0 1 1 2 1 2 2 0 0 -1 0 -2 -2z M190 229
c0 -1 0 -1 1 0 0 1 0 1 0 2 -1 0 -1 -1 -1 -2z M56 226 c0 -1 1 -1 2 -2 1 -1 1
-1 0 0 -1 2 -2 2 -2 2z M192 220 c0 -1 0 -2 1 -1 0 0 0 2 0 2 -1 1 -1 0 -1 -1z
M66 217 c0 -1 2 -2 2 -2 0 0 -1 1 -1 2 -1 1 -3 2 -3 2 0 0 1 -1 2 -2z M127
218 c1 0 3 0 3 0 1 1 0 1 -1 1 -2 0 -3 0 -2 -1z M141 218 c1 -1 2 -1 3 -1 3 0
2 1 -1 1 -3 1 -3 1 -2 0z M121 217 c0 0 2 0 2 0 1 1 0 1 -1 1 -1 0 -2 0 -1 -1z
M98 216 l-6 -1 5 0 c3 0 6 0 7 1 0 1 0 1 0 1 0 0 -3 -1 -6 -1z M106 216 c1 0
3 0 3 0 1 1 0 1 -1 1 -2 0 -3 0 -2 -1z M193 207 c0 -5 1 -7 1 -5 0 3 0 7 0 10
0 2 -1 0 -1 -5z M31 211 c0 -3 0 -4 1 -3 0 2 0 4 0 5 -1 1 -1 0 -1 -2z M89
214 c1 0 1 0 2 0 0 1 -1 1 -2 1 -1 0 -1 0 0 -1z M78 211 c1 0 1 0 2 0 0 1 -1
1 -2 1 -1 0 -1 0 0 -1z M31 198 c0 -3 0 -3 1 -2 0 1 0 3 0 4 -1 1 -1 0 -1 -2z
M194 194 c0 -2 0 -3 1 -2 0 1 0 3 0 3 -1 1 -1 0 -1 -1z M32 192 c0 -3 3 -12 4
-12 1 0 1 1 0 2 0 1 -1 4 -2 7 -1 2 -2 4 -2 3z M51 191 c0 -1 0 -2 1 -1 0 0 0
2 0 2 -1 1 -1 0 -1 -1z M195 188 c0 -1 2 -4 7 -8 3 -3 6 -6 7 -6 0 1 -5 6 -9
9 -2 2 -4 4 -4 5 -1 2 -1 2 -1 0z M38 174 c-1 -3 0 -5 2 -5 1 0 1 0 0 2 0 1
-1 2 -1 3 -1 1 -1 1 -1 0z M185 171 c-1 0 -1 -1 -1 -1 0 -1 0 -1 1 0 0 0 2 1
4 1 l4 1 -4 0 c-2 0 -4 0 -4 -1z M198 170 c0 0 2 0 2 0 1 1 0 1 -1 1 -1 0 -2
0 -1 -1z M204 170 c3 0 4 -2 2 -5 -1 -1 -1 -1 1 0 2 2 1 5 -3 6 -2 0 -2 0 0
-1z M38 164 c0 -1 -1 -4 -1 -6 0 -6 -1 -9 -4 -12 -7 -7 -10 -18 -10 -35 0 -8
0 -11 1 -14 3 -5 3 -10 1 -11 -1 0 -1 -1 -1 -2 1 0 2 0 2 1 1 2 2 2 4 2 l3 -1
-2 3 c-8 8 -9 21 -5 41 1 5 2 7 9 17 2 2 3 5 3 10 1 5 1 8 3 9 1 1 1 1 0 1 -1
0 -2 -1 -3 -3z M155 165 c-1 0 0 -1 1 0 2 0 3 1 1 1 -1 0 -2 0 -2 -1z M211
164 c-1 -1 -1 -2 0 -2 0 0 0 1 1 2 1 1 1 2 0 2 0 0 -1 -1 -1 -2z M101 163 c1
0 1 0 2 0 0 1 -1 1 -2 1 -1 0 -1 0 0 -1z M150 162 c-1 -1 -2 -2 -1 -2 0 0 2 1
3 2 2 3 1 3 -2 0z M41 159 c0 -2 0 -3 1 -2 0 1 0 3 0 4 -1 1 -1 0 -1 -2z M201
161 c0 -1 0 -1 0 -2 1 0 1 1 1 1 1 2 0 3 -1 1z M207 161 c0 -1 1 -2 2 -3 8 -3
17 -16 19 -27 2 -8 2 -9 2 -6 0 6 -5 19 -10 26 -1 2 -5 4 -7 6 -3 2 -5 4 -4 4
0 1 0 1 -1 1 -1 0 -1 -1 -1 -1z M150 155 c-1 0 0 -1 1 -1 0 0 1 1 0 1 0 1 0 1
0 1 -1 0 -1 0 -1 -1z M201 155 c0 -1 -1 -1 -2 -2 -3 -1 -5 -8 -3 -11 1 -2 1
-3 -3 -6 -2 -2 -3 -3 -1 -2 4 3 9 10 10 16 0 3 0 5 0 6 -1 0 -1 0 -1 -1z M67
153 c-1 -1 -1 -1 1 0 1 1 2 1 2 2 0 0 -1 0 -3 -2z M68 150 c1 0 3 0 7 -1 3 0
5 0 5 1 -1 0 -3 0 -7 1 -3 0 -5 0 -5 -1z M80 146 c-1 -2 -1 -3 0 -1 1 1 1 2 1
3 -1 0 -1 -1 -1 -2z M48 145 c1 0 3 0 3 0 1 1 0 1 -1 1 -2 0 -3 0 -2 -1z M80
140 c0 -2 0 -4 0 -4 -1 0 -1 -1 0 -1 0 -1 1 -2 1 -2 1 0 2 1 1 3 -1 3 -1 3 3
-1 4 -5 11 -10 13 -10 1 0 0 1 -2 2 -6 3 -8 5 -12 11 -2 3 -3 5 -4 5 0 0 0 -2
0 -3z M170 137 c0 -1 1 -1 2 -2 1 -1 1 -1 0 0 -1 2 -2 2 -2 2z M177 132 c1 0
3 0 4 0 1 1 0 1 -2 1 -2 0 -3 0 -2 -1z M184 132 c0 0 2 0 2 0 1 1 0 1 -1 1 -1
0 -2 0 -1 -1z M121 130 c-1 -1 -1 -1 0 0 1 1 2 1 2 2 0 0 -1 0 -2 -2z M85 129
c-1 -1 1 -4 4 -7 1 -1 2 -1 2 0 3 2 2 3 0 3 -2 -1 -3 0 -3 0 0 2 -3 5 -3 4z
M146 129 c1 0 2 -1 3 -1 1 -1 1 -1 1 0 0 1 -1 2 -3 2 -1 0 -2 0 -1 -1z M141
126 l-2 -2 2 2 c3 2 3 3 3 3 -1 0 -2 -1 -3 -3z M166 127 c0 0 2 0 2 0 1 1 0 1
-1 1 -1 0 -2 0 -1 -1z M157 126 c1 0 3 0 3 0 1 1 0 1 -1 1 -2 0 -3 0 -2 -1z
M103 124 c2 0 4 0 5 0 1 1 0 1 -2 1 -3 0 -4 0 -3 -1z M138 121 c0 -1 0 -2 1
-1 0 0 0 2 0 2 -1 1 -1 0 -1 -1z M230 118 c0 -2 0 -6 0 -8 -1 -4 -1 -4 0 -1 0
1 1 3 1 4 1 0 0 3 0 5 l-1 5 0 -5z M228 103 c0 0 0 -1 1 -1 1 -1 1 0 0 0 0 2
-1 2 -1 1z M144 93 c-1 -3 -9 -8 -15 -9 l-4 -1 3 0 c5 0 16 5 17 8 0 1 1 2 1
1 0 0 1 0 2 1 0 1 0 1 -1 0 -1 0 -1 0 -1 1 1 1 1 2 0 2 0 0 -1 -1 -2 -3z M231
90 c0 -1 0 -1 1 0 0 1 0 1 0 2 -1 0 -1 -1 -1 -2z M106 89 c0 -2 1 -3 2 -4 2
-3 10 -6 12 -6 1 0 1 0 -1 1 -4 1 -11 5 -11 7 -2 3 2 4 5 2 1 -1 1 -1 0 0 -1
1 -3 2 -4 2 -2 0 -3 0 -3 -2z M219 85 c0 -1 0 -2 1 -1 0 0 0 2 0 2 -1 1 -1 0
-1 -1z M161 84 c0 0 0 -1 -1 -1 0 0 -1 0 -2 0 -1 -1 -3 -1 -3 0 -2 1 -7 1 -7
0 0 0 -2 -1 -4 -1 -2 1 -5 0 -6 0 -2 -1 -6 -2 -9 -2 -5 -1 -5 -1 2 0 4 0 11 0
15 0 4 1 7 1 8 1 0 1 1 1 1 0 1 -1 6 0 6 2 1 1 1 2 1 2 -1 0 -1 0 -1 -1z M21
80 c-1 0 -1 -1 0 -1 0 -1 1 0 1 1 1 1 -1 2 -1 0z M218 78 c0 -1 0 -1 1 -1 0 0
1 0 1 1 1 0 0 1 -1 1 0 0 -1 -1 -1 -1z M236 75 c0 -1 0 -1 1 0 0 1 0 1 0 2 -1
0 -1 -1 -1 -2z M106 75 c0 -2 2 -3 3 -2 1 0 0 1 -1 2 -2 1 -2 1 -2 0z M126 68
c0 -1 -1 -1 -2 -1 -4 0 -8 -7 -4 -7 3 0 5 -1 5 -3 0 -5 8 -2 13 4 1 2 3 4 4 5
2 0 3 2 1 2 -4 1 -16 0 -17 0z m13 -3 c0 0 -1 -1 -2 -2 -1 0 -3 -1 -5 -3 -3
-3 -4 -3 -4 2 1 4 2 5 7 5 4 0 5 -1 4 -2z M14 61 c0 -3 0 -5 1 -5 0 -1 1 1 0
4 0 7 -1 7 -1 1z M220 62 c-2 -2 -4 -4 -5 -5 -2 -2 -2 -2 -1 -2 3 0 7 2 10 6
3 3 3 3 1 3 -1 0 -3 -1 -5 -2z m3 -2 c-1 -1 -2 -1 -2 -1 -1 0 -1 0 0 1 0 1 1
1 1 1 1 0 1 0 1 -1z M19 56 c-1 -1 -2 -2 -3 -2 -1 0 0 -1 2 -2 2 -2 2 -3 1 -4
-1 -1 -1 -2 0 -3 1 -1 3 -4 4 -7 2 -3 3 -4 4 -4 2 0 2 -1 2 -2 -1 0 0 -2 1 -2
3 -2 3 -3 -1 -7 -2 -3 -2 -3 1 0 2 2 4 4 4 4 0 1 -1 3 -3 6 -2 2 -5 6 -6 9 -1
2 -3 4 -3 3 -1 0 -1 0 -1 0 0 0 0 3 -1 6 0 6 0 7 -1 5z M241 52 c0 -2 0 -3 1
-2 0 1 0 3 0 4 -1 1 -1 0 -1 -2z M240 45 c-1 -4 -1 -6 1 -6 1 -1 1 -1 0 0 -1
1 -1 3 0 5 1 4 1 5 -1 1z M189 41 c-3 -2 -8 -4 -9 -4 -2 -1 -3 -2 -4 -2 -4 -4
-10 -6 -10 -4 0 1 3 5 5 5 1 0 5 4 5 5 -1 0 -5 -1 -5 -2 0 -1 -1 -1 -2 -1 -1
0 -3 -1 -4 -2 -2 -1 -3 -2 -4 -2 -1 0 -4 -2 -7 -3 -3 -2 -6 -4 -6 -4 -1 0 -2
-1 -3 -1 -1 -1 -4 -3 -7 -5 -8 -4 -27 -20 -24 -21 0 0 2 2 5 4 3 3 10 9 15 12
1 1 4 3 5 4 2 1 3 2 3 2 2 0 0 -2 -4 -7 -3 -3 -5 -5 -5 -6 1 -1 0 -2 0 -2 -2
0 -3 -3 -2 -5 0 -2 0 -2 1 0 2 1 2 1 3 -1 1 -1 1 -1 1 1 0 2 1 3 2 4 7 2 11 3
19 3 20 0 42 6 63 18 11 7 13 6 4 -2 -8 -7 -20 -14 -27 -17 -4 -1 -8 -3 -10
-4 -3 -1 -6 -2 -7 -3 -2 -1 -1 -1 7 -1 9 0 10 0 12 3 1 2 7 7 14 12 14 11 20
16 20 19 0 2 0 2 -4 1 -2 0 -4 -1 -4 -1 0 0 -2 -2 -5 -4 -7 -6 -18 -11 -31
-15 -11 -3 -14 -3 -27 -4 -9 0 -14 0 -14 1 0 1 7 6 12 8 9 4 29 14 33 18 6 5
5 7 -4 3z m-25 -13 c0 -1 -1 -1 -2 -1 0 0 -1 0 0 1 0 1 1 1 1 1 1 0 1 0 1 -1z
m-6 -2 c-1 -1 -2 -2 -2 -1 0 0 1 1 2 1 1 1 2 2 2 1 0 0 -1 -1 -2 -1z m-16 -13
c0 -1 0 -1 -1 -1 -1 -1 -1 -1 -1 0 0 1 0 1 1 1 1 0 1 0 1 0z M216 37 c-2 -1
-4 -2 -4 -1 -1 0 -2 0 -3 -1 -1 0 -4 -1 -8 -1 -3 0 -7 -1 -9 -2 -2 0 -4 -1 -4
0 0 0 -1 -1 -3 -2 -4 -2 -11 -6 -13 -6 0 0 -2 -1 -2 -2 -2 -2 -2 -2 0 -2 1 0
2 0 2 1 1 0 2 1 4 1 5 0 12 1 13 3 2 0 4 1 5 1 2 0 3 1 4 1 1 1 3 2 5 3 2 0 5
1 8 2 2 1 5 2 6 2 3 0 5 2 5 3 0 1 -1 1 -6 0z M60 34 c0 0 0 -1 1 -1 1 -1 1 0
0 0 0 2 -1 2 -1 1z M65 31 c0 -1 0 -1 1 -1 0 1 2 0 3 -2 2 -2 4 -3 5 -4 1 0 3
0 3 0 1 0 1 -1 1 -2 -1 0 0 -1 0 -1 1 -1 3 -1 6 -2 7 -2 13 2 8 6 -1 1 -2 2
-2 1 -1 -1 -1 -2 1 -2 1 0 1 -1 -1 -3 -1 -1 -3 -2 -3 -2 -1 0 -1 0 0 1 1 0 1
6 0 8 -1 1 -1 1 -1 -1 0 -1 0 -3 0 -4 0 -2 0 -2 -4 0 -3 1 -4 2 -1 1 0 0 1 0
1 1 0 1 0 2 1 2 1 -1 1 -1 1 0 0 1 -1 2 -2 2 -2 0 -3 -1 -2 -2 0 -1 -1 -1 -2
-1 -1 0 -2 0 -2 1 0 1 0 1 -1 1 -1 0 -1 0 -1 -1 1 0 1 -1 0 -1 0 -1 -1 0 -1 1
-1 3 -8 7 -8 4z M96 22 c1 -2 0 -3 -2 -3 -1 0 -2 0 -2 -1 0 -1 1 -1 1 -1 2 0
4 -4 3 -5 -1 0 0 -2 0 -4 2 -3 2 -3 -1 -3 -1 0 -5 1 -9 2 -9 3 -15 4 -15 3 0
-1 7 -5 9 -5 1 0 4 -1 8 -3 3 -1 5 -2 6 -2 0 1 -2 2 -5 3 -2 1 -4 2 -4 3 1 0
13 -4 14 -5 1 -1 2 -1 3 -1 2 0 2 0 1 3 -1 1 -1 4 -1 5 0 1 0 2 -1 2 -1 0 -1
1 -1 2 0 1 1 2 2 3 2 0 3 1 3 1 -1 0 1 1 3 1 5 0 8 1 8 2 0 1 -5 2 -11 2 -3 0
-5 0 -6 1 -3 3 -4 2 -3 0z m7 -6 c-1 0 -1 1 -1 2 -1 1 -1 1 0 0 1 0 1 -1 1 -2z
M19 11 c-1 -4 -3 -6 -3 -3 -1 3 -5 3 -11 -1 -3 -2 -5 -4 -4 -4 0 0 1 0 2 1 3
3 8 5 10 5 0 -1 1 -2 1 -5 0 -3 0 -4 1 -4 1 0 6 12 6 13 -1 0 -1 -1 -2 -2z
M225 2 c-1 -2 0 -2 1 -2 1 0 2 1 2 2 -1 2 -3 2 -3 0z"/>
</g>
<g transform="translate(0.000000,256.000000) scale(1.000000,-1.000000)"
fill="#c7b999" stroke="none">
<path d="M176 239 c-2 -2 -10 -13 -10 -15 0 0 0 -1 1 -1 1 0 1 0 1 1 -1 1 -1
1 0 1 0 0 1 2 2 4 1 2 3 4 4 5 1 1 2 2 2 2 -1 0 0 1 1 2 3 2 1 3 -1 1z M182
237 c0 -1 0 -1 1 -1 1 0 1 -1 1 -2 0 -1 0 -2 1 -3 1 -1 1 -1 -1 -1 -1 0 -2 1
-2 1 0 1 -1 2 -2 2 -1 1 -3 0 -3 -3 0 0 -1 -2 -2 -3 -2 -1 -3 -3 -3 -4 0 0 -1
-1 -2 -2 -1 -1 -1 -2 -1 -5 1 -2 0 -3 -1 -4 -1 -1 -1 -3 1 -2 1 0 2 2 4 5 1 3
3 6 4 6 0 1 1 2 1 3 0 0 1 1 2 1 1 0 2 -1 3 -5 0 -2 0 -5 -1 -7 -1 -4 -1 -15
0 -16 1 0 2 0 2 1 1 1 1 1 0 1 -1 -1 -1 0 -1 1 0 2 0 3 1 3 1 0 1 2 1 16 0 5
1 9 1 9 0 0 1 -2 2 -4 3 -10 2 -25 -1 -25 -1 0 -1 0 1 -2 1 0 2 -2 1 -2 0 -1
0 -1 1 -1 1 0 1 20 0 26 -1 8 -5 17 -7 17 0 1 -1 1 -1 0z M47 219 c-1 0 -2 0
-4 0 -3 -1 -3 -1 -5 -5 -5 -14 0 -32 8 -32 2 0 3 1 3 2 0 1 0 1 -5 10 -2 6 -2
6 -2 18 1 4 3 6 5 5 1 -1 1 -1 1 1 0 2 0 2 -1 1z m-7 -20 c0 -2 1 -3 1 -4 2
-2 6 -11 6 -12 -1 0 -4 2 -6 5 -2 2 -4 13 -3 16 0 1 0 1 1 0 0 -2 1 -4 1 -5z
M163 217 c0 -2 0 -3 0 -3 1 0 1 1 1 3 0 2 0 3 0 3 -1 0 -1 -1 -1 -3z M49 217
c1 -1 2 -3 4 -5 4 -2 5 -5 3 -5 -3 1 -2 -3 2 -7 2 -2 4 -4 4 -4 1 0 2 3 3 7 1
2 0 3 -3 7 -3 3 -5 5 -6 5 0 -1 -1 0 -2 1 0 1 -2 2 -3 2 -2 1 -2 0 -2 -1z m13
-11 c-1 0 -1 0 -2 0 -1 1 -1 1 0 1 1 0 2 0 2 -1z m2 -4 c0 -2 0 -2 -1 -1 0 1
-1 2 -1 3 -1 1 -1 1 0 0 1 0 2 -1 2 -2z M191 191 c-1 -2 0 -3 0 -3 1 0 1 1 1
3 0 1 0 2 0 2 -1 0 -1 -1 -1 -2z M186 180 c-1 0 0 -1 0 -2 1 -1 2 -1 2 1 1 2
-1 3 -2 1z M99 179 c-1 -1 -1 -2 -1 -2 0 -1 1 0 2 1 3 2 2 3 -1 1z M175 178
c0 -1 1 -1 2 -1 0 1 -1 1 -2 1 -1 1 -1 1 0 0z M180 177 c0 0 -1 -1 -3 -1 -1 0
-2 0 -2 -1 2 -2 -2 -3 -10 -3 -7 1 -8 0 -10 -1 -3 -3 -5 -4 -7 -3 -2 1 -2 1
-1 -1 2 -2 6 -1 9 2 1 2 2 2 5 1 2 0 5 -1 5 -2 1 -1 2 -2 5 -2 5 0 9 2 9 6 1
2 2 2 6 2 2 0 4 0 4 1 0 1 -2 1 -4 1 -3 0 -5 1 -5 1 -1 1 -1 1 -1 0z M46 175
c-1 -2 -1 -3 2 -3 2 0 3 1 3 3 0 2 -4 3 -5 0z M192 176 c-1 -2 1 -2 8 -2 5 0
4 2 -2 2 -3 1 -5 1 -6 0z M99 175 c0 -1 4 -8 5 -9 1 -1 3 -1 4 -1 2 0 3 0 3
-1 -1 -1 2 -3 5 -3 2 0 3 1 3 1 0 2 2 3 6 3 2 0 2 0 1 2 -1 0 -2 1 -2 0 0 0
-5 -1 -10 0 -8 0 -10 1 -11 2 0 2 -4 7 -4 6z M206 156 c-1 0 -1 -2 -1 -4 l-1
-3 1 3 c1 1 1 3 2 3 0 0 2 -2 6 -6 4 -4 5 -7 7 -12 1 -4 3 -8 3 -9 2 -7 -2
-23 -7 -28 -2 -2 -5 -6 -7 -11 -5 -7 -8 -11 -10 -12 -2 -1 -4 -4 -5 -6 -1 -2
-2 -3 -2 -3 0 1 -13 -8 -17 -12 0 -1 -3 -2 -5 -2 -2 -1 -4 -2 -5 -3 -1 -1 -4
-1 -7 -1 -6 -1 -6 0 -3 10 2 6 3 7 15 20 3 3 8 6 11 7 5 2 7 5 6 8 -1 3 -3 2
-7 -1 -4 -3 -4 -2 -6 4 -1 3 -2 6 -2 8 -1 2 -1 3 -1 6 1 1 2 4 2 6 2 5 0 10
-6 15 l-4 3 -8 -1 c-4 0 -9 -2 -12 -3 -9 -5 -7 -1 2 4 2 1 3 2 2 2 -3 0 -10
-5 -15 -10 -3 -4 -3 -4 -2 -8 2 -5 5 -5 5 0 0 3 1 4 4 7 5 4 8 6 16 6 8 1 13
0 16 -5 2 -3 2 -12 -1 -18 -2 -2 2 -14 5 -18 3 -4 1 -6 -4 -9 -2 -1 -4 -2 -5
-3 0 -1 -3 -5 -7 -9 -7 -8 -9 -11 -13 -18 -1 -3 -3 -5 -3 -5 -1 0 -1 -1 -1 -3
0 -2 -1 -4 -1 -5 -1 -1 -1 -2 0 -4 1 -2 1 -2 3 0 1 1 1 1 2 0 1 -2 3 -1 8 4 3
3 5 5 6 5 0 0 3 2 6 4 3 1 6 3 6 3 0 0 3 2 6 4 3 3 6 5 7 5 1 0 6 5 6 7 0 0 0
0 1 -1 1 -1 1 -1 1 1 1 1 4 5 8 9 3 4 7 10 9 12 1 2 4 6 5 8 5 5 7 8 7 11 0 2
1 4 2 5 3 3 3 8 -1 22 0 2 -2 5 -2 7 -1 1 -2 3 -2 4 0 1 -9 9 -11 10 -1 1 -2
1 -2 0z m-51 -109 c1 0 1 0 1 -1 0 0 -1 -1 -1 -1 -2 -1 -2 0 -2 1 0 2 0 2 1 1
0 0 1 -1 1 0z M203 146 c0 -1 0 -1 1 0 0 1 0 1 0 2 -1 0 -1 -1 -1 -2z M199
139 c-1 -2 -4 -5 -6 -6 -1 -1 -3 -4 -4 -5 -1 -2 -2 -3 -5 -4 -4 0 -4 0 -9 5
-3 3 -7 7 -9 8 -4 2 -11 3 -14 1 -2 -1 -1 -1 2 0 8 1 16 -4 22 -13 2 -2 3 -3
8 -3 6 -1 8 0 8 6 0 2 1 3 2 4 2 1 8 9 8 9 0 1 -2 -1 -3 -2z M65 125 c-2 -1
-3 -2 -3 -4 0 -2 1 -4 2 -5 0 -2 1 -3 1 -4 0 -2 2 -3 5 -4 2 -1 2 -1 1 0 0 2
0 2 1 1 2 0 3 -4 2 -5 -1 -1 -1 -1 -1 -2 1 0 2 0 2 1 1 0 2 1 2 1 2 0 1 -4 0
-4 -1 -1 -1 -1 0 -1 3 -2 5 1 5 5 -1 2 -1 2 -2 1 -1 -1 -1 -1 -1 1 -1 1 -2 2
-2 2 -1 0 -1 1 -1 2 1 2 1 2 0 1 -1 -2 -2 -1 -2 7 -1 6 -2 9 -4 9 -1 0 -3 -1
-5 -2z M135 115 c0 -1 -1 -1 -1 -1 0 1 -3 -2 -3 -3 0 0 1 -1 3 -1 4 -1 5 1 3
4 0 2 -1 2 -2 1z M188 98 c0 -2 1 -2 2 -2 1 0 2 1 2 2 0 1 -1 2 -2 2 -1 0 -2
0 -2 -2z M233 93 c0 -5 0 -6 -4 -10 -2 -3 -4 -5 -4 -6 0 0 1 -2 2 -3 3 -3 6
-3 6 0 0 1 1 3 2 5 1 5 1 12 -1 15 -1 1 -1 1 -1 -1z M232 69 c-1 -4 -3 -8 -6
-12 -6 -7 -8 -12 -4 -12 1 0 2 0 2 1 1 0 4 1 7 0 4 0 7 1 7 1 2 3 1 11 -1 17
-2 6 -4 8 -5 5z M238 35 c0 -1 0 -2 -1 -2 0 0 -1 -1 -2 -3 -1 -4 -1 -5 0 -5 1
0 1 1 1 1 0 1 1 2 1 2 1 1 2 2 1 3 0 3 1 3 6 -1 6 -4 7 -6 2 -6 l-3 1 3 -6 c1
-3 3 -5 3 -5 1 0 1 1 2 2 0 3 1 3 4 3 1 0 1 1 1 3 0 3 0 4 -3 5 -2 1 -4 2 -5
3 -3 3 -9 7 -9 7 -1 0 -1 -1 -1 -2z"/>
</g>
<g transform="translate(0.000000,256.000000) scale(1.000000,-1.000000)"
fill="#655a4b" stroke="none">
<path d="M191 222 c0 -1 0 -1 1 0 0 1 0 1 0 2 -1 0 -1 -1 -1 -2z M133 218 c1
0 3 0 4 0 1 1 0 1 -2 1 -3 0 -3 0 -2 -1z M111 216 c1 0 3 0 4 0 1 1 0 1 -2 1
-2 0 -3 0 -2 -1z M119 216 c0 0 2 0 2 0 1 1 0 1 -1 1 -1 0 -2 0 -1 -1z M192
215 c0 -1 0 -1 1 0 0 1 0 1 0 2 -1 0 -1 -1 -1 -2z M104 215 c0 0 2 0 2 0 1 1
0 1 -1 1 -1 0 -2 0 -1 -1z M192 202 c0 -1 0 -2 1 -1 0 0 0 2 0 2 -1 1 -1 0 -1
-1z M204 178 c0 -1 1 -1 2 -2 1 -1 1 -1 0 0 -1 2 -2 2 -2 2z M209 172 c2 -3 1
-7 -1 -9 -1 -1 -2 -2 -2 -3 1 -1 1 -1 1 0 0 1 1 2 2 2 2 0 3 5 2 8 -1 2 -2 3
-2 4 -1 0 -1 -1 0 -2z M181 168 c-2 -2 -4 -4 -6 -5 -2 0 -12 2 -12 3 0 1 -3 2
-5 1 -2 0 -2 -1 1 -2 2 0 6 -2 10 -3 l7 -1 4 3 c2 3 4 5 4 6 1 1 1 2 1 2 0 0
-2 -2 -4 -4z M195 171 c1 0 1 0 2 0 0 1 -1 1 -2 1 -1 0 -1 0 0 -1z M201 171
c1 0 1 0 2 0 0 1 -1 1 -2 1 -1 0 -1 0 0 -1z M207 169 c1 -2 1 -2 -2 -5 -2 -2
-3 -4 -3 -5 0 -1 0 -1 1 1 0 1 2 3 3 4 3 2 4 4 1 6 -1 1 -1 1 0 -1z M39 163
c-1 -1 -1 -4 -1 -6 0 -4 0 -4 2 -3 1 3 2 10 0 10 0 1 -1 0 -1 -1z m1 -6 c-1
-1 -1 0 -1 2 0 1 0 2 1 1 0 0 0 -2 0 -3z M106 161 c5 -4 9 -4 14 -3 2 1 5 1 5
1 1 -1 2 0 3 1 2 1 2 1 -1 1 -2 0 -5 -1 -7 -2 -5 -1 -10 0 -13 3 -1 1 -2 2 -3
2 -1 0 0 -1 2 -3z M217 152 c2 -2 4 -4 4 -4 0 0 -1 2 -3 4 -2 1 -4 3 -4 3 0 0
1 -2 3 -3z M36 148 c-1 -1 0 -1 0 0 2 0 2 1 1 1 0 0 -1 0 -1 -1z M78 148 c0
-1 0 -1 1 -1 1 0 1 0 1 1 0 1 0 1 -1 1 -1 0 -1 0 -1 -1z M201 147 c0 -1 0 -1
1 0 0 1 0 1 0 2 -1 0 -1 -1 -1 -2z M198 140 c-1 -1 -1 -1 0 0 1 1 2 1 2 2 0 0
-1 0 -2 -2z M225 139 c1 -1 1 -2 2 -2 0 0 0 1 -1 2 -1 1 -1 2 -2 2 0 0 0 -1 1
-2z M195 136 c-1 -1 -1 -1 0 0 1 1 2 1 2 2 0 0 -1 0 -2 -2z M83 132 c-1 -2 -1
-2 0 -2 1 1 3 0 4 -2 2 -2 3 -3 6 -3 l4 0 -3 2 c-1 1 -4 3 -6 5 l-4 3 -1 -3z
M174 133 c2 -1 4 -2 7 -2 l6 0 -6 1 c-3 0 -6 1 -7 1 -1 1 -1 0 0 0z M80 130
c-1 -1 -1 -2 1 -7 1 -4 5 -7 11 -7 7 0 14 7 8 8 -3 1 -4 -1 0 -2 l2 0 -2 -2
c-3 -2 -11 -2 -14 0 -1 1 -2 2 -1 2 1 1 2 0 2 0 1 -1 1 -1 1 0 0 1 -1 1 -1 1
-1 -1 -4 2 -6 5 0 2 -1 3 -1 2z M148 130 c1 0 2 -1 2 -2 0 0 0 -1 1 -1 0 0 1
1 0 2 0 1 -1 2 -3 2 -2 0 -2 0 0 -1z M166 129 c-1 0 -3 -1 -5 -1 -4 -1 -3 -1
2 0 4 0 6 0 6 -1 1 -1 1 -1 1 0 0 1 -3 3 -4 2z M83 127 c0 0 0 -1 1 -1 1 -1 1
0 0 0 0 2 -1 2 -1 1z M140 126 c-1 -1 -1 -1 0 0 1 1 2 1 2 2 0 0 -1 0 -2 -2z
M154 126 c1 0 1 0 2 0 0 1 -1 1 -2 1 -1 0 -1 0 0 -1z M111 124 c1 0 1 0 2 0 0
1 -1 1 -2 1 -1 0 -1 0 0 -1z M104 123 c0 -1 1 -1 4 0 1 1 1 1 -1 1 -2 0 -3 0
-3 -1z M171 121 c0 -1 0 -2 1 -1 0 0 0 2 0 2 -1 1 -1 0 -1 -1z M229 120 c0 -2
0 -3 1 -2 0 1 0 3 0 3 -1 1 -1 0 -1 -1z M117 117 c0 -4 2 -4 3 0 0 1 0 2 -1 2
0 -1 -1 0 -1 0 -1 1 -1 0 -1 -2z M138 118 c0 0 1 -2 2 -3 1 -2 3 -5 4 -7 l2
-4 -3 -6 c-2 -6 -3 -7 -8 -11 -4 -3 -10 -3 -15 0 -3 2 -3 2 -1 3 1 0 3 0 4 -1
2 -1 5 -1 5 0 0 1 -1 1 -1 1 -1 0 -2 1 -3 2 -7 7 -6 6 -6 14 0 8 -2 8 -5 2 -2
-5 -2 -7 -1 -9 1 0 1 -2 1 -3 1 -1 2 -2 3 -2 3 0 3 -2 0 -2 -1 -1 -2 0 -2 1 0
1 -1 1 -2 1 -1 -1 -2 0 -4 0 -2 2 -7 3 -7 1 0 0 1 -1 1 -3 2 -2 3 -8 2 -8 -1
0 -7 7 -7 9 0 0 -1 1 -2 1 -2 0 -2 -1 0 -10 0 -2 0 -4 0 -3 -1 0 -1 0 -1 -1 0
-1 0 -1 1 -1 0 0 1 -1 0 -2 0 -1 0 -2 1 -1 1 2 4 -2 4 -5 -1 -1 -1 -2 0 -2 1
1 1 0 1 -3 0 -1 0 -1 -1 0 0 1 -1 2 -2 3 -1 1 -1 1 -2 0 0 -1 2 -4 4 -6 2 -3
4 -4 4 -3 0 0 -1 1 -1 2 -1 1 -1 1 0 1 1 0 2 -2 2 -4 0 -1 1 -2 1 -1 0 1 0 2
1 2 1 0 1 1 1 1 -1 1 0 2 2 1 2 0 7 3 5 5 0 0 0 0 1 0 0 -1 1 0 2 0 0 2 1 2 2
1 0 -1 1 -1 1 0 1 1 1 1 0 1 0 0 1 1 2 2 1 0 2 1 1 1 -2 0 -4 1 -9 3 -1 1 -3
1 -3 1 -1 0 -1 0 -1 1 0 0 -1 1 -2 1 -1 1 -2 2 -3 3 -1 2 -1 2 1 1 1 0 3 -1 3
-1 2 -3 9 -4 25 -3 23 0 26 1 28 4 2 2 3 3 6 3 3 0 3 0 2 1 -3 2 -9 -1 -10 -3
0 -1 -1 -2 -2 -2 -1 0 -6 0 -11 0 -6 -1 -13 -1 -15 -1 -10 -2 -13 -2 -18 1 -7
3 -9 5 -9 8 0 4 2 4 6 1 9 -7 18 -8 26 -3 5 3 6 4 7 8 1 2 2 5 3 7 1 2 1 2 -2
6 -7 10 -8 11 -8 10z m-40 -30 c0 -1 2 -3 4 -5 2 -3 4 -5 3 -5 0 -1 1 -1 2 -2
1 -1 2 -1 2 0 0 0 1 -1 3 -1 1 -1 2 -2 2 -1 0 0 1 -1 3 -2 l3 -1 -2 -1 c-3 -1
-3 -1 -8 0 -2 1 -4 1 -3 2 0 1 -2 1 -3 0 -1 -1 -1 0 -2 2 -1 4 -1 6 -2 4 -1
-2 -2 -1 -2 3 0 1 0 3 -1 3 0 0 -1 2 -2 4 -1 3 1 4 3 0z M169 117 c0 -1 0 -3
0 -4 0 -1 1 0 1 2 1 3 0 4 -1 2z M24 113 c0 -1 0 -1 1 -1 1 0 1 0 1 1 0 1 0 1
-1 1 -1 0 -1 0 -1 -1z M166 105 c1 -8 2 -12 4 -14 2 -1 3 -3 3 -4 1 -1 1 -1 1
1 0 1 -1 2 -2 3 -1 0 -2 2 -2 4 0 1 -1 5 -2 8 -2 5 -2 5 -2 2z M231 100 c1 -2
3 -3 4 -3 1 0 -3 3 -5 4 -2 1 -1 0 1 -1z M229 96 c0 -1 2 -2 2 -2 0 0 -1 1 -1
2 -1 1 -3 2 -3 2 0 0 1 -1 2 -2z M237 91 c0 -1 0 -1 1 0 0 1 0 1 0 2 -1 0 -1
-1 -1 -2z M227 83 l-3 -3 3 3 c2 2 4 4 4 4 0 0 -1 0 -4 -4z M236 80 c-1 -8 -1
-10 1 -3 0 3 1 6 1 7 0 1 -1 -1 -2 -4z M17 69 c-3 -5 -2 -16 0 -15 1 1 2 4 2
9 0 5 -1 9 -1 9 0 0 -1 -1 -1 -3z m0 -8 c-1 -1 -1 0 -1 1 0 1 0 2 1 1 0 0 0
-2 0 -2z M128 70 c2 -1 3 -1 3 0 0 1 -1 1 -3 1 -2 0 -2 0 0 -1z M145 70 c-1
-1 0 -1 1 -1 0 0 1 0 1 1 -1 1 -1 1 -1 1 -1 0 -1 0 -1 -1z M148 70 c1 -1 0 -2
-1 -3 -1 -2 -1 -2 1 0 2 2 2 2 1 3 -1 1 -1 1 -1 0z M237 69 c0 -1 0 -2 1 -3 1
-1 1 -1 1 0 0 0 0 1 -1 2 -1 1 -1 1 -1 1z M226 65 c-2 -1 -2 -1 0 -1 1 0 2 0
2 1 0 1 0 1 0 1 0 0 -1 -1 -2 -1z M225 61 c-1 -1 -1 -1 0 0 2 1 2 2 2 2 -1 0
-1 -1 -2 -2z M108 57 c-1 -1 -2 -2 -1 -2 1 0 2 -1 2 -1 1 -1 0 -2 0 -2 -1 0
-1 0 0 -1 0 -1 2 -1 3 -1 2 0 4 -1 6 -2 1 -1 2 -2 3 -2 1 1 2 1 2 0 -1 0 0 -1
0 -2 2 -2 2 -2 4 0 0 1 2 2 3 2 1 0 4 4 4 5 0 0 -2 0 -3 -1 -2 -1 -3 -2 -3 -2
1 -1 0 -1 -1 -1 -2 0 -3 1 -3 1 0 3 -3 4 -7 4 -2 -1 -3 -1 -2 0 1 0 2 4 0 4 0
0 -1 -1 -2 -2 -2 -2 -2 -2 -3 0 -1 2 -1 2 0 2 1 0 2 1 2 1 0 3 -1 3 -4 0z
M113 59 c0 -1 2 -2 3 -2 2 0 2 0 1 1 -2 0 -3 1 -3 1 -1 1 -1 1 -1 0z M240 58
c0 -1 0 -2 1 -1 0 0 0 2 0 2 -1 1 -1 0 -1 -1z M212 56 c-1 -1 -2 -3 -2 -3 0
-1 0 -1 -1 -1 0 1 -1 1 -1 0 -1 -1 0 -1 1 -1 2 0 7 4 5 4 -1 0 -1 0 0 2 2 2 1
1 -2 -1z M119 55 c-1 -1 0 -1 1 -1 1 0 2 0 2 1 -1 1 -2 1 -2 1 0 0 -1 0 -1 -1z
M136 55 c0 -1 0 -1 1 0 1 0 1 0 1 1 0 0 0 0 -1 0 -1 0 -1 0 -1 -1z M240 47 c0
-1 0 -1 1 0 0 1 0 1 0 2 -1 0 -1 -1 -1 -2z M181 45 c0 -1 -2 -2 -3 -2 -1 0 -2
-1 -2 -1 0 -2 -3 -6 -5 -6 -2 0 -5 -4 -5 -5 0 -3 7 1 10 4 1 1 3 2 4 2 3 0 13
5 13 6 -1 0 -3 -1 -5 -2 -5 -2 -7 -3 -5 -1 0 1 0 3 0 4 0 3 -1 3 -2 1z M197
43 c0 0 -1 -2 -2 -3 -1 -2 0 -1 1 0 2 2 3 4 2 4 0 2 -2 1 -1 -1z M239 43 c-1
0 -1 -2 -1 -3 0 -1 1 0 1 1 1 4 1 5 0 2z M226 40 c-2 0 -2 0 -1 -1 2 -2 -3 -5
-8 -6 -3 0 -6 -1 -7 -2 -2 0 -4 -1 -5 -1 -2 0 -4 -1 -5 -3 -2 -1 -3 -2 -1 -1
3 2 20 7 21 7 0 -1 -1 -2 -3 -4 -2 -2 -3 -3 -3 -3 1 0 4 3 11 8 0 1 2 1 3 1 1
0 2 1 3 1 1 1 1 1 2 -1 1 -2 1 -2 1 0 1 1 0 2 -1 3 0 1 -1 1 -1 0 0 0 -1 0 -1
1 -1 2 -2 2 -5 1z M215 37 c-3 0 -4 -1 -2 -1 1 0 3 1 6 1 2 1 3 2 2 2 -2 0 -4
-1 -6 -2z M240 39 c0 -1 4 -3 8 -6 5 -4 6 -4 2 -1 -3 3 -12 9 -10 7z M190 36
c-1 -1 -7 -5 -15 -9 -13 -6 -14 -7 -11 -7 5 -1 15 -1 13 0 -1 0 -3 1 -5 0 -4
0 -4 0 -3 2 1 1 2 2 3 2 2 0 9 3 13 6 2 1 3 2 3 2 0 -1 2 0 4 0 2 1 6 2 9 2 4
0 7 0 8 1 1 1 -1 1 -14 0 -3 -1 -4 0 -3 1 0 1 0 1 -2 0z M28 33 c0 0 0 -1 1
-1 1 -1 1 0 0 0 0 2 -1 2 -1 1z M23 23 c-5 -3 -12 -8 -16 -11 -4 -3 -7 -5 -7
-6 0 -3 0 -3 5 1 6 4 10 4 11 1 0 -3 2 -2 3 2 1 2 4 7 7 10 5 5 7 9 5 9 0 0
-4 -3 -8 -6z m6 1 c0 0 -3 -3 -7 -6 -5 -5 -11 -8 -13 -7 0 1 17 14 19 14 1 0
1 0 1 -1z M162 28 c-1 -1 0 -1 0 -1 1 0 2 0 2 1 0 1 0 1 -1 1 0 0 -1 0 -1 -1z
M229 27 c-1 -1 -1 -1 0 0 2 1 2 2 2 2 -1 0 -1 -1 -2 -2z M158 26 c-1 0 -2 -1
-2 -1 0 -1 1 0 2 1 1 0 2 1 2 1 0 1 -1 0 -2 -1z M191 24 c-2 -1 -3 -1 -3 -2 1
0 8 3 8 3 0 1 -1 1 -5 -1z M224 23 c-1 -1 -1 -1 0 0 2 1 2 2 2 2 -1 0 -1 -1
-2 -2z M180 21 c-1 0 0 0 2 0 2 0 3 0 3 1 0 0 -5 0 -5 -1z M214 16 c-10 -8
-17 -14 -17 -15 0 -1 1 -1 3 -1 1 0 2 0 2 1 0 0 1 2 3 4 2 2 3 4 3 4 0 1 3 3
7 6 4 3 7 6 6 6 0 0 -3 -2 -7 -5z M153 16 c-3 -1 -5 -3 -5 -4 0 -1 3 -1 6 -1
5 0 6 0 3 1 -5 1 -5 2 0 5 2 2 3 3 2 3 0 0 -3 -2 -6 -4z M124 18 c-1 -1 -3 -2
-3 -1 -1 0 -2 0 -3 -1 -2 0 -3 -1 -6 -1 -1 -1 -3 -1 -3 -2 -1 0 -2 -1 -3 0 -1
0 -1 0 0 -1 1 -1 1 -4 -2 -3 -1 0 -2 -1 -2 -3 0 -2 0 -2 1 -1 2 2 3 1 3 -1 0
-1 1 -2 2 -2 0 0 1 0 1 -1 0 -2 3 0 10 7 5 4 8 8 8 8 0 1 1 1 1 0 1 0 1 0 1 1
-1 2 -3 2 -5 1z m1 -3 c0 -1 0 -1 -1 -1 -1 0 -1 0 -1 1 0 1 0 1 1 1 1 0 1 0 1
-1z m-5 -2 c0 0 0 -1 -1 -2 -1 -1 -2 -2 -2 -3 -1 -1 -1 -1 -3 1 l-2 2 0 -2 c0
-2 1 -3 1 -3 1 -1 1 -1 1 -2 -2 -1 -3 2 -3 5 0 1 1 2 2 3 2 0 3 0 3 1 0 0 1 1
2 0 1 0 2 0 2 0z M191 16 c1 0 1 0 2 0 0 1 -1 1 -2 1 -1 0 -1 0 0 -1z M184 14
c1 0 1 0 2 0 0 1 -1 1 -2 1 -1 0 -1 0 0 -1z M175 12 c0 0 2 0 2 0 1 1 0 1 -1
1 -1 0 -2 0 -1 -1z M166 11 c1 0 3 0 4 0 1 1 0 1 -2 1 -2 0 -3 0 -2 -1z M85 6
c0 -1 11 -6 13 -6 2 0 1 1 -2 3 -6 2 -11 4 -11 3z M224 5 c0 -1 0 -1 0 -2 1 0
1 0 1 1 0 1 1 1 2 1 0 -1 1 -1 0 0 0 1 -2 1 -3 0z M133 2 c-1 -1 -1 -2 1 -2 0
0 1 0 1 1 0 1 -2 2 -2 1z M228 1 c0 -1 0 -1 1 0 0 1 0 1 0 2 -1 0 -1 -1 -1 -2z
M189 0 c1 0 1 0 2 0 0 1 -1 1 -2 1 -1 0 -1 0 0 -1z"/>
</g>
<g transform="translate(0.000000,256.000000) scale(1.000000,-1.000000)"
fill="#4d3826" stroke="none">
<path d="M177 249 c1 0 3 0 3 0 1 1 0 1 -1 1 -2 0 -3 0 -2 -1z M184 246 c1 -1
3 -5 4 -7 1 -3 2 -4 2 -3 0 2 -5 10 -7 12 -1 1 -1 1 1 -2z M167 243 c-2 -2 -4
-4 -4 -5 0 0 -2 -4 -5 -7 -9 -11 -10 -13 -3 -5 4 4 8 9 9 11 1 2 3 5 5 7 3 4
2 4 -2 -1z M47 231 c5 -2 10 -5 17 -12 5 -4 5 -4 2 -1 -5 6 -15 13 -19 14 l-3
0 3 -1z M35 229 c-3 -3 -3 -3 -5 -13 -1 -9 -1 -20 2 -29 1 -3 1 -6 1 -6 1 -1
1 -3 1 -5 1 -3 2 -6 3 -7 0 -2 1 -3 0 -3 0 -1 0 -1 1 -1 0 0 1 1 1 1 0 1 1 1
2 1 2 -1 2 -2 1 -7 l0 -6 3 4 c4 4 5 5 3 5 -1 0 -3 1 -4 3 -1 2 -3 3 -4 3 -3
0 -3 3 -1 7 l2 3 -3 1 c-3 0 -4 2 -6 13 -2 9 0 32 4 37 1 0 1 1 1 1 0 0 -1 -1
-2 -2z M191 227 c0 -1 0 -1 1 0 0 1 0 1 0 2 -1 0 -1 -1 -1 -2z M192 223 c0 -1
0 -1 1 0 0 1 0 1 0 2 -1 0 -1 -1 -1 -2z M135 220 c0 -1 3 -1 7 -1 3 -1 4 -1 3
0 -4 1 -11 1 -10 1z M193 218 c0 -1 0 -2 1 -1 0 0 0 2 0 2 -1 1 -1 0 -1 -1z
M124 218 c1 0 1 0 2 0 0 1 -1 1 -2 1 -1 0 -1 0 0 -1z M108 217 c1 0 1 0 2 0 0
1 -1 1 -2 1 -1 0 -1 0 0 -1z M116 217 c1 0 3 0 3 0 1 1 0 1 -1 1 -2 0 -3 0 -2
-1z M100 216 c0 0 2 0 2 0 1 1 0 1 -1 1 -1 0 -2 0 -1 -1z M71 213 c3 -1 4 -1
4 0 -1 0 -2 1 -3 1 -2 1 -2 1 -1 -1z M86 214 c1 0 1 0 2 0 0 1 -1 1 -2 1 -1 0
-1 0 0 -1z M79 212 c1 0 1 0 2 0 0 1 -1 1 -2 1 -1 0 -1 0 0 -1z M194 197 c0
-1 0 -1 1 0 0 1 0 1 0 2 -1 0 -1 -1 -1 -2z M52 197 c-2 -2 3 -17 6 -20 1 -1 2
0 5 2 2 2 4 4 4 4 0 2 -12 15 -14 15 0 0 -1 0 -1 -1z m10 -10 c3 -3 3 -4 2 -5
-3 -2 -6 -1 -7 1 -1 2 -1 7 0 9 0 1 3 -2 5 -5z M195 191 c0 -1 0 -1 1 0 0 1 0
1 0 2 -1 0 -1 -1 -1 -2z M196 188 c0 -1 1 -3 3 -4 l3 -2 -3 2 c-1 1 -2 3 -2 4
-1 1 -1 1 -1 0z M193 170 c1 0 3 0 3 0 1 1 0 1 -1 1 -2 0 -3 0 -2 -1z M202
163 l-1 -2 2 1 c2 2 2 3 2 3 -1 0 -2 -1 -3 -2z M152 162 c-1 -1 -3 -2 -3 -2
-2 0 -4 -5 -4 -6 1 -3 4 -2 4 0 1 2 1 2 4 -1 3 -4 13 -14 14 -14 0 1 -3 4 -7
8 -8 7 -10 12 -7 15 1 1 1 2 1 2 0 0 -2 -1 -2 -2z M98 162 c1 0 1 0 2 0 0 1
-1 1 -2 1 -1 0 -1 0 0 -1z M209 161 c-1 0 0 -2 2 -3 l3 -1 -2 2 c-2 1 -3 3 -3
3 0 0 0 0 0 -1z M36 156 c0 -2 0 -3 1 -2 0 1 0 3 0 4 -1 1 -1 0 -1 -2z M130
159 c0 0 0 -3 0 -6 0 -9 -5 -20 -14 -25 -3 -2 -3 -2 -1 -2 1 1 5 4 8 7 5 5 8
12 8 19 0 2 1 4 2 5 0 1 1 2 1 2 0 1 -4 1 -4 0z M199 158 c-1 0 -2 -1 -3 -3
-1 -2 -2 -3 -2 -3 -1 -1 -2 -2 -2 -3 -1 -1 0 -2 0 -2 1 1 2 -9 1 -11 -1 -1 -1
-1 0 -1 0 1 2 2 3 4 1 2 2 3 1 3 -1 -1 -2 2 -1 7 0 2 1 3 2 4 3 1 4 3 4 5 0 1
0 1 -3 0z M67 153 c-4 -3 -6 -6 -4 -6 0 0 2 1 3 2 2 1 4 2 9 1 5 0 5 0 3 1 -1
1 -3 2 -4 1 -1 0 -2 2 -1 3 1 1 1 1 0 1 -1 0 -3 -2 -6 -3z M220 150 c3 -2 3
-3 2 -1 0 1 -1 2 -2 2 -1 1 -1 1 0 -1z M33 148 c-1 -2 -2 -3 -1 -3 1 0 4 5 4
5 0 1 -2 -1 -3 -2z M40 147 c-2 -4 -1 -6 1 -7 2 -1 3 -1 7 1 5 4 5 4 1 4 -7 0
-8 0 -8 2 -1 1 -1 1 -1 0z M223 147 c0 -2 2 -6 3 -6 1 0 0 1 -1 3 -2 3 -2 3
-2 3z M79 144 c-3 -3 -3 -4 -1 -4 1 0 2 1 2 2 0 1 0 1 2 -1 1 -1 2 -2 2 -2 0
1 -3 7 -3 7 0 0 -1 -1 -2 -2z M29 142 c-2 -2 -3 -4 -2 -4 0 0 1 1 2 3 2 3 2 4
0 1z M173 135 c2 -1 3 -2 3 -2 2 0 1 0 -2 2 -2 1 -2 1 -1 0z M228 134 c0 -1 0
-2 1 -1 0 0 0 2 0 2 -1 1 -1 0 -1 -1z M86 135 c0 0 1 -2 3 -4 l4 -2 -3 3 c-3
3 -4 3 -4 3z M189 134 c-2 -1 -2 -1 -1 -1 1 0 2 0 3 1 0 1 0 1 -2 0z M23 129
c-2 -7 -2 -17 -1 -17 1 0 1 2 1 5 0 3 0 7 1 9 1 3 1 5 1 6 0 1 -1 -1 -2 -3z
M145 128 c1 0 2 -1 2 -1 1 -1 4 -1 7 -2 l7 0 -6 1 c-3 0 -6 1 -6 2 -1 0 -2 1
-3 1 -2 0 -2 0 -1 -1z M230 125 c0 -2 0 -3 1 -2 0 1 0 3 0 3 -1 1 -1 0 -1 -1z
M100 125 c1 0 3 0 3 0 1 1 0 1 -1 1 -2 0 -3 0 -2 -1z M110 125 c1 0 1 0 2 0 0
1 -1 1 -2 1 -1 0 -1 0 0 -1z M230 109 c0 -2 1 -3 1 -1 1 1 0 2 0 3 -1 0 -1 -1
-1 -2z M21 106 c0 -1 1 -3 1 -4 1 -2 1 -2 1 1 0 1 0 3 -1 4 -1 0 -1 0 -1 -1z
M229 104 c0 0 0 -1 1 0 1 0 1 1 1 1 0 1 0 1 -1 1 -1 0 -1 -1 -1 -2z M24 96 c0
-5 1 -6 2 -6 1 0 0 4 -2 7 -1 2 -1 2 0 -1z M223 94 c-2 -3 -5 -15 -4 -16 1 0
1 0 1 1 -1 3 4 16 6 17 2 1 2 1 1 1 -1 0 -3 -1 -4 -3z M34 94 c0 -1 0 -2 1 -2
1 0 1 1 1 1 0 1 0 2 -1 3 -1 0 -1 -1 -1 -2z M36 89 c1 -2 3 -3 4 -3 1 0 1 1
-1 3 -4 3 -6 3 -3 0z M107 89 c0 -1 0 -1 0 -2 1 0 1 1 1 1 1 2 0 3 -1 1z M26
87 c0 -1 1 -2 2 -2 1 0 3 0 3 -1 2 -4 10 -21 10 -23 1 -1 2 -4 3 -6 2 -2 3 -5
2 -5 0 -2 1 -5 2 -5 1 0 2 -1 2 -2 0 -2 1 -5 3 -6 2 -2 3 -4 3 -4 0 0 3 -3 8
-7 4 -3 8 -6 8 -6 0 0 2 -1 5 -2 9 -2 15 -6 17 -10 3 -4 4 -4 2 0 0 2 -1 4 0
4 1 1 -1 5 -3 5 0 0 -1 0 -1 1 0 0 -2 1 -4 1 -6 0 -11 1 -10 3 0 1 0 2 -1 2 0
0 -2 0 -3 0 -1 1 -3 2 -5 4 -2 2 -3 3 -3 3 0 -1 -1 0 -2 0 -1 2 -1 2 1 6 l2 4
2 -3 c2 -2 3 -3 4 -2 2 0 2 1 1 2 -1 1 -2 2 -3 2 -1 0 -2 1 -2 2 0 1 0 3 -1 3
0 0 -1 2 -2 4 -1 2 -1 2 -2 1 -1 -2 -1 -2 -2 0 0 1 -1 2 -1 4 0 1 0 1 -1 1 0
0 -1 1 -1 1 0 1 -1 2 -3 3 -1 1 -2 2 -1 2 0 0 -1 2 -3 3 -3 3 -4 4 -4 9 -1 3
-2 5 -4 7 -2 2 -3 4 -3 4 0 1 0 1 -1 0 -1 -1 -1 -1 -2 0 -2 2 -12 4 -12 3z
m35 -54 c1 0 1 -1 0 0 -1 0 -1 1 -1 1 0 1 1 1 1 -1z M135 84 c-3 -1 -5 -3 -6
-3 -1 0 -1 0 -2 -1 -1 0 6 1 11 2 2 1 4 1 5 0 2 0 2 0 1 1 0 1 -2 1 -4 1 -4
-1 -4 -1 -3 0 4 3 2 3 -2 0z M122 79 c1 0 1 0 2 0 0 1 -1 1 -2 1 -1 0 -1 0 0
-1z M130 66 c-1 -1 -2 -8 -1 -8 0 0 2 1 3 2 2 2 4 3 5 3 1 1 2 2 2 2 1 1 0 2
-4 2 -2 0 -4 -1 -5 -1z M221 60 c-1 -1 -1 -1 0 -1 0 0 1 0 2 1 0 1 0 1 -1 1 0
0 -1 0 -1 -1z M75 34 c0 0 -2 -1 -5 0 -5 0 -5 -1 -1 -3 1 -1 3 -2 3 -3 1 -2 3
0 2 2 0 2 2 3 4 1 0 -1 0 -1 -1 -1 -1 0 -1 0 -1 -1 0 -1 7 -1 8 0 0 1 -1 1 -3
1 -1 0 -1 1 -1 1 0 1 -1 2 -2 3 -1 2 -2 2 -3 0z M225 30 c-2 -1 -3 -2 -3 -2 1
0 2 0 3 1 2 2 3 0 0 -2 -1 -1 0 -1 2 0 5 5 4 6 -2 3z M219 21 c-1 -1 -1 -1 0
0 2 1 2 2 2 2 -1 0 -1 -1 -2 -2z M140 20 c-1 -1 -3 -2 -4 -3 -1 0 -2 -1 -2 -3
0 -1 0 -2 -1 -2 -1 0 -1 -1 -1 -2 0 -1 -1 -2 -2 -2 -1 0 -1 0 0 2 1 1 1 1 0 1
-1 0 0 1 1 2 3 3 0 1 -7 -4 -5 -4 -7 -7 -2 -4 1 1 2 2 2 1 0 0 1 0 2 1 2 2 2
1 1 -2 -1 -1 -1 -2 0 -2 1 -1 1 0 1 1 0 1 0 2 1 2 1 0 1 -1 0 -1 0 -1 0 -1 1
-1 1 1 1 2 0 2 0 1 1 1 3 1 1 0 1 1 0 2 0 1 2 3 5 6 5 5 6 7 4 7 0 0 -1 -1 -2
-2z M140 12 c0 -1 0 -1 1 0 1 0 1 0 1 1 0 0 0 0 -1 0 -1 0 -1 0 -1 -1z M170 9
c1 0 1 0 2 0 0 1 -1 1 -2 1 -1 0 -1 0 0 -1z M10 9 c0 -1 1 -1 2 -1 1 -1 2 0 1
0 0 1 -3 1 -3 1z M143 7 l-3 -1 4 1 c2 0 6 1 10 1 l6 1 -7 0 c-4 0 -8 -1 -10
-2z M163 8 c1 0 1 0 2 0 0 1 -1 1 -2 1 -1 0 -1 0 0 -1z M178 2 c-5 -2 -2 -2 2
-1 2 1 3 2 2 2 -1 0 -3 -1 -4 -1z"/>
</g>
<g transform="translate(0.000000,256.000000) scale(1.000000,-1.000000)"
fill="#c6863d" stroke="none">
<path d="M173 243 c-1 -1 -1 -1 0 -1 0 0 -1 -1 -2 -3 l-1 -2 3 2 c2 2 3 4 3 4
0 1 -3 1 -3 0z M168 234 c-1 -1 -1 -2 -1 -2 1 0 1 1 2 2 1 1 1 2 1 2 -1 0 -1
-1 -2 -2z M44 228 c1 0 1 0 2 0 0 1 -1 1 -2 1 -1 0 -1 0 0 -1z M39 225 c-1 -2
-1 -3 1 -2 1 1 3 1 5 1 4 0 2 2 -2 3 -3 0 -4 0 -4 -2z M160 218 c-1 -1 -2 -4
-2 -4 0 -1 -1 -2 -1 -3 -2 -2 -2 -2 -5 -1 -1 0 -4 1 -7 2 -2 1 -4 2 -4 2 0 1
-1 0 -2 0 -3 -2 -13 -4 -17 -3 -1 0 -3 0 -5 -1 -3 -1 -10 -2 -17 -2 -4 0 -5 0
-6 -2 0 -1 -2 -1 -2 0 0 2 -6 2 -11 1 -3 -1 -5 -1 -6 0 -1 1 -1 1 1 1 2 0 2 0
1 1 -2 0 -4 1 -5 1 -4 2 -5 0 -3 -5 2 -4 2 -4 0 -7 -2 -4 0 -4 3 0 2 2 3 3 6
3 2 0 3 1 4 3 1 1 2 2 2 2 2 0 2 -2 1 -4 -1 0 -2 -2 -2 -3 -1 -1 -3 -4 -5 -6
-2 -3 -3 -7 -3 -8 0 -3 0 -3 2 -3 2 0 3 0 3 -1 0 -1 1 -1 1 -1 1 0 2 0 2 -1 0
-2 0 -2 -2 -2 -4 1 -7 -3 -6 -6 1 -3 1 -3 -1 -3 -1 0 -2 -1 -2 -1 0 -1 0 -1
-1 -1 -1 0 -1 -3 0 -5 0 -1 2 0 6 1 3 1 7 2 8 1 1 0 3 0 4 2 1 1 1 1 3 0 1 -1
2 -1 4 1 3 2 3 3 -1 6 -2 1 -4 5 -5 8 -1 3 -2 5 -2 5 0 -1 -1 0 -2 1 -1 3 -1
3 1 6 3 3 4 4 5 3 0 -1 4 1 4 3 0 2 3 5 4 4 0 -1 -1 -2 -1 -3 -3 -2 -2 -2 1
-1 1 0 6 1 9 1 6 0 7 -1 8 -2 1 -2 2 -3 3 -4 1 -1 1 -1 0 -2 -2 -2 -3 -5 -1
-5 0 0 1 1 1 1 1 1 1 1 3 0 1 -2 1 -2 0 -3 -1 0 -1 -1 -1 -2 1 -1 2 -1 2 -1 2
2 4 0 4 -2 -1 -1 0 -3 1 -4 1 -1 2 -3 2 -4 0 0 0 -1 1 -1 1 0 3 -5 3 -6 0 -1
2 -1 5 -1 l6 1 -2 2 c-1 4 -2 17 0 16 1 0 1 2 0 4 -2 2 -2 3 0 5 1 1 1 1 0 2
-1 1 -2 3 -2 5 -1 3 -1 3 1 3 1 0 2 0 2 1 -1 0 0 1 1 1 1 1 2 0 2 0 0 -1 0 -1
1 0 1 0 1 1 0 1 0 1 1 1 1 0 1 0 2 0 2 1 0 1 3 1 4 0 1 -2 10 -2 10 -1 0 0 -1
2 -3 4 -3 3 -4 7 -2 11 1 1 1 2 1 3 0 0 -1 -2 -2 -4z m-35 -10 c-1 0 0 -2 2
-3 2 -2 3 -4 3 -4 0 -1 0 -3 0 -4 1 -2 1 -4 1 -4 0 0 0 0 0 0 0 0 0 -2 1 -4 1
-1 2 -4 2 -4 -1 -3 -3 -1 -2 1 0 1 0 2 -1 2 -1 0 -2 0 -1 1 0 1 -5 12 -7 15 0
0 -1 1 -1 3 -1 1 0 2 1 2 1 0 2 0 2 -1z m-32 -7 c0 0 0 -1 -1 -1 0 1 0 1 0 2
1 2 2 1 1 -1z m15 0 c0 -1 -1 -1 -3 -1 -3 0 -3 0 -1 1 1 0 3 1 3 1 0 0 0 0 1
-1z m-25 -8 c-2 -1 -2 -1 -1 1 1 1 1 2 2 2 0 -1 0 -2 -1 -3z m6 -18 c1 -2 2
-3 0 -3 0 0 -1 0 -1 1 0 1 -1 1 -1 1 -1 0 -2 1 -2 2 0 2 1 1 4 -1z m-2 -5 c0
-1 -1 -1 -2 -1 -1 0 -1 0 0 1 2 1 2 1 2 0z m9 -1 c0 -1 0 -2 -2 -2 -2 0 -4 2
-3 3 1 2 4 1 5 -1z M65 214 c0 -1 1 -2 2 -2 2 0 1 1 -1 2 -2 1 -2 1 -1 0z
M168 205 c-2 -1 -1 -3 3 -5 3 -2 4 -2 5 -1 1 1 1 2 1 3 0 0 0 0 -1 -1 -1 -2
-7 0 -6 3 0 1 0 2 0 2 0 0 -1 0 -2 -1z M54 160 c-5 -5 -6 -6 -5 -7 1 -1 2 0 3
1 0 0 1 1 1 1 1 0 2 1 4 2 2 1 3 3 2 4 0 2 1 3 2 3 0 0 1 1 1 2 0 0 0 1 -1 1
0 0 -3 -3 -7 -7z M138 158 c-3 -2 -4 -4 -4 -14 -1 -3 -1 -8 -2 -9 l-1 -3 3 2
c1 1 3 3 3 3 1 0 1 5 0 5 -1 0 -1 1 -1 1 1 1 0 2 0 3 -2 1 0 5 1 5 1 0 2 1 2
1 1 1 1 1 4 0 l3 -2 -3 2 c-1 2 -2 3 -2 5 1 2 1 2 -3 1z M150 149 c-1 0 0 -1
1 -1 3 -1 3 -1 1 1 -1 0 -2 1 -2 0z M214 81 c-1 0 -1 -1 -1 -2 0 -1 -1 -2 -1
-3 -1 0 -2 -1 -2 -2 0 -2 1 -2 2 -1 0 1 1 2 1 1 1 0 2 4 2 7 0 0 -1 1 -1 0z"/>
</g>
<g transform="translate(0.000000,256.000000) scale(1.000000,-1.000000)"
fill="#a26c35" stroke="none">
<path d="M169 239 c-1 -1 -4 -6 -6 -10 -4 -8 -6 -10 -9 -10 -1 -1 -4 -1 -6 -2
-2 -1 -5 -2 -5 -1 -1 0 -2 0 -2 -1 0 -1 2 -2 4 -3 3 -1 6 -2 7 -2 3 -1 3 -1 5
1 0 1 1 2 1 3 0 1 9 19 13 25 3 4 1 4 -2 0z M37 225 c-1 -1 -2 -2 -2 -5 0 -3
0 -3 1 -1 0 2 1 3 1 3 0 0 1 1 1 2 1 1 1 2 1 2 0 0 -1 -1 -2 -1z M173 211 c-1
-3 -3 -5 -3 -6 -1 -2 -1 -2 0 -4 4 -2 5 -1 6 4 0 2 0 5 1 6 1 3 1 4 -1 4 -1 0
-2 -2 -3 -4z M122 207 c0 -2 1 -3 1 -3 2 -3 7 -14 7 -15 -1 -1 0 -1 1 -1 1 0
1 -1 1 -2 -1 -2 1 -4 2 -1 0 0 -1 3 -2 4 -1 2 -1 4 -1 4 0 0 0 0 0 0 0 0 0 2
-1 4 0 1 0 3 0 4 0 0 -1 2 -3 4 -2 1 -3 3 -2 3 0 1 -1 1 -2 1 -1 0 -2 -1 -1
-2z M82 204 c-1 -2 -2 -3 -4 -3 -2 0 -4 -1 -7 -4 -1 -2 -3 -4 -3 -4 0 -1 0 -1
-1 -1 -1 0 -1 -4 0 -4 0 -1 1 -1 1 0 2 3 3 1 1 -3 -2 -6 -12 -15 -12 -11 0 1
0 1 -1 0 -1 -1 -2 -2 -2 -3 0 0 -1 -2 -3 -3 -3 -1 -4 -2 -5 -1 -2 1 -2 1 -1 0
1 -2 2 -2 5 -2 l4 1 -2 -3 c-1 -2 -2 -3 -2 -3 -1 0 -2 -2 -4 -5 -2 -4 -2 -4
-1 -6 1 -1 3 -1 4 -1 1 1 1 1 0 2 -3 1 1 9 9 14 3 3 4 3 4 2 0 -1 -1 -2 -1 -2
-1 0 -2 -1 -2 -2 1 -2 0 -4 -3 -6 -2 -2 -4 -4 -4 -4 0 -1 1 0 2 1 2 2 2 2 2 1
0 -2 0 -2 3 0 2 0 3 1 4 0 1 0 1 0 1 1 0 1 1 1 2 1 3 0 5 3 4 7 0 2 0 3 1 3 1
0 1 0 1 1 0 0 1 1 2 1 2 0 2 0 1 3 -1 3 2 7 6 6 2 0 2 0 2 2 0 1 -1 1 -2 1 0
0 -1 0 -1 1 0 1 -1 1 -3 1 -2 0 -2 0 -2 3 0 1 1 5 3 8 2 2 4 5 5 6 0 1 1 3 2
3 1 2 1 4 -1 4 0 0 -1 -1 -2 -2z M42 180 c1 -1 1 -2 0 -2 -1 -1 -1 -2 -1 -2 0
-1 3 2 3 3 0 0 -1 1 -2 1 -1 1 -1 1 0 0z M85 176 c0 -1 1 -2 2 -2 0 0 1 0 1
-1 0 -1 1 -1 1 -1 2 0 1 1 0 3 -3 2 -4 3 -4 1z M85 170 c-1 -1 -1 -1 0 -1 1 0
2 0 2 1 0 1 0 1 -2 0z M91 170 c-1 -1 1 -3 3 -3 2 0 2 1 2 2 -1 2 -4 3 -5 1z
M135 162 c0 -1 1 -1 2 0 2 1 1 -2 -1 -3 -3 -2 -2 -3 1 -2 2 1 3 2 3 3 -1 1 -1
2 -1 2 0 1 -1 1 -2 1 -1 0 -2 0 -2 -1z M143 158 c-3 -1 -2 -3 0 -6 3 -2 7 -3
7 -2 1 1 0 1 -1 1 -2 0 -3 1 -4 2 -2 2 -2 2 -1 4 2 1 1 2 -1 1z M133 151 c-1
-1 -1 -2 -1 -3 1 -1 2 1 2 3 -1 1 -1 1 -1 0z M66 147 c-2 -1 -3 -2 -3 -2 0 -1
1 -1 2 0 1 1 2 1 3 1 0 -1 -1 -2 -4 -3 -6 -2 -8 -4 -7 -5 1 -1 2 -1 3 0 1 1 4
3 7 4 8 3 8 3 7 5 -1 1 -3 1 -8 0z M133 146 c-1 0 -1 -1 0 -2 0 -1 0 -1 -1 -1
0 1 -1 -1 -2 -3 -1 -2 -2 -4 -3 -5 -1 -2 -2 -3 -3 -5 0 -1 -1 -2 -1 -2 -1 0
-1 -1 -1 -3 l0 -3 2 2 c2 2 3 4 3 5 1 2 2 3 3 3 1 0 3 4 4 10 0 5 0 6 -1 4z
M54 143 c-2 -1 -2 -1 -1 -1 1 0 2 0 3 1 0 1 0 1 -2 0z M45 136 c-1 -2 -1 -2 0
-1 1 2 2 3 2 3 0 2 -1 1 -2 -2z M42 132 c-1 -1 -1 -2 0 -2 0 -1 1 0 1 1 1 2 1
2 -1 1z"/>
</g>
<g transform="translate(0.000000,256.000000) scale(1.000000,-1.000000)"
fill="#7c805d" stroke="none">
<path d="M162 168 c2 -3 10 -6 13 -5 1 1 3 2 4 4 l2 2 -3 -2 c-3 -2 -5 -2 -9
-2 -2 1 -4 2 -5 2 0 1 -1 2 -2 2 -2 1 -2 1 0 -1z M107 163 c2 -3 8 -5 10 -4 3
0 5 2 4 3 0 1 -1 0 -2 -1 -2 -1 -6 -1 -11 2 l-3 2 2 -2z M155 129 c-1 -1 -1
-1 0 -1 1 1 3 1 4 1 1 0 1 0 1 1 -2 1 -3 1 -5 -1z M140 110 c0 -1 0 -2 1 -1 0
0 0 2 0 2 -1 1 -1 0 -1 -1z M142 104 c0 -2 -1 -3 -2 -4 -1 0 -1 -1 0 -1 0 0 1
1 2 2 2 1 2 2 1 4 -1 2 -1 2 -1 -1z M217 70 c0 -1 -1 -2 -3 -2 -1 -1 -2 -2 -2
-2 0 -1 0 -1 1 0 2 1 3 1 3 -1 0 -1 -1 -1 -3 -1 -2 1 -3 1 -3 -1 0 -1 -1 -2
-2 -2 -1 -1 -2 -2 -2 -2 0 -1 0 -1 -1 -1 -1 0 -2 -1 -2 -1 0 -1 -1 -1 -1 -1
-1 0 -2 0 -2 -1 0 -1 -1 -1 -1 -1 -2 1 -3 0 -2 -2 1 -2 3 -3 3 -1 0 1 1 2 2 1
1 0 4 1 11 7 2 2 5 4 7 5 3 1 4 2 2 2 -1 0 -2 0 -2 0 -1 1 -2 1 -3 1 -1 0 -1
1 1 2 1 1 2 2 1 2 0 0 -1 0 -2 -1z M239 57 c0 -1 0 -2 1 -1 0 0 0 2 0 2 -1 1
-1 0 -1 -1z M216 54 c-4 -3 -8 -7 -8 -9 0 -1 0 -2 -1 -2 -1 0 -1 1 -1 2 0 1
-1 1 -4 0 -2 -2 -2 -2 2 -3 4 -1 4 -1 5 1 1 3 3 5 7 9 4 3 4 4 0 2z M229 44
c-1 0 0 -1 3 -1 3 0 5 0 5 0 1 0 0 1 -1 1 -1 0 -2 0 -3 0 -2 1 -3 1 -4 0z
M222 42 c-1 -1 -3 -1 -4 -1 -3 0 -4 -2 -2 -2 3 0 11 4 10 4 -2 0 -3 0 -4 -1z
M199 41 c-1 -3 -1 -3 2 -3 2 -1 3 -1 3 0 1 1 0 1 -1 1 -2 0 -3 1 -3 2 -1 1 -1
1 -1 0z M208 38 c1 0 3 0 4 0 1 1 0 1 -2 1 -3 0 -3 0 -2 -1z M236 38 c0 -1 1
-1 2 0 0 0 1 0 1 1 0 0 -1 0 -1 0 -1 0 -2 0 -2 -1z M227 24 c-2 -3 -4 -5 -4
-6 0 0 -1 -1 -2 -2 -2 -1 -2 -2 -2 -4 1 -2 1 -3 -1 -3 -1 -1 -2 -2 -2 -3 0 -1
-1 -2 -2 -2 -3 -1 -3 -4 1 -4 1 0 2 1 2 2 0 1 0 1 2 0 1 -2 1 -2 1 0 0 1 0 2
1 2 0 0 1 2 1 4 1 2 2 3 3 3 2 0 3 -1 4 -2 1 -2 1 -2 1 1 0 3 0 4 -2 4 -1 0
-2 0 -2 1 -1 3 0 4 1 5 1 0 1 -1 1 -2 l0 -2 1 2 c1 1 1 3 0 4 0 1 1 3 2 4 3 4
0 2 -4 -2z M201 24 c-11 -4 -23 -7 -32 -8 -6 0 -8 -1 -8 -2 0 0 1 -1 2 -1 0 0
1 0 1 1 -1 1 0 1 1 1 0 0 1 0 1 -1 -1 -1 0 -1 2 -1 2 0 3 0 3 2 0 1 3 2 3 0 1
-1 6 0 20 4 7 2 14 5 15 7 1 2 -1 1 -8 -2z M240 18 c-3 -2 -4 -11 -1 -12 2 0
1 -2 -1 -2 -1 0 -2 -1 -2 -2 -1 -2 0 -2 3 -2 3 0 3 0 3 3 0 2 0 5 1 6 0 2 0 3
-1 4 -1 1 -1 1 0 2 1 1 2 2 2 2 0 1 -3 2 -4 1z M230 5 c0 -3 2 -6 3 -5 0 1 0
1 -1 2 0 0 -1 1 -1 3 l-1 2 0 -2z M251 3 c0 -1 0 -2 0 -3 1 0 1 0 1 1 0 1 0 2
1 2 0 -1 1 0 2 1 1 2 1 2 -1 2 -1 0 -2 -1 -3 -3z"/>
</g>
<g transform="translate(0.000000,256.000000) scale(1.000000,-1.000000)"
fill="#393e41" stroke="none">
<path d="M133 219 c1 0 1 0 2 0 0 1 -1 1 -2 1 -1 0 -1 0 0 -1z M210 173 c1 -1
1 -3 2 -5 1 -2 1 -2 1 0 0 1 0 2 -2 4 -1 1 -2 2 -1 1z M180 165 l-4 -4 -7 1
c-4 1 -8 3 -9 3 -1 1 -2 1 -2 0 -2 -2 6 -5 16 -6 4 0 5 0 7 2 3 3 5 7 4 8 0 0
-2 -2 -5 -4z M211 162 c-1 0 -1 -1 -1 -2 1 0 1 1 2 2 1 2 1 3 -1 0z M103 162
c0 -3 5 -7 7 -7 1 0 3 0 4 0 3 -1 14 2 15 3 0 1 -3 1 -9 0 -6 -1 -11 0 -14 3
-2 2 -3 3 -3 1z M218 154 c1 -2 3 -3 3 -2 1 0 -4 4 -5 4 -1 0 0 -1 2 -2z M228
138 c0 -1 0 -2 1 -2 0 0 0 1 0 2 0 0 0 1 -1 1 -1 0 -1 -1 0 -1z M25 136 c-1
-1 -1 -2 -1 -3 0 0 1 1 2 2 1 4 1 4 -1 1z M229 131 c0 -1 0 -1 1 0 0 1 0 1 0
2 -1 0 -1 -1 -1 -2z M162 126 c1 0 1 0 2 0 0 1 -1 1 -2 1 -1 0 -1 0 0 -1z
M168 116 c-1 -1 -1 -1 -2 0 0 1 -3 1 -3 0 0 -1 2 -2 3 -2 2 -1 3 0 3 2 1 2 0
3 -1 0z M231 117 c0 -1 0 -2 1 -2 1 -1 1 0 1 0 0 1 0 2 -1 3 -1 0 -1 -1 -1 -1z
M140 116 c0 -1 1 -1 2 -2 1 -1 1 -1 0 0 -1 2 -2 2 -2 2z M21 110 c0 -2 0 -3 1
-2 0 1 0 3 0 3 -1 1 -1 0 -1 -1z M145 110 c4 -5 4 -7 3 -9 -1 -1 -2 -2 -2 -4
1 -1 0 -3 -1 -4 -2 -4 -1 -4 3 -1 2 2 3 3 2 8 0 5 -3 12 -5 12 -1 0 -1 -1 0
-2z M165 107 c0 -1 -1 -3 0 -3 0 -1 -1 -2 -2 -4 -1 -3 -1 -3 0 -4 1 0 3 -2 4
-3 2 -2 3 -3 3 -2 0 0 -1 1 -1 2 -1 0 -1 2 -2 3 0 1 0 3 0 4 -1 1 -1 4 -1 6 1
4 0 4 -1 1z M229 103 c0 0 2 -2 4 -4 3 -2 4 -3 3 -2 -1 2 -7 6 -7 6z M156 98
c0 -1 0 -1 1 0 1 0 1 0 1 1 0 0 0 0 -1 0 -1 0 -1 0 -1 -1z M239 95 c0 -1 -1
-1 -1 0 -1 0 -1 0 -1 -1 1 -1 1 -4 1 -7 0 -4 0 -5 1 -4 1 1 1 13 0 13 0 0 0 0
0 -1z M25 88 c0 -2 0 -2 1 -1 1 2 1 3 0 3 0 0 -1 -1 -1 -2z M172 89 c0 -1 0
-2 1 -2 0 1 0 2 -1 2 -1 1 -1 1 0 0z M165 87 c-1 -1 -1 -1 0 -1 1 0 2 0 3 1 1
1 1 1 0 1 -1 0 -2 0 -3 -1z M160 85 c-1 0 -1 -1 0 -1 0 -1 1 0 2 1 1 1 0 1 -2
0z M22 84 c-1 -2 -1 -3 1 -3 0 0 1 1 1 2 0 2 0 2 -2 1z M146 84 c-1 -1 -1 -1
0 -1 1 -1 2 0 2 1 1 1 0 1 -2 0z M129 82 c0 0 2 0 2 0 1 1 0 1 -1 1 -1 0 -2 0
-1 -1z M155 82 c-1 0 0 -1 1 0 2 0 3 1 1 1 -1 0 -2 0 -2 -1z M237 78 c0 -1 0
-1 1 0 0 1 0 1 0 2 -1 0 -1 -1 -1 -2z M18 74 c-2 -3 -3 -5 -3 -6 1 0 1 1 2 2
1 1 2 3 2 3 1 1 2 6 2 6 -1 0 -2 -2 -3 -5z M239 65 c0 -1 1 -2 1 -3 1 -2 1 -2
1 -1 0 1 -1 2 -1 4 -1 1 -1 1 -1 0z M16 53 c0 -2 2 -6 3 -6 0 1 1 0 2 -1 0 -1
1 -1 1 0 0 0 -1 2 -3 4 -2 2 -3 3 -3 3z M27 32 c0 0 1 -1 1 -3 1 -1 2 -1 2 0
0 0 -1 1 -2 2 0 2 -1 2 -1 1z M31 32 c0 -1 1 -1 2 -2 1 -1 1 -1 0 0 -1 2 -2 2
-2 2z M253 30 c1 -1 2 -2 2 -2 1 0 0 1 -2 2 l-2 2 2 -2z M19 21 c-1 -1 -1 -1
0 0 1 1 2 1 2 2 0 0 -1 0 -2 -2z M25 18 c-1 -1 -1 -1 0 0 2 1 2 2 2 2 -1 0 -1
-1 -2 -2z M22 14 c-1 0 -1 -1 -1 -1 0 -1 1 0 2 1 1 2 1 3 -1 0z M70 11 c-1 -1
0 -1 2 0 1 1 1 1 0 1 -1 0 -2 0 -2 -1z M75 10 c0 0 2 0 2 0 1 1 0 1 -1 1 -1 0
-2 0 -1 -1z M81 4 c1 0 1 0 2 0 0 1 -1 1 -2 1 -1 0 -1 0 0 -1z"/>
</g>
</svg>
