<svg xmlns="http://www.w3.org/2000/svg" width="256" height="256" viewBox="0 0 256 256">
<!-- Vectorized from the OpenRouter raster mark with color-layer tracing. -->
<g transform="translate(0.000000,256.000000) scale(1.000000,-1.000000)"
fill="#1c2537" stroke="none">
<path d="M0 128 l0 -128 128 0 128 0 0 128 0 128 -128 0 -128 0 0 -128z m198
77 c0 -1 0 -3 -1 -5 l-1 -4 -9 0 c-9 0 -9 0 -7 7 l1 3 9 0 c6 0 8 0 8 -1z m-4
-15 c0 0 0 -2 -1 -4 l-1 -4 -18 0 -19 0 1 3 c1 2 1 4 2 5 0 1 4 1 18 1 10 0
18 0 18 -1z m-4 -15 c0 0 -1 -2 -1 -4 l-1 -4 -27 0 c-25 0 -27 0 -27 2 1 1 1
3 2 4 l0 3 27 0 c15 0 27 0 27 -1z m-4 -16 c-1 -1 -1 -3 -2 -4 l0 -3 -58 0
c-31 0 -57 0 -57 1 0 0 1 2 1 4 l1 4 58 0 c54 0 57 0 57 -2z m-5 -17 l-2 -4
-51 -1 c-57 0 -53 0 -51 6 l1 3 52 0 52 0 -1 -4z m-4 -15 l-2 -4 -48 -1 c-47
0 -49 0 -49 2 1 1 1 3 2 4 l0 3 49 0 49 0 -1 -4z m10 -12 c0 -1 0 -3 -1 -5
l-1 -3 -52 0 c-49 0 -51 0 -51 2 0 1 0 3 1 5 l1 3 52 0 c49 0 51 0 51 -2z m7
-14 c0 -1 -1 -3 -1 -5 l-1 -4 -57 0 c-31 0 -57 0 -57 1 -1 0 0 2 0 3 1 2 1 4
2 5 0 1 114 2 114 0z m-66 -17 c-1 -7 1 -7 -28 -7 -14 0 -26 0 -26 1 -1 0 0 2
0 5 l1 4 27 0 27 0 -1 -3z m-20 -14 c-1 -1 -1 -3 -2 -4 l0 -3 -19 0 c-10 0
-18 0 -18 1 0 0 1 2 1 4 l1 4 19 0 c17 0 18 0 18 -2z m-24 -17 c-1 -2 -1 -4
-2 -4 0 -1 -17 -1 -17 0 0 0 0 2 1 4 l1 4 9 0 8 0 0 -4z"/>
</g>
<g transform="translate(0.000000,256.000000) scale(1.000000,-1.000000)"
fill="#9c97fb" stroke="none">
<path d="M181 203 c-1 -2 -1 -4 -2 -4 0 -2 1 -2 8 -2 l9 0 1 4 1 4 -8 0 c-8 0
-9 0 -9 -2z M158 188 c-1 -1 -1 -3 -1 -4 l-1 -2 17 0 18 0 1 3 c2 5 2 5 -16 5
-16 0 -18 0 -18 -2z M137 174 c-1 0 -1 -2 -1 -4 l-1 -3 26 0 26 0 1 3 c1 2 1
4 1 4 0 1 -52 1 -52 0z M71 157 c-1 -2 -1 -4 -1 -4 0 -1 106 -1 111 0 2 0 4 5
4 7 0 0 -25 1 -57 1 l-56 0 -1 -4z M78 143 c-2 -5 -5 -5 50 -5 l51 0 0 2 c1 2
1 4 2 4 0 2 -5 2 -51 2 l-51 0 -1 -3z M81 129 c-1 -2 -1 -4 -2 -4 0 -2 4 -2
48 -2 l48 0 0 2 c1 2 1 4 2 4 0 2 -4 2 -48 2 l-48 0 0 -2z M84 113 c-1 -3 1
-5 4 -5 2 0 2 0 2 1 -1 3 0 3 2 1 3 -3 4 -2 4 1 0 2 0 2 2 1 0 -1 2 -2 3 -3 1
0 3 0 4 -1 3 0 3 0 3 2 0 1 -1 2 -1 2 -1 1 -1 1 0 2 0 1 1 0 3 -2 1 -2 2 -4 3
-4 1 0 1 4 0 4 -1 1 -1 1 0 2 0 0 1 0 3 -2 1 -1 1 -2 1 -2 -1 0 -1 0 -1 -1 0
-1 2 -1 4 -1 3 0 4 0 4 2 -1 2 2 2 3 0 1 -2 1 -2 1 1 0 2 0 2 2 1 0 -1 2 -2 3
-3 1 0 3 0 4 -1 3 0 3 0 3 2 0 1 -1 2 -1 2 -1 1 -1 1 0 2 0 1 1 0 3 -2 1 -2 2
-4 3 -4 1 0 1 4 0 4 -1 1 -1 1 0 2 1 1 1 1 2 -1 0 -1 1 -2 1 -1 0 0 1 0 1 -1
1 -1 1 -1 0 -1 -1 0 -1 0 -1 -1 0 -1 2 -1 4 -1 3 0 4 0 4 2 -1 2 2 2 2 0 1 -1
2 -2 3 -2 1 0 1 1 0 2 0 1 0 2 0 2 1 0 2 -1 3 -2 3 -2 6 -3 6 0 -1 0 0 1 1 2
0 0 1 1 1 2 0 2 -1 2 -3 2 -2 0 -3 0 -3 -2 0 -1 0 -2 -1 -2 -1 0 -1 1 -1 2 0
2 -1 2 -3 2 -2 0 -3 0 -2 -1 0 -1 0 -1 -2 0 -1 1 -11 1 -29 1 -26 0 -27 0 -26
-2 0 -1 0 -2 -1 -2 -1 0 -1 1 -1 2 0 1 0 2 -3 2 -2 0 -3 0 -3 -2 0 -1 0 -2 -1
-2 -1 0 -1 1 -1 2 0 2 -1 2 -4 2 -3 0 -4 0 -4 -3z m50 -1 c-1 -1 -2 1 -1 2 0
1 0 1 1 0 0 -1 0 -1 0 -2z m-13 1 c0 -1 -1 -1 -1 -1 -1 0 -2 0 -2 1 0 1 0 1 1
1 0 0 1 0 2 -1z m32 -1 c0 0 -1 0 -1 0 -1 0 -2 0 -2 1 0 1 1 1 2 0 0 0 1 0 1
-1z M174 114 c0 -1 0 -2 -1 -2 -2 0 -1 -3 1 -3 0 -1 3 -1 6 -1 3 0 4 0 4 2 0
1 0 2 1 2 0 0 1 1 1 2 1 1 0 2 -1 2 -1 0 -2 0 -2 -1 1 -1 0 -1 -2 0 -4 2 -7 1
-7 -1z m6 -4 c0 -1 -1 -1 -2 -1 0 1 -1 1 -2 1 0 0 0 1 0 1 0 1 1 2 2 1 1 0 2
-1 2 -2z M100 99 c-2 0 -2 -1 -1 -1 0 0 1 1 3 1 1 1 1 2 1 2 -1 0 -2 -1 -3 -2z
M108 100 c0 -1 0 -2 0 -2 1 0 1 1 1 2 1 0 1 1 0 1 -1 0 -1 -1 -1 -1z M117 100
c0 -1 0 -1 1 0 1 0 1 0 1 1 0 0 0 0 -1 0 -1 0 -1 0 -1 -1z M125 100 c0 -1 0
-2 0 -2 1 0 1 1 1 2 1 0 1 1 0 1 -1 0 -1 -1 -1 -1z M132 100 c0 -1 -1 -1 -1 0
-1 0 -1 0 -1 -1 0 -1 1 -1 3 1 2 0 2 1 1 1 0 0 -1 0 -2 -1z M140 100 c-1 0 -2
-1 -1 -1 0 -1 2 0 3 1 2 1 2 1 -2 0z M160 100 c1 -2 3 -2 3 -1 1 0 1 1 0 1 -1
0 -2 0 -3 1 -2 0 -2 0 0 -1z M82 99 c-1 -1 0 -1 0 -1 1 0 2 0 2 1 0 1 0 1 -1
1 0 0 -1 0 -1 -1z M89 99 c0 -1 0 -1 1 -1 0 0 0 0 0 1 0 1 0 1 -1 1 -1 0 -1 0
0 -1z M114 99 c0 -1 0 -1 1 -1 1 0 1 0 1 1 -1 1 -1 1 -2 1 0 0 0 0 0 -1z M146
99 c0 -1 0 -1 1 -1 0 0 1 0 2 1 0 1 -1 1 -1 1 -1 0 -2 0 -2 -1z M154 99 c0 -1
0 -1 1 -1 1 0 1 0 1 1 0 1 0 1 -1 1 -1 0 -1 0 -1 -1z M168 99 c0 -1 0 -1 1 -1
1 0 1 0 1 1 -1 1 -1 1 -2 1 0 0 0 0 0 -1z M174 99 c0 -1 0 -1 1 -1 1 0 1 0 1
1 0 1 0 1 -1 1 -1 0 -1 0 -1 -1z M184 99 c1 0 2 -1 3 0 2 0 1 1 -1 1 -1 0 -2
0 -2 -1z"/>
</g>
<g transform="translate(0.000000,256.000000) scale(1.000000,-1.000000)"
fill="#8b74fc" stroke="none">
<path d="M92 114 c0 -1 0 -2 1 -2 1 0 1 1 1 2 0 1 0 2 -1 2 -1 0 -1 -1 -1 -2z
M100 114 c0 -1 1 -2 1 -2 1 0 1 3 0 3 0 1 -1 0 -1 -1z M156 116 c0 -1 1 -1 2
-1 0 -1 1 -1 0 0 0 1 -2 1 -2 1z M164 114 c0 -1 0 -2 1 -2 1 0 1 1 1 2 0 1 0
2 -1 2 -1 0 -1 -1 -1 -2z M172 114 c0 -1 -1 -2 -1 -2 -3 -1 -1 -4 1 -4 2 0 2
0 1 1 -1 0 -1 3 0 3 1 0 1 1 1 2 0 1 0 2 -1 2 -1 0 -1 -1 -1 -2z M180 116 c0
-1 1 -1 2 -1 1 -1 2 0 1 0 0 1 -3 1 -3 1z M106 114 c0 -1 0 -2 1 -2 1 0 1 -1
1 -1 0 -2 0 -3 2 -3 1 0 1 1 -1 4 -1 2 -2 3 -3 2z M112 114 c0 -1 0 -2 1 -2 0
0 1 -1 1 -2 0 -2 1 -3 2 -1 1 1 1 2 -1 4 -1 1 -2 2 -3 1z M133 114 c-1 -1 -1
-1 -1 -2 1 -1 2 1 2 2 -1 1 -1 1 -1 0z M138 114 c0 -1 0 -2 1 -2 1 0 1 -1 1
-1 0 -2 0 -3 2 -3 1 0 1 1 -1 4 -1 2 -2 3 -3 2z M144 114 c0 -1 0 -2 1 -2 0 0
1 -1 1 -2 0 -2 1 -2 3 0 1 1 1 1 -1 1 -1 0 -1 1 -1 1 0 2 -2 3 -3 2z M118 113
c0 -1 1 -1 2 -1 0 0 1 0 1 1 -1 1 -2 1 -2 1 -1 0 -1 0 -1 -1z M150 113 c0 -1
1 -1 2 -1 0 0 1 0 1 0 0 1 -1 1 -1 1 -1 1 -2 1 -2 0z M96 111 c0 -3 0 -3 4 -3
4 0 5 1 1 1 -1 1 -3 2 -3 3 -2 1 -2 1 -2 -1z M128 111 c0 -3 0 -3 4 -3 4 0 5
1 1 1 -1 1 -3 2 -3 3 -2 1 -2 1 -2 -1z M176 111 c0 0 0 -1 0 -1 1 0 2 0 2 -1
1 0 2 0 2 1 0 1 -1 2 -2 2 -1 1 -2 0 -2 -1z M90 111 c-1 -1 1 -3 2 -3 1 0 1 1
0 2 -1 1 -2 2 -2 1z M124 111 c-1 -1 0 -3 2 -3 1 0 1 0 0 2 0 2 -1 2 -2 1z
M156 111 c-1 -1 0 -3 2 -3 1 0 1 0 0 2 0 2 -1 2 -2 1z M161 110 c1 0 1 -1 1
-2 0 0 1 0 2 0 l2 0 -2 2 c-3 2 -3 3 -3 0z M184 110 c0 -1 0 -2 1 -1 0 0 0 2
0 2 -1 1 -1 0 -1 -1z M83 110 c0 -1 1 -2 2 -2 1 0 1 0 1 1 -1 0 -2 1 -2 1 -1
1 -1 1 -1 0z M79 97 l-1 -4 57 0 c31 0 56 0 56 1 1 0 1 2 1 4 l1 3 -25 0 c-19
0 -25 -1 -27 -2 -1 -1 -2 -1 -2 0 -1 0 0 1 1 1 2 1 1 1 -1 1 -2 0 -4 -1 -6 -1
-2 -2 -3 -2 -3 -1 0 1 0 1 1 1 0 -1 1 -1 1 0 1 1 0 1 -2 1 -2 0 -3 -1 -4 -2
-1 -1 -1 -1 -1 0 0 2 -5 3 -7 1 -1 -1 -1 -1 -1 0 0 2 -7 1 -8 -1 -1 -1 -1 -1
-1 0 0 2 -4 3 -6 0 -2 0 -3 -1 -3 -1 -1 0 -1 1 1 1 1 2 0 2 -9 2 l-11 0 -1 -4z
m5 2 c0 -1 -1 -1 -2 -1 0 0 -1 0 0 1 0 1 1 1 1 1 1 0 1 0 1 -1z m6 0 c0 -1 0
-1 0 -1 -1 0 -1 0 -1 1 -1 1 -1 1 0 1 1 0 1 0 1 -1z m26 0 c0 -1 0 -1 -1 -1
-1 0 -1 0 -1 1 0 1 0 1 0 1 1 0 1 0 2 -1z m33 0 c-1 -1 -2 -1 -2 -1 -1 0 -1 0
-1 1 0 1 1 1 2 1 0 0 1 0 1 -1z m7 0 c0 -1 0 -1 -1 -1 -1 0 -1 0 -1 1 0 1 0 1
1 1 1 0 1 0 1 -1z m7 0 c-1 -1 -1 -1 -2 0 -1 1 -1 1 1 1 1 0 2 -1 1 -1z m7 0
c0 -1 0 -1 -1 -1 -1 0 -1 0 -1 1 0 1 0 1 0 1 1 0 1 0 2 -1z m6 0 c0 -1 0 -1
-1 -1 -1 0 -1 0 -1 1 0 1 0 1 1 1 1 0 1 0 1 -1z m12 1 c0 -1 -3 -2 -4 -1 0 1
1 1 2 1 1 0 2 0 2 0z M76 84 c-1 -1 -1 -3 -1 -4 l-1 -2 26 0 c24 0 26 0 26 2
1 1 1 3 1 4 l1 2 -26 0 c-24 0 -26 0 -26 -2z M72 70 c-1 0 -1 -2 -1 -4 l-1 -3
17 0 18 0 1 4 1 4 -18 0 c-9 0 -17 0 -17 -1z M67 53 c-1 -3 -1 -4 0 -4 1 0 1
0 1 1 0 1 4 1 4 0 0 -1 1 -1 1 0 2 2 3 2 3 1 0 -2 1 -2 3 -2 l3 0 -3 2 c-2 2
-2 3 -1 3 1 0 2 0 2 -1 0 -1 1 -1 2 -1 0 0 1 1 1 2 0 2 -1 2 -3 2 -2 0 -4 0
-4 -1 0 -1 -1 -1 -3 -1 -2 0 -3 0 -2 1 0 1 -1 1 -1 1 -1 0 -2 -1 -3 -3z"/>
</g>
<g transform="translate(0.000000,256.000000) scale(1.000000,-1.000000)"
fill="#33375d" stroke="none">
<path d="M183 196 c3 0 7 0 9 0 3 0 0 1 -4 1 -5 0 -7 -1 -5 -1z M110 116 c14
0 38 0 52 0 14 0 2 1 -26 1 -29 0 -41 -1 -26 -1z M80 101 c-1 0 0 -1 1 0 2 0
3 1 1 1 -1 0 -2 0 -2 -1z M105 101 c0 0 2 0 2 0 1 1 0 1 -1 1 -1 0 -2 0 -1 -1z
M121 101 c0 0 2 0 2 0 1 1 0 1 -1 1 -1 0 -2 0 -1 -1z M128 101 c1 0 1 0 2 0 0
1 -1 1 -2 1 -1 0 -1 0 0 -1z M137 101 c0 0 2 0 2 0 1 1 0 1 -1 1 -1 0 -2 0 -1
-1z M153 101 c0 0 2 0 2 0 1 1 0 1 -1 1 -1 0 -2 0 -1 -1z M161 101 c1 0 3 0 4
0 1 1 0 1 -2 1 -2 0 -3 0 -2 -1z M179 101 c1 0 1 0 2 0 0 1 -1 1 -2 1 -1 0 -1
0 0 -1z M185 101 c1 0 3 0 4 0 1 1 0 1 -2 1 -2 0 -3 0 -2 -1z M78 93 c0 -1 1
-1 2 -1 0 1 -1 1 -2 1 -1 1 -1 1 0 0z M89 92 c0 0 2 0 2 0 1 1 0 1 -1 1 -1 0
-2 0 -1 -1z M103 92 c0 0 2 0 2 0 1 1 0 1 -1 1 -1 0 -2 0 -1 -1z M111 92 c0 0
2 0 2 0 1 1 0 1 -1 1 -1 0 -2 0 -1 -1z M119 92 c0 0 2 0 2 0 1 1 0 1 -1 1 -1
0 -2 0 -1 -1z M127 92 c0 0 2 0 2 0 1 1 0 1 -1 1 -1 0 -2 0 -1 -1z M135 92 c0
0 2 0 2 0 1 1 0 1 -1 1 -1 0 -2 0 -1 -1z M143 92 c0 0 2 0 2 0 1 1 0 1 -1 1
-1 0 -2 0 -1 -1z M151 92 c0 0 2 0 2 0 1 1 0 1 -1 1 -1 0 -2 0 -1 -1z M159 92
c1 0 3 0 3 0 1 1 0 1 -1 1 -2 0 -3 0 -2 -1z M169 92 c0 0 2 0 2 0 1 1 0 1 -1
1 -1 0 -2 0 -1 -1z M181 92 c0 0 2 0 2 0 1 1 0 1 -1 1 -1 0 -2 0 -1 -1z M87
77 c7 0 19 0 26 0 8 0 2 1 -13 1 -15 0 -21 -1 -13 -1z"/>
</g>
<g transform="translate(0.000000,256.000000) scale(1.000000,-1.000000)"
fill="#5b5a9a" stroke="none">
<path d="M186 205 c2 0 6 0 8 0 3 0 1 1 -4 1 -5 0 -7 -1 -4 -1z M167 190 c5 0
13 0 18 0 5 0 1 1 -9 1 -10 0 -14 -1 -9 -1z M137 175 c-1 0 0 -1 1 0 2 0 3 1
1 1 -1 0 -2 0 -2 -1z M77 137 c1 0 3 0 4 0 1 1 0 1 -2 1 -2 0 -3 0 -2 -1z M87
137 c1 0 3 0 4 0 1 1 0 1 -2 1 -2 0 -3 0 -2 -1z M97 137 c0 0 2 0 2 0 1 1 0 1
-1 1 -1 0 -2 0 -1 -1z M106 137 c2 0 5 0 7 0 2 0 0 1 -3 1 -4 0 -6 -1 -4 -1z
M125 137 c1 0 3 0 4 0 1 1 0 1 -2 1 -2 0 -3 0 -2 -1z M135 137 c1 0 3 0 4 0 1
1 0 1 -2 1 -2 0 -3 0 -2 -1z M145 137 c0 0 2 0 2 0 1 1 0 1 -1 1 -1 0 -2 0 -1
-1z M154 137 c2 0 5 0 7 0 2 0 0 1 -3 1 -4 0 -6 -1 -4 -1z M174 137 c1 0 3 0
4 0 1 1 0 1 -2 1 -3 0 -3 0 -2 -1z M103 122 c13 0 35 0 48 0 14 0 3 1 -24 1
-27 0 -38 -1 -24 -1z M72 56 c2 0 6 0 8 0 3 0 1 1 -4 1 -5 0 -7 -1 -4 -1z"/>
</g>
<g transform="translate(0.000000,256.000000) scale(1.000000,-1.000000)"
fill="#493e8d" stroke="none">
<path d="M107 107 c14 0 38 0 52 0 14 0 2 1 -26 1 -28 0 -40 -1 -26 -1z M76
86 c-1 0 11 0 26 0 15 0 27 0 26 0 0 1 -52 1 -52 0z M80 71 c5 0 13 0 18 0 5
0 1 1 -8 1 -10 0 -15 -1 -10 -1z"/>
</g>
<g transform="translate(0.000000,256.000000) scale(1.000000,-1.000000)"
fill="#40476c" stroke="none">
<path d="M101 101 c0 0 2 0 2 0 1 1 0 1 -1 1 -1 0 -2 0 -1 -1z M109 101 c0 0
2 0 2 0 1 1 0 1 -1 1 -1 0 -2 0 -1 -1z M117 101 c0 0 2 0 2 0 1 1 0 1 -1 1 -1
0 -2 0 -1 -1z M125 101 c1 0 1 0 2 0 0 1 -1 1 -2 1 -1 0 -1 0 0 -1z M133 101
c0 0 2 0 2 0 1 1 0 1 -1 1 -1 0 -2 0 -1 -1z M141 101 c0 0 2 0 2 0 1 1 0 1 -1
1 -1 0 -2 0 -1 -1z M149 101 c0 0 2 0 2 0 1 1 0 1 -1 1 -1 0 -2 0 -1 -1z M157
101 c0 0 2 0 2 0 1 1 0 1 -1 1 -1 0 -2 0 -1 -1z M171 101 c1 0 1 0 2 0 0 1 -1
1 -2 1 -1 0 -1 0 0 -1z M176 101 c1 0 1 0 2 0 0 1 -1 1 -2 1 -1 0 -1 0 0 -1z
M182 101 c1 0 1 0 2 0 0 1 -1 1 -2 1 -1 0 -1 0 0 -1z M191 101 c0 0 2 0 2 0 1
1 0 1 -1 1 -1 0 -2 0 -1 -1z M82 92 c1 0 3 0 4 0 1 1 0 1 -2 1 -2 0 -3 0 -2
-1z M93 92 c0 0 2 0 2 0 1 1 0 1 -1 1 -1 0 -2 0 -1 -1z M99 92 c0 0 2 0 2 0 1
1 0 1 -1 1 -1 0 -2 0 -1 -1z M107 92 c0 0 2 0 2 0 1 1 0 1 -1 1 -1 0 -2 0 -1
-1z M115 92 c0 0 2 0 2 0 1 1 0 1 -1 1 -1 0 -2 0 -1 -1z M123 92 c0 0 2 0 2 0
1 1 0 1 -1 1 -1 0 -2 0 -1 -1z M131 92 c0 0 2 0 2 0 1 1 0 1 -1 1 -1 0 -2 0
-1 -1z M139 92 c0 0 2 0 2 0 1 1 0 1 -1 1 -1 0 -2 0 -1 -1z M147 92 c0 0 2 0
2 0 1 1 0 1 -1 1 -1 0 -2 0 -1 -1z M155 92 c0 0 2 0 2 0 1 1 0 1 -1 1 -1 0 -2
0 -1 -1z M164 92 c1 0 3 0 3 0 1 1 0 1 -1 1 -2 0 -3 0 -2 -1z M174 92 c1 0 3
0 4 0 1 1 0 1 -2 1 -2 0 -3 0 -2 -1z M186 92 c1 0 3 0 4 0 1 1 0 1 -2 1 -3 0
-3 0 -2 -1z"/>
</g>
<g transform="translate(0.000000,256.000000) scale(1.000000,-1.000000)"
fill="#745ed9" stroke="none">
<path d="M146 175 c1 0 1 0 2 0 0 1 -1 1 -2 1 -1 0 -1 0 0 -1z M154 175 c1 0
1 0 2 0 0 1 -1 1 -2 1 -1 0 -1 0 0 -1z M175 175 c1 0 1 0 2 0 0 1 -1 1 -2 1
-1 0 -1 0 0 -1z M83 137 c0 0 2 0 2 0 1 1 0 1 -1 1 -1 0 -2 0 -1 -1z M93 137
c0 0 2 0 2 0 1 1 0 1 -1 1 -1 0 -2 0 -1 -1z M101 137 c1 0 1 0 2 0 0 1 -1 1
-2 1 -1 0 -1 0 0 -1z M118 137 c1 0 3 0 4 0 1 1 0 1 -2 1 -2 0 -3 0 -2 -1z
M141 137 c0 0 2 0 2 0 1 1 0 1 -1 1 -1 0 -2 0 -1 -1z M149 137 c1 0 1 0 2 0 0
1 -1 1 -2 1 -1 0 -1 0 0 -1z M166 137 c1 0 3 0 4 0 1 1 0 1 -2 1 -2 0 -3 0 -2
-1z M71 55 c-1 -1 0 -1 2 -1 2 0 3 0 3 1 0 1 -1 1 -2 1 -2 0 -3 0 -3 -1z M79
52 c1 -2 2 -2 3 -1 1 1 1 1 0 1 -1 0 -2 0 -2 1 0 1 -1 1 -2 1 -1 0 -1 0 1 -2z
M73 50 c0 -1 0 -1 -1 0 0 1 -4 1 -4 0 0 0 -1 -1 -2 -1 -1 -1 3 -1 8 -1 4 0 7
1 5 1 -2 0 -3 1 -3 2 0 2 -2 1 -3 -1z"/>
</g>
<g transform="translate(0.000000,256.000000) scale(1.000000,-1.000000)"
fill="#7f80cc" stroke="none">
<path d="M78 160 c1 0 1 0 2 0 0 1 -1 1 -2 1 -1 0 -1 0 0 -1z M86 160 c1 0 1
0 2 0 0 1 -1 1 -2 1 -1 0 -1 0 0 -1z M94 160 c1 0 1 0 2 0 0 1 -1 1 -2 1 -1 0
-1 0 0 -1z M132 160 c0 0 2 0 2 0 1 1 0 1 -1 1 -1 0 -2 0 -1 -1z M165 160 c0
0 2 0 2 0 1 1 0 1 -1 1 -1 0 -2 0 -1 -1z M174 160 c1 0 1 0 2 0 0 1 -1 1 -2 1
-1 0 -1 0 0 -1z M181 160 c0 0 2 0 2 0 1 1 0 1 -1 1 -1 0 -2 0 -1 -1z M77 152
c0 0 2 0 2 0 1 1 0 1 -1 1 -1 0 -2 0 -1 -1z M93 152 c0 0 2 0 2 0 1 1 0 1 -1
1 -1 0 -2 0 -1 -1z M118 152 c1 0 1 0 2 0 0 1 -1 1 -2 1 -1 0 -1 0 0 -1z M142
152 c1 0 1 0 2 0 0 1 -1 1 -2 1 -1 0 -1 0 0 -1z M173 152 c0 0 2 0 2 0 1 1 0
1 -1 1 -1 0 -2 0 -1 -1z M181 152 c1 0 1 0 2 0 0 1 -1 1 -2 1 -1 0 -1 0 0 -1z"/>
</g>
<g transform="translate(0.000000,256.000000) scale(1.000000,-1.000000)"
fill="#7885b4" stroke="none">
<path d="M141 175 c1 0 3 0 3 0 1 1 0 1 -1 1 -2 0 -3 0 -2 -1z M149 175 c1 0
3 0 3 0 1 1 0 1 -1 1 -2 0 -3 0 -2 -1z M157 175 c0 0 2 0 2 0 1 1 0 1 -1 1 -1
0 -2 0 -1 -1z M166 175 c2 0 4 0 6 0 1 1 0 1 -3 1 -4 0 -5 -1 -3 -1z M180 175
c2 0 4 0 6 0 2 0 1 1 -3 1 -4 0 -5 -1 -3 -1z"/>
</g>
</svg>
